<svg width="25" height="25" fill="none" xmlns="http://www.w3.org/2000/svg"><path d="M22.927 23.001h-8.572m0-8.571h8.572m-8.572 4.285h8.572M23.22 7.88c.547 1.065-.282 2.264-1.479 2.264h-6.257c-1.18 0-2.01-1.17-1.489-2.229 1.123-2.278 2.56-3.944 4.646-6.343 2.002 2.392 3.422 4.051 4.58 6.309zM6.213 23.427a4.712 4.712 0 100-9.425 4.712 4.712 0 000 9.425z" stroke="#001C04" stroke-opacity=".6" stroke-width="1.5" stroke-linecap="round" stroke-linejoin="round"/><path d="M2.102 8.383c.09.823.75 1.482 1.572 1.577.823.094 1.671.184 2.538.184.868 0 1.716-.09 2.539-.184a1.795 1.795 0 001.572-1.577c.091-.818.175-1.662.175-2.525s-.084-1.707-.175-2.525a1.795 1.795 0 00-1.572-1.577c-.823-.094-1.671-.184-2.539-.184-.867 0-1.715.09-2.538.184a1.794 1.794 0 00-1.572 1.577c-.091.818-.175 1.662-.175 2.525s.084 1.707.175 2.525z" stroke="#001C04" stroke-opacity=".6" stroke-width="1.5"/></svg>