<svg width="107" height="72" fill="none" xmlns="http://www.w3.org/2000/svg"><path d="M33.193 24.5h21.25V12.703c0-7.129-3.789-11.816-11.23-11.816h-10.02V24.5zm6.309-6.29V7.177h3.73c2.696 0 4.961 1.719 4.961 5.761v5.274h-8.691zm17.843 6.29h6.465V.887h-6.465V24.5zm9.405-9.531h6.446V.887H66.75v14.082zM.066 71.512h6.367V40.887H.066v30.625zm9.62-7.012h6.465V40.887H9.686V64.5zm21.594 0h6.308V52.703c0-7.129-3.79-11.816-11.074-11.816h-7.696v6.289h7.5c2.559 0 4.961 2.129 4.961 5.918V64.5zm8.604 0H47.6c6.172 0 11.035-4.375 11.035-11.797 0-7.715-4.785-11.816-11.035-11.816h-7.715v6.289h7.285c2.89 0 5.176 2.46 5.176 5.586 0 3.047-1.973 5.449-5.098 5.449h-7.363V64.5zm20.753-9.531h6.445V40.887h-6.445v14.082zM74.574 64.5h6.543l-2.793-17.402h5.039l-.02-6.211H69.105v6.21h3.184L74.574 64.5zm25.655 0h6.309V52.703c0-7.129-3.965-11.816-11.211-11.816h-9.316v6.289h9.218c2.54 0 5 1.582 5 5.879V64.5zm-14.218 0h6.367V52.508H86.01V64.5zM9 32.104L13 25l4 7.104H9z" fill="#F0FFF5"/><path d="M13 34.471l4-7.103H9l4 7.104z" fill="#F0FFF5"/></svg>