<svg width="110" height="108" fill="none" xmlns="http://www.w3.org/2000/svg"><path d="M43.154 25.653H65.79V13.087C65.79 5.493 61.753.5 53.827.5H43.154v25.153zm6.72-6.7V7.2h3.974c2.87 0 5.284 1.831 5.284 6.138v5.617h-9.258zm19.006 6.7h6.887V.5H68.88v25.153zM78.899 15.5h6.866V.5h-6.866v15zM2.574 68.261h6.782V49.766h23.39c2.663 0 5.18 2.039 5.18 6.345v12.15h6.762V55.695c0-7.594-4.37-12.587-11.963-12.587H2.574v25.153zm45.204 0h6.887V43.108h-6.887v25.153zm9.353.187h1.894c2.683 0 5.138-.728 6.699-2.371 1.706-1.79 2.205-4.515 2.143-8.197l-.146-8.093 3.246-.042C73.484 49.703 76 51.243 76 56.049V68.26h6.762V55.695c0-7.843-3.932-12.67-11.588-12.628l-13.44.062.041 6.762 3.37-.042.105 8.135c.02 1.706-.23 2.767-.79 3.37-.646.666-1.707.749-3.33.562v6.532zm30.657-.187H94.3c7.906 0 13.253-4.972 13.274-13.17.021-8.404-5.513-13.252-12.504-12.69-6.428.52-10.381 4.93-10.236 10.277.104 4.099 3.017 6.679 5.41 7.178l3.412-5.513c-1.02-.229-1.915-1.04-2.06-1.935-.208-1.248.166-2.83 2.226-3.391 3.516-.957 7.282 1.456 7.094 6.325-.166 4.514-3.287 6.449-7.697 6.449h-5.43v6.47z" fill="#F0FFF5"/><circle cx="12" cy="96.5" r="5" fill="#FF0E00"/><circle cx="12" cy="96.653" r="10.038" stroke="#F0FFF5" stroke-width="2.231"/><path d="M28.153 107.334V87.657h5.51l.472 2.362h.157a12.632 12.632 0 012.676-1.968c1.024-.577 2.204-.866 3.542-.866 2.178 0 3.739.735 4.684 2.204.97 1.443 1.456 3.384 1.456 5.824v12.121h-6.77V96.079c0-1.26-.157-2.099-.472-2.519-.314-.42-.813-.63-1.495-.63-.63 0-1.154.132-1.574.394-.42.263-.892.63-1.417 1.102v12.908h-6.769zm27.785.473c-1.521 0-2.728-.302-3.62-.906-.866-.629-1.496-1.495-1.89-2.597-.366-1.128-.55-2.427-.55-3.896V79.944h6.769v20.7c0 .656.118 1.115.354 1.378.262.236.512.354.748.354h.314c.105-.027.237-.053.394-.079l.787 4.959c-.34.157-.787.288-1.338.393-.55.105-1.207.158-1.968.158zm4.481-.473V87.657h6.769v19.677h-6.77zm3.384-22.117c-1.05 0-1.915-.314-2.597-.944-.682-.656-1.023-1.47-1.023-2.44 0-.997.34-1.81 1.023-2.44.682-.63 1.548-.945 2.597-.945 1.076 0 1.942.315 2.598.945.682.63 1.023 1.443 1.023 2.44 0 .97-.341 1.784-1.023 2.44-.656.63-1.522.944-2.598.944zm6.773 22.117V87.657h5.51l.471 2.362h.158a12.581 12.581 0 012.676-1.968c1.023-.577 2.204-.866 3.542-.866 2.177 0 3.738.735 4.683 2.204.97 1.443 1.456 3.384 1.456 5.824v12.121h-6.769V96.079c0-1.26-.157-2.099-.472-2.519-.315-.42-.814-.63-1.496-.63-.63 0-1.154.132-1.574.394-.42.263-.892.63-1.416 1.102v12.908h-6.77zm30.854.473c-1.915 0-3.647-.407-5.194-1.22-1.522-.814-2.729-1.981-3.62-3.503-.893-1.548-1.339-3.41-1.339-5.588 0-2.125.446-3.949 1.338-5.47.918-1.548 2.099-2.742 3.542-3.582 1.443-.84 2.965-1.259 4.565-1.259 1.941 0 3.542.433 4.801 1.299 1.286.84 2.23 1.98 2.834 3.424.629 1.442.944 3.043.944 4.8 0 .578-.039 1.142-.118 1.693-.052.525-.105.905-.157 1.141H96.629l-.079-4.407h7.005c0-.761-.196-1.417-.59-1.968-.367-.577-1.062-.866-2.086-.866-.577 0-1.128.157-1.653.472-.524.315-.957.853-1.298 1.614-.341.76-.512 1.797-.512 3.109 0 1.39.25 2.466.748 3.227.498.734 1.128 1.246 1.889 1.535a6.513 6.513 0 002.322.433c.682 0 1.338-.092 1.968-.276.655-.21 1.338-.512 2.046-.905l2.204 4.014a12.26 12.26 0 01-3.542 1.692c-1.312.394-2.519.591-3.621.591z" fill="#F0FFF5"/></svg>