<svg width="105" height="68" fill="none" xmlns="http://www.w3.org/2000/svg"><path d="M40.58 25.153h22.636V12.587C63.216 4.993 59.179 0 51.253 0H40.58v25.153zm6.72-6.7V6.7h3.974c2.87 0 5.284 1.831 5.284 6.138v5.617H47.3zm19.006 6.7h6.887V0h-6.887v25.153zM76.325 15h6.866V0h-6.866v15zM0 67.761h6.782V49.266h23.39c2.663 0 5.18 2.039 5.18 6.345v12.15h6.762V55.195c0-7.594-4.37-12.587-11.963-12.587H0v25.153zm45.204 0h6.887V42.608h-6.887v25.153zm9.353.187h1.894c2.684 0 5.139-.728 6.699-2.371 1.706-1.79 2.205-4.515 2.143-8.197l-.146-8.093 3.246-.042c2.517-.042 5.034 1.498 5.034 6.304V67.76h6.762V55.195c0-7.843-3.932-12.67-11.588-12.628l-13.44.062.041 6.762 3.37-.042.105 8.135c.02 1.706-.23 2.767-.79 3.37-.646.666-1.707.749-3.33.562v6.532zm30.658-.187h6.511c7.906 0 13.253-4.972 13.274-13.17.021-8.404-5.513-13.252-12.504-12.69-6.428.52-10.381 4.93-10.236 10.277.104 4.099 3.017 6.679 5.41 7.178l3.412-5.513c-1.02-.229-1.914-1.04-2.06-1.935-.208-1.248.166-2.83 2.226-3.391 3.516-.957 7.282 1.456 7.094 6.325-.166 4.514-3.287 6.449-7.697 6.449h-5.43v6.47z" fill="#F0FFF5"/></svg>