<svg width="21" height="21" fill="none" xmlns="http://www.w3.org/2000/svg"><path d="M6.836 1v3.84M13.62 1v3.84M1.3 15.782c.243 2.177 2.012 3.905 4.2 4.01a97.61 97.61 0 004.734.111 97.61 97.61 0 004.733-.11c2.188-.106 3.957-1.834 4.201-4.01.164-1.467.3-2.97.3-4.5 0-1.531-.136-3.034-.3-4.5-.244-2.177-2.013-3.905-4.201-4.01a97.433 97.433 0 00-4.733-.111c-1.677 0-3.222.038-4.734.11-2.188.106-3.957 1.834-4.2 4.01-.165 1.467-.3 2.97-.3 4.5 0 1.531.135 3.034.3 4.5zm4.397-6.768h.756m-.756 4.536h.756m3.402-4.536h.757m3.402 0h.756M9.855 13.55h.757" stroke="#F0FFF5" stroke-width="1.5" stroke-linecap="round" stroke-linejoin="round"/></svg>