<svg width="56" height="59" fill="none" xmlns="http://www.w3.org/2000/svg"><path d="M11.84 35.632c6.23 0 11.28 5.05 11.28 11.279S18.07 58.19 11.84 58.19C5.613 58.19.563 53.14.563 46.91c0-6.228 5.05-11.278 11.279-11.278zm29.315 0a7.8 7.8 0 110 15.6 7.8 7.8 0 010-15.6zM14.293 1.612a4.867 4.867 0 00-4.376 4.123c-.419 2.816-.84 5.731-.84 8.717 0 2.985.421 5.9.84 8.717a4.867 4.867 0 004.377 4.122l1.143.1c3.768.33 7.67.672 11.666.672 3.997 0 7.898-.342 11.666-.672l1.144-.1a4.866 4.866 0 004.377-4.122 124.2 124.2 0 00.503-3.649 2480.683 2480.683 0 0010.324 4.576V4.806S49.23 7.4 44.793 9.383a124.234 124.234 0 00-.503-3.647 4.866 4.866 0 00-4.377-4.123l-1.144-.1c-3.767-.33-7.67-.671-11.666-.671-3.996 0-7.898.341-11.666.671l-1.143.1z" fill="#256035"/></svg>