<svg width="19" height="17" fill="none" xmlns="http://www.w3.org/2000/svg"><path d="M.744 13.697A3.114 3.114 0 003.5 16.399c1.978.206 4.027.424 6.127.424 2.1 0 4.15-.218 6.127-.424a3.114 3.114 0 002.757-2.702c.212-1.702.42-3.463.42-5.265 0-1.802-.208-3.562-.42-5.265A3.114 3.114 0 0015.755.466C13.777.259 11.728.041 9.628.041c-2.1 0-4.15.218-6.127.425A3.114 3.114 0 00.744 3.167C.532 4.87.324 6.63.324 8.432c0 1.802.208 3.563.42 5.265z" fill="#F0FFF5" fill-opacity=".7"/><path d="M.785 2.782l7 5.519a2.977 2.977 0 003.687 0l7-5.519" stroke="#1A331E" stroke-width="1.5" stroke-linejoin="round"/></svg>