<svg width="17" height="17" fill="none" xmlns="http://www.w3.org/2000/svg"><path d="M5.342.561c-1.02-.853-2.537-.73-3.31.35-.207.29-.452.634-.874 1.163-1.454 1.819-1.454 4.452.008 6.264 1.08 1.338 2.21 2.688 3.476 3.953 1.265 1.265 2.614 2.396 3.952 3.476 1.813 1.462 4.446 1.462 6.265.008.564-.451.916-.697 1.214-.91 1.045-.746 1.192-2.21.376-3.201-.645-.783-1.363-1.53-2.055-2.26-.552-.581-1.473-.62-2.1-.12a13.36 13.36 0 00-.8.71c-2.08-1.236-3.342-2.512-4.555-4.555.402-.429.58-.639.715-.809.5-.625.462-1.544-.123-2.09-.711-.668-1.437-1.349-2.19-1.98z" fill="#F0FFF5" fill-opacity=".7"/></svg>