<svg width="40" height="37" fill="none" xmlns="http://www.w3.org/2000/svg"><path d="M27.805 1.21c2.356-1.84 5.867-1.576 7.655.754.477.622 1.043 1.365 2.02 2.504 3.363 3.917 3.363 9.59-.018 13.494-2.496 2.882-5.113 5.79-8.038 8.514-2.925 2.725-6.047 5.163-9.14 7.488-4.192 3.149-10.282 3.149-14.488.017-1.304-.971-2.118-1.5-2.809-1.96-2.416-1.608-2.754-4.76-.868-6.895 1.49-1.688 3.151-3.298 4.752-4.869 1.276-1.252 3.406-1.333 4.854-.256.39.29.873.671 1.854 1.527 4.81-2.663 7.726-5.412 10.533-9.811-.93-.925-1.34-1.376-1.654-1.743-1.154-1.347-1.069-3.326.283-4.504 1.648-1.435 3.324-2.903 5.064-4.26z" fill="#256035"/></svg>