<svg width="687" height="277" fill="none" xmlns="http://www.w3.org/2000/svg"><path d="M489.322 111.376H591.84V55.742c0-35.093-18.238-55.726-51.213-55.726h-51.305v111.36zm34.449-32.975V33.912h14.184c9.119 0 19.62 5.343 19.62 21.922v22.567h-33.804zm78.713 32.975h35.922V.016h-35.922v111.36zm46.659-45.041h34.909V.016h-34.909v66.319zM0 275.079h36.962v-77.648h314.236c9.119 0 18.975 7.737 18.975 24.041v53.607h34.909v-55.634c0-34.909-18.238-55.726-51.213-55.726H0v111.36zm415.634 0h35.923v-111.36h-35.923v111.36zm43.988.553l11.79.368c12.066.369 23.764-3.776 30.672-11.329 7.461-8.106 9.672-18.975 9.396-34.449l-.553-33.62 12.527-.184c7.921-.092 18.237 5.619 18.237 23.672v54.989h35.002v-56.094c0-35.002-16.948-55.542-49.094-55.45l-64.477.184.184 33.436 14.093-.184.368 31.869c.093 6.448-1.565 10.501-4.052 12.435-2.672 2.119-8.014 3.685-14.093 2.579v31.778zm136.834-.553h30.949c33.712 0 58.858-21.553 58.95-57.936.092-35.555-21.83-56.924-52.963-56.556-32.699.369-49.923 21.554-49.555 45.595.276 20.079 16.396 26.988 18.514 27.909l21.369-23.58c-2.118-1.106-5.158-3.132-5.71-6.816-.553-3.961.552-7.461 4.881-9.58 11.422-5.618 30.397 2.395 29.199 24.317-.921 16.303-12.527 24.501-29.567 24.501h-26.067v32.146z" fill="#fff"/></svg>