<svg width="24" height="23" fill="none" xmlns="http://www.w3.org/2000/svg"><path d="M7.86 1.661C6.596.601 4.71.753 3.75 2.097c-.257.359-.561.787-1.086 1.443-1.806 2.26-1.806 5.531.01 7.783 1.34 1.662 2.746 3.339 4.318 4.91 1.571 1.572 3.248 2.977 4.91 4.318 2.252 1.816 5.523 1.816 7.783.01.7-.56 1.137-.866 1.509-1.13 1.298-.927 1.48-2.745.466-3.977-.8-.973-1.693-1.901-2.553-2.808-.685-.722-1.83-.769-2.607-.148-.21.168-.47.388-.996.881-2.584-1.535-4.15-3.12-5.658-5.658.5-.533.72-.794.888-1.005.62-.777.574-1.918-.152-2.597-.885-.828-1.786-1.674-2.72-2.458z" stroke="#7E7E7E" stroke-width="1.5" stroke-linecap="round" stroke-linejoin="round"/></svg>