<svg width="21" height="21" fill="none" xmlns="http://www.w3.org/2000/svg"><path d="M1.34 15.652c.235 2.222 2.024 4.011 4.245 4.257 1.57.174 3.183.32 4.826.32 1.643 0 3.255-.146 4.826-.32 2.222-.246 4.01-2.035 4.246-4.257.166-1.562.304-3.165.304-4.798s-.138-3.236-.304-4.798c-.236-2.222-2.024-4.011-4.246-4.257-1.57-.174-3.183-.32-4.826-.32-1.643 0-3.255.146-4.826.32-2.221.246-4.01 2.035-4.246 4.257-.166 1.562-.304 3.165-.304 4.798s.138 3.236.304 4.798z" stroke="#256035" stroke-width="1.5"/><path d="M10.41 14.22a3.366 3.366 0 100-6.732 3.366 3.366 0 000 6.732z" stroke="#256035" stroke-width="1.5" stroke-linecap="round" stroke-linejoin="round"/><path d="M15.527 5.66v.676" stroke="#256035" stroke-width="1.5" stroke-linecap="round"/></svg>