<svg width="24" height="22" fill="none" xmlns="http://www.w3.org/2000/svg"><path d="M1.483 16.726a3.586 3.586 0 003.176 3.111c2.277.238 4.637.49 7.055.49 2.419 0 4.779-.252 7.056-.49a3.586 3.586 0 003.176-3.11c.243-1.961.483-3.989.483-6.064s-.24-4.102-.483-6.063a3.586 3.586 0 00-3.176-3.11C16.493 1.25 14.133 1 11.714 1c-2.418 0-4.778.251-7.055.49A3.586 3.586 0 001.483 4.6C1.239 6.56 1 8.588 1 10.663c0 2.075.24 4.103.483 6.063z" stroke="#F0FFF5" stroke-opacity=".7" stroke-width="1.5"/><path d="M1.53 4.156l8.062 6.356a3.43 3.43 0 004.245 0l8.06-6.356" stroke="#F0FFF5" stroke-opacity=".7" stroke-width="1.5" stroke-linejoin="round"/></svg>