<svg width="20" height="17" fill="none" xmlns="http://www.w3.org/2000/svg"><path d="M1.323 13.656a3.114 3.114 0 002.758 2.702c1.978.206 4.027.424 6.127.424 2.1 0 4.15-.218 6.127-.424a3.114 3.114 0 002.757-2.702c.212-1.702.42-3.463.42-5.265 0-1.802-.208-3.562-.42-5.265A3.114 3.114 0 0016.335.425C14.357.218 12.308 0 10.208 0c-2.1 0-4.15.218-6.127.425a3.114 3.114 0 00-2.758 2.701C1.112 4.83.904 6.59.904 8.391c0 1.802.208 3.563.42 5.265z" fill="#256035"/><path d="M1.365 2.741l7 5.52a2.977 2.977 0 003.687 0l7-5.52" fill="#256035"/><path d="M1.365 2.741l7 5.52a2.977 2.977 0 003.687 0l7-5.52" stroke="#F0FFF5" stroke-width="1.5" stroke-linejoin="round"/></svg>