<svg width="133" height="131" fill="none" xmlns="http://www.w3.org/2000/svg"><path d="M42.465 124.399c.06-.164.777-.103 2.075.153.644.123 1.442.317 2.383.481.94.173 2.014.429 3.24.613 4.878.828 12.025 1.677 20.686.655 8.63-.982 18.854-4.009 28.384-10.369 1.206-.766 2.352-1.646 3.538-2.505 1.135-.92 2.311-1.809 3.415-2.822 1.135-.971 2.198-2.034 3.292-3.098 1.043-1.104 2.117-2.208 3.109-3.405 4.049-4.693 7.494-10.184 10.112-16.216a67.538 67.538 0 003.159-9.213 69.311 69.311 0 001.677-9.305c.307-3.087.409-6.124.307-9.1-.143-2.975-.388-5.9-.92-8.711-.941-5.644-2.699-10.849-4.765-15.511-2.106-4.653-4.632-8.722-7.229-12.22a68.567 68.567 0 00-7.832-8.793c-1.248-1.216-2.505-2.249-3.63-3.24-1.176-.921-2.229-1.82-3.231-2.526-3.978-2.955-6.38-4.377-6.207-4.734.144-.297 2.874.5 7.332 3.006 1.124.603 2.3 1.4 3.619 2.239 1.268.9 2.669 1.871 4.07 3.027a63.316 63.316 0 018.824 8.711 65.449 65.449 0 018.262 12.658c2.392 4.898 4.447 10.44 5.603 16.503.634 3.017.971 6.166 1.176 9.377a72.35 72.35 0 01-.195 9.846 71.496 71.496 0 01-1.738 10.092 70.35 70.35 0 01-3.394 10c-2.843 6.544-6.626 12.485-11.054 17.515-1.083 1.278-2.259 2.454-3.404 3.64-1.197 1.135-2.373 2.26-3.61 3.293-1.206 1.063-2.495 2.014-3.742 2.975-1.288.9-2.546 1.83-3.865 2.618-5.194 3.302-10.603 5.664-15.828 7.28-5.225 1.626-10.276 2.423-14.877 2.72-9.213.593-16.616-.9-21.493-2.383-1.227-.347-2.29-.767-3.21-1.104a25.937 25.937 0 01-2.28-.982c-1.207-.593-1.8-.981-1.74-1.165h-.02z" fill="#F8F8F8"/><path d="M65.123.616c0 .41-2.648.634-7.311 1.483-4.632.88-11.35 2.474-18.793 6.299-7.403 3.783-15.501 9.887-21.963 18.711-1.585 2.219-3.119 4.56-4.469 7.076C11.258 36.71 10.011 39.348 9 42.14c-1.003 2.791-1.861 5.685-2.475 8.69a65.009 65.009 0 00-1.176 9.213 68.2 68.2 0 00.225 9.274 66.512 66.512 0 001.554 8.896 64.943 64.943 0 002.74 8.282c1.115 2.628 2.342 5.143 3.722 7.505 2.771 4.704 5.982 8.834 9.418 12.29a64.141 64.141 0 0010.5 8.589c7.005 4.571 13.518 6.861 18.037 8.221 4.55 1.329 7.178 1.82 7.137 2.229-.03.317-2.74.532-7.587-.215-4.816-.766-11.84-2.597-19.54-7.034-3.834-2.209-7.801-5.072-11.615-8.64-3.824-3.559-7.413-7.914-10.531-12.924C7.864 94 6.473 91.3 5.215 88.478a69.475 69.475 0 01-3.098-8.957 68.9 68.9 0 01-1.779-9.663 70.308 70.308 0 01-.266-10.081 67.479 67.479 0 011.32-10.02 66.966 66.966 0 012.77-9.428c1.135-3.017 2.526-5.87 4.019-8.579 1.513-2.7 3.22-5.204 4.99-7.566 7.218-9.376 16.185-15.593 24.253-19.162C45.542 1.414 52.73.33 57.587.064c1.217-.092 2.31-.061 3.241-.05.941 0 1.728.07 2.373.142 1.278.143 1.942.307 1.942.491l-.02-.03zm7.792 129.887c-.103-.389 2.678-1.063 7.464-2.771a75.791 75.791 0 008.445-3.599 68.756 68.756 0 0010.215-6.248 67.433 67.433 0 0010.491-9.652 65.174 65.174 0 009.008-13.313c1.278-2.505 2.382-5.173 3.364-7.924a68.899 68.899 0 002.3-8.599c.542-2.965.9-6.002 1.043-9.07a68.93 68.93 0 00-.317-9.294 65.046 65.046 0 00-1.707-9.07 62.496 62.496 0 00-2.935-8.394c-1.155-2.669-2.515-5.174-3.946-7.546-1.463-2.362-3.068-4.55-4.714-6.595-6.738-8.139-14.744-13.435-21.871-16.585-7.178-3.18-13.466-4.284-17.781-4.867-4.336-.552-6.79-.623-6.83-1.032-.02-.184.562-.389 1.707-.593 1.145-.225 2.873-.4 5.113-.44 2.249-.051 5.01.112 8.22.573 3.2.49 6.84 1.36 10.737 2.79a57.394 57.394 0 0112.177 6.207c2.086 1.35 4.121 2.955 6.156 4.673 1.994 1.78 3.987 3.691 5.859 5.838a61.606 61.606 0 019.764 15.103c2.638 5.736 4.489 12.178 5.276 18.936a64.994 64.994 0 01-.756 19.949 64.62 64.62 0 01-6.309 17.832c-2.812 5.399-6.319 10.092-10.01 14.11a66.687 66.687 0 01-11.585 9.857 64.364 64.364 0 01-11.166 5.971c-1.728.737-3.384 1.279-4.907 1.8-1.544.44-2.956.879-4.254 1.145-5.174 1.176-8.15 1.166-8.231.839l-.02-.031z" fill="#256035"/><path d="M38.385 27.16c.092.368-1.319.91-3.845 2.076-.644.276-1.319.654-2.106 1.022-.746.42-1.595.839-2.464 1.38a42.802 42.802 0 00-5.777 4.142 42.915 42.915 0 00-6.186 6.564c-2.015 2.659-3.865 5.818-5.42 9.479-1.472 3.67-2.668 7.842-3.138 12.433-.522 4.591-.379 9.56.613 14.683a51.837 51.837 0 005.297 14.744c2.474 4.632 5.644 8.824 9.182 12.505 3.568 3.64 7.505 6.759 11.574 9.244a63.855 63.855 0 0012.229 5.787 68.97 68.97 0 0011.237 2.883c3.425.532 6.452.859 8.937.972 4.99.265 7.822.143 7.74.552-.061.358-3.057 1.237-8.395 1.574-1.329.103-2.812.092-4.407.113-1.605-.072-3.333-.102-5.184-.317a63.033 63.033 0 01-12.157-2.434c-8.66-2.648-18.19-7.75-25.94-15.685-1.933-1.973-3.774-4.09-5.44-6.37-.859-1.114-1.626-2.321-2.413-3.497-.726-1.227-1.493-2.433-2.137-3.711a52.988 52.988 0 01-3.436-7.884 50.971 50.971 0 01-2.167-8.312c-.276-1.401-.42-2.812-.583-4.182-.092-1.401-.225-2.75-.215-4.1-.061-2.69.143-5.317.47-7.823.328-2.505.9-4.897 1.534-7.157.716-2.25 1.462-4.386 2.413-6.35 1.8-3.957 4.1-7.29 6.442-10.06a39.886 39.886 0 017.219-6.637c4.764-3.394 9.028-4.836 11.891-5.48 2.894-.624 4.489-.501 4.58-.164l.052.01z" fill="#F8F8F8"/><path d="M3.14 79.072c.256-.102.716.46 1.37 1.585.317.572.706 1.268 1.166 2.086.46.818.94 1.779 1.564 2.822 2.383 4.182 6.094 10.112 12.035 15.971a64.63 64.63 0 0010.511 8.384c4.06 2.557 8.65 4.827 13.691 6.452 10.051 3.323 21.922 3.988 33.303.849 2.842-.746 5.572-1.779 8.17-2.924a52.84 52.84 0 007.361-3.978c2.3-1.472 4.458-3.067 6.421-4.795 1.974-1.708 3.804-3.497 5.43-5.379 3.313-3.701 5.869-7.699 7.904-11.574a58.204 58.204 0 004.335-11.36 59.476 59.476 0 001.728-9.887c.164-1.473.194-2.853.266-4.131 0-1.268.061-2.444.03-3.497-.04-4.213-.224-6.616.328-6.78.501-.153 1.697 1.964 2.719 6.258.512 2.137.941 4.827 1.095 8.006a50.99 50.99 0 01-.614 10.9c-.654 4.039-1.861 8.436-3.793 12.945-1.912 4.52-4.632 9.12-8.139 13.507-1.759 2.198-3.743 4.305-5.91 6.339a60.83 60.83 0 01-7.148 5.675c-5.163 3.487-11.114 6.37-17.607 8.17-12.985 3.681-26.533 2.771-37.801-1.289-5.654-1.993-10.706-4.744-15.082-7.822-4.376-3.087-8.037-6.543-11.043-9.979a58.632 58.632 0 01-7.096-10.092c-1.769-3.19-3.016-6.084-3.834-8.528-1.646-4.887-1.84-7.79-1.37-7.965l.01.031z" fill="#F8F8F8"/></svg>