<svg width="36" height="33" fill="none" xmlns="http://www.w3.org/2000/svg"><path d="M2.682 25.604a5.385 5.385 0 004.77 4.672c3.418.357 6.962.735 10.594.735 3.632 0 7.175-.378 10.595-.735a5.385 5.385 0 004.769-4.672c.365-2.944.725-5.988.725-9.104 0-3.116-.36-6.16-.725-9.104a5.385 5.385 0 00-4.77-4.672c-3.419-.357-6.962-.735-10.594-.735-3.632 0-7.175.378-10.595.735a5.385 5.385 0 00-4.769 4.672c-.365 2.943-.725 5.988-.725 9.104 0 3.116.36 6.16.725 9.104z" stroke="#256035" stroke-width="2"/><path d="M2.754 6.729l12.104 9.544a5.148 5.148 0 006.376 0l12.104-9.544" stroke="#256035" stroke-width="2" stroke-linejoin="round"/></svg>