<svg width="108" height="125" fill="none" xmlns="http://www.w3.org/2000/svg"><path fill-rule="evenodd" clip-rule="evenodd" d="M52.038 74.177c2.965-4.639.063-6.725-3.445-2.043L36.366 88.458c-5.815 7.767-11.258 2.228-5.578-4.423l11.816-13.839c4.273-5.002 1.85-8.523-4.174-2.355l-3.292 3.372c-5.083 5.204-9.044.704-3.962-5.179L53.113 40.64c2.654-3.073 25.032-30.633 12.714-25.538-10.14 4.196-18.183 13.075-30.036 26.714-4.048 4.659-6.768 1.964-3.56-2.404 3.676-5.002.461-8.767-3.942-3.943L17.711 47.057c-4.241 4.645-8.599 1.15-4.04-3.798l9.82-10.654c3.758-4.078.773-6.718-3.74-2.736l-3.517 3.104c-5.49 4.844-7.757-.25-1.348-6.62C28.279 13.04 41.368 4.215 53.018 1.28c18.889-4.759 36.806 3.625 32.454 27.244-2.746 14.923-9.735 29.196-30.86 53.536-3.508 4.041-8.322 1.107-5.58-3.182l3.006-4.701z" fill="#256035"/><path fill-rule="evenodd" clip-rule="evenodd" d="M59.91.126a42.373 42.373 0 00-6.894 1.154C41.364 4.214 28.277 13.04 14.883 26.353c-6.408 6.369-4.14 11.464 1.349 6.62l3.517-3.104c4.513-3.982 7.498-1.343 3.74 2.736l-9.82 10.654c-4.559 4.949-.201 8.444 4.04 3.798l10.578-11.589c4.403-4.824 7.618-1.06 3.943 3.943-3.21 4.368-.489 7.063 3.559 2.404 11.855-13.639 19.896-22.52 30.036-26.714 4.883-2.02 4.31 1.094 1.678 5.777C74.421 8.974 71.887 2.055 59.907.124l.004.002z" fill="#001C04" fill-opacity=".9"/><path fill-rule="evenodd" clip-rule="evenodd" d="M18.24 101.939l3.287-4.267c2.87-3.731 7.353-.06 4.484 3.67l-3.286 4.268c-2.87 3.729-7.355.06-4.484-3.669v-.002zm20.904-9.845l3.286-4.267c2.87-3.73 7.547.135 4.674 3.862l-3.286 4.269c-2.871 3.729-7.547-.133-4.676-3.864h.002zm-21.026-9.489l3.286-4.267c2.871-3.73 7.788.086 4.918 3.815l-3.287 4.266c-2.87 3.73-7.788-.085-4.917-3.814z" fill="#256035"/><path fill-rule="evenodd" clip-rule="evenodd" d="M1.124 60.779l3.286-4.267c2.87-3.731 7.353-.06 4.484 3.67l-3.286 4.266c-2.87 3.73-7.355.06-4.484-3.67zm20.901-9.845l3.286-4.267c2.871-3.73 7.547.133 4.676 3.862l-3.286 4.269c-2.87 3.729-7.547-.133-4.676-3.862v-.002zM1 41.446l3.286-4.267c2.87-3.731 7.788.087 4.917 3.814L5.917 45.26c-2.871 3.729-7.789-.085-4.918-3.814z" fill="#001C04" fill-opacity=".9"/><path fill-rule="evenodd" clip-rule="evenodd" d="M80.537 99.117c-2.199 4.579 3.076 7.415 6.228 3.094 10.22-14.01 41.415-82.285.856-79.606 23.616 5.024-16.217 52.091-23.653 62.769-4.443 6.376 1.119 10.73 5.635 5.026l2.924-3.696c5.35-6.762 7.084-3.719 3.243 1.62l-7.98 11.084c-5.108 7.096.972 12.112 6.006 3.82l7.534-12.407c3.035-5 4.862-3.478 2.481 1.48l-3.272 6.814-.002.002zm-20.771 19.8l3.286-4.267c2.871-3.731 7.547.135 4.676 3.862l-3.286 4.269c-2.87 3.729-7.547-.133-4.676-3.864z" fill="#430B08"/><path fill-rule="evenodd" clip-rule="evenodd" d="M55.343 101.8l3.286-4.266c2.871-3.732 7.548.132 4.677 3.861l-3.286 4.269c-2.871 3.729-7.548-.133-4.677-3.862v-.002zm19.972 10.754l2.474-3.211c2.161-2.807 5.678.101 3.517 2.905l-2.471 3.211c-2.161 2.806-5.679-.099-3.518-2.907l-.002.002z" fill="#430B08"/></svg>