<svg width="101" height="103" fill="none" xmlns="http://www.w3.org/2000/svg"><path d="M54.325 82.107s1.92-23.472 28.445-25.391c0 0-.262 13.612-5.41 20.767 0 0-7.242-.35-9.25-.088 0 0 1.92-4.711 6.37-8.638 0 0-7.94 4.363-10.644 9.598 0 0-2.967.873-9.511 3.752z" fill="#001C04" fill-opacity=".9"/><path d="M62.265 54.098s.465-12.157 15.24-13.205c0 0-.698 16.055-14.833 17.626 0 0-.063-1.38-.407-2.56 0 0 6.98-1.744 9.423-7.387 0 0-5.933 5.468-9.423 5.526zm1.789-15.749s.829-8.857 11.387-9.337c0 0-.902 12.114-10.733 12.288l-.058-1.686s4.014-.771 6.166-4.516c0 0-3.228 3.73-6.762 3.25zM16.456 56.716s10.82-1.134 20.941 7.765c0 0-.61 7.242 1.658 13.002 0 0-12.041-3.665-15.88-11.78 0 0 1.57 11.344 17.363 14.66 0 0 1.57 4.013 4.537 6.369 0 0-24.344 2.501-28.62-30.016h.001zm4.363-15.823s15.357 1.6 15.444 13.728c0 0-6.108-2.18-10.034-5.758 0 0 2.094 5.323 10.034 6.98v2.676s-13.35.93-15.444-17.626zm2.239-11.881s10.251-.366 10.703 9.264c0 0-4.828-1.76-6.05-3.585 0 0 .83 2.877 6.05 4.923v1.687s-10.296.61-10.703-12.289z" fill="#001C04" fill-opacity=".9"/><path d="M48.944 27.922a6.399 6.399 0 100-12.798 6.399 6.399 0 000 12.798z" fill="#256035"/><path d="M56.332 0s22.632 14.422-.99 45.722L51.039 41.3S69.768 20.592 56.332 0zM44.407 50.259l4.072 4.072s-11.053 15.706-1.28 31.877c0 0-16.404-13.38-2.793-35.949z" fill="#256035"/><path d="M34.285 15.59s5.37 21.225 20.59 32.477c3.14 2.321 12.912 13.224 1.747 21.344 0 0 7.854-9.617-6.769-20.025-1.013-.72-16.964-14.717-15.568-33.796z" fill="#001C04" fill-opacity=".9"/><path d="M56.55 64.264a.393.393 0 100-.786.393.393 0 000 .786zm.39-2.877a.567.567 0 10-1.12-.182.567.567 0 001.12.182zm-1.871-2.141a.85.85 0 100-1.701.85.85 0 000 1.701zm-1.862-2.439a.85.85 0 100-1.701.85.85 0 000 1.701zm-1.851-2.027a1.28 1.28 0 10-.98-2.365 1.28 1.28 0 00.98 2.364zm-4.51-5.136a1.28 1.28 0 10-1.81-1.81 1.28 1.28 0 001.81 1.81zm-2.615-2.049a1.28 1.28 0 10-.979-2.365 1.28 1.28 0 00.98 2.365zm-6.006-7.967a1.141 1.141 0 10-.874-2.11 1.141 1.141 0 00.874 2.11zm1.489 3.021a1.28 1.28 0 100-2.56 1.28 1.28 0 000 2.56zm1.992 2.775a1.28 1.28 0 100-2.56 1.28 1.28 0 000 2.56zm6.601 6.992a1.28 1.28 0 100-2.56 1.28 1.28 0 000 2.56zM36.263 36.569a1.047 1.047 0 100-2.094 1.047 1.047 0 000 2.094zm-.568-3.238a.96.96 0 10-1.357-1.357.96.96 0 001.357 1.357zm-.831-3.675a.815.815 0 10-1.608-.26.815.815 0 001.608.26zm-1.475-2.253a.614.614 0 100-1.227.614.614 0 000 1.227zm-.008-3.204a.303.303 0 11-.606 0 .303.303 0 01.606 0zM40.8 88.128s-10.034-.35-15.531-7.417c0 0-15.008-1.31-24.519 10.209 0 0 23.472 24.838 51.684 2.152 0 0 19.662-18.033 40.835-2.21 0 0-13.28 14.812-30.972 2.31 0 0 4.837-4.865 16.565-4.503 0 0-11.304-2.694-19.68 4.519 0 0 18.149 19.429 41.068-2.56 0 0-24.81-22.395-54.309-.116 0 0-20.381 15.939-38.763-.465 0 0 4.915-6.719 17.16-7.097 0 0 8.26 6.66 16.462 5.178z" fill="#256035"/></svg>