<svg width="109" height="109" fill="none" xmlns="http://www.w3.org/2000/svg"><g filter="url(#filter0_d_669_1591)"><ellipse cx="41.421" cy="41.441" rx="41.421" ry="41.441" transform="matrix(-1 0 0 1 95.842 13)" fill="#fff"/></g><path d="M67.394 44.413c-.415-2.394-2.595-3.788-4.945-2.981-2.22.762-5.472 2.104-10.043 4.47-4.485 2.32-7.701 4.314-9.917 5.839-2.463 1.695-2.463 4.855 0 6.55 2.216 1.525 5.432 3.518 9.917 5.84 4.57 2.365 7.823 3.707 10.043 4.47 2.35.806 4.53-.588 4.945-2.981.434-2.503.862-6.11.862-10.604 0-4.493-.428-8.1-.862-10.603z" fill="#256035"/><defs><filter id="filter0_d_669_1591" x=".73" y=".73" width="107.382" height="107.423" filterUnits="userSpaceOnUse" color-interpolation-filters="sRGB"><feFlood flood-opacity="0" result="BackgroundImageFix"/><feColorMatrix in="SourceAlpha" values="0 0 0 0 0 0 0 0 0 0 0 0 0 0 0 0 0 0 127 0" result="hardAlpha"/><feOffset/><feGaussianBlur stdDeviation="6.135"/><feComposite in2="hardAlpha" operator="out"/><feColorMatrix values="0 0 0 0 0 0 0 0 0 0 0 0 0 0 0 0 0 0 0.02 0"/><feBlend in2="BackgroundImageFix" result="effect1_dropShadow_669_1591"/><feBlend in="SourceGraphic" in2="effect1_dropShadow_669_1591" result="shape"/></filter></defs></svg>