<svg width="78" height="78" fill="none" xmlns="http://www.w3.org/2000/svg"><path d="M3.203 65.142c.766 5.2 5.22 8.962 10.457 9.404C21.826 75.236 30.307 76 39.006 76c8.825 0 17.37-.486 25.657-1.252 5.096-.47 9.282-4.27 10.042-9.33.803-5.343 1.307-10.84 1.307-16.486 0-5.704-.463-11.306-1.278-16.7-.75-4.962-4.869-8.654-9.865-9.124-8.37-.788-16.954-1.245-25.863-1.245-8.937 0-17.676.431-26.039 1.231-4.91.47-8.962 4.08-9.705 8.957A112.255 112.255 0 002 48.931c0 5.553.429 10.953 1.203 16.211z" stroke="#F0FFF5" stroke-width="2.802" stroke-linejoin="round"/><path d="M24.774 75.427V22.353m28.464 53.213V22.352m2.67-.092v-3.358a16.902 16.902 0 00-33.804 0v3.359" stroke="#F0FFF5" stroke-width="2.802" stroke-linecap="round" stroke-linejoin="round"/></svg>