<svg width="78" height="78" fill="none" xmlns="http://www.w3.org/2000/svg"><path d="M16.262 24.825c7.304 0 11.413-4.108 11.413-11.412C27.675 6.109 23.566 2 16.262 2S4.85 6.109 4.85 13.413s4.108 11.412 11.412 11.412zm45.653 0c7.303 0 11.412-4.108 11.412-11.412C73.327 6.109 69.218 2 61.915 2 54.61 2 50.502 6.109 50.502 13.413s4.108 11.412 11.413 11.412zM16.266 76.182C2 76.182 2 56.78 2 39.09c11.395-3.434 17.631-3.293 28.531 0 0 17.69 0 37.09-14.265 37.09zm45.649-39.945c-14.266 0-14.266 20.03-14.266 37.72 11.143 2.793 17.389 2.853 28.532 0 0-17.69 0-37.72-14.266-37.72z" stroke="#F0FFF5" stroke-width="3" stroke-linecap="round" stroke-linejoin="round"/></svg>