<svg width="67" height="81" fill="none" xmlns="http://www.w3.org/2000/svg"><path d="M4.687 66.495a18.915 18.915 0 01-2.424-1c2.957-3.988 3.874-9.246 3.955-14.786.072-4.918-.52-10.31-1.096-15.571-.153-1.395-.305-2.78-.443-4.145-.671-6.619-1.022-12.752.136-17.652.572-2.423 1.5-4.48 2.893-6.128 1.345-1.592 3.18-2.87 5.705-3.709h32.982A14.104 14.104 0 0044.61 5.2c-1.826 2.07-2.94 4.56-3.578 7.287-1.26 5.387-.705 11.928.087 18.506.15 1.251.31 2.506.469 3.76.691 5.443 1.38 10.868 1.334 15.939-.055 6.089-1.179 11.371-4.424 15.324-.15.06-.364.142-.648.24-.68.234-1.76.558-3.3.885-3.076.655-7.987 1.326-15.194 1.326-7.159 0-11.832-1.006-14.67-1.972zm34.072-.592c.002 0 .001 0 0 0h0z" stroke="#F0FFF5" stroke-width="3"/><path d="M63.525 29.699H42.626C38.634 7.016 48.715 1.834 54.605 2.004c12.233 1.903 11.242 19.256 8.92 27.695zM17.397 18.647h10.51m-9.151 17.338h10.509M18.756 53.323h10.509" stroke="#F0FFF5" stroke-width="3" stroke-linecap="round" stroke-linejoin="round"/><circle cx="44.025" cy="64.88" r="15.261" fill="#F0FFF5"/><path d="M42.655 65.703a.962.962 0 000-1.11l-2.838-4.02a.94.94 0 111.545-1.073l2.114 3.094a.962.962 0 001.59-.003l2.098-3.093a.93.93 0 111.53 1.06l-2.848 4.033a.962.962 0 00.002 1.113l3.06 4.299a.937.937 0 11-1.538 1.072l-2.308-3.383a.962.962 0 00-1.585-.005l-2.348 3.395a.932.932 0 11-1.526-1.068l3.052-4.31z" fill="#256035"/></svg>