<svg width="78" height="77" fill="none" xmlns="http://www.w3.org/2000/svg"><path d="M48.913 73.644c-9.109 2.485-19.168 1.474-27.991-3.62C3.38 59.896-2.63 37.467 7.498 19.925l3.233-5.6m19.197-11.53C38.951.42 48.878 1.468 57.596 6.502 75.137 16.629 81.147 39.059 71.02 56.6l-4.18 7.24" stroke="#F0FFF5" stroke-width="2.812" stroke-linecap="round" stroke-linejoin="round"/><path d="M75.725 64.342l-10.327 1.984-3.445-9.935M1.94 13.385l10.502-2.018 3.504 10.105" stroke="#F0FFF5" stroke-width="2.812" stroke-linecap="round" stroke-linejoin="round"/><path d="M39.257 54.875c-6.018-3.627-15.984-10.188-15.984-18.37a9.643 9.643 0 019.643-9.643c2.428 0 4.646.897 6.341 2.378a9.606 9.606 0 016.342-2.378c5.325 0 9.643 4.317 9.643 9.642 0 8.183-9.966 14.744-15.985 18.37z" stroke="#F0FFF5" stroke-width="3" stroke-linecap="round" stroke-linejoin="round"/></svg>