<svg width="80" height="82" fill="none" xmlns="http://www.w3.org/2000/svg"><path d="M77.94 49.198a11.643 11.643 0 00-11.647-11.633c-2.044 0-2.993.542-4.762 1.564l-1.058-13.557a5.822 5.822 0 00-5.822-5.822l-11.93-1.283c1.027-1.77 1.587-2.496 1.59-4.542a11.646 11.646 0 00-17.471-10.1 11.645 11.645 0 00-5.817 10.1c.003 2.046.527 2.772 1.554 4.542L8.074 19.75a5.822 5.822 0 00-5.822 5.822l.182 6.641c.08 2.925 2.949 5.002 5.793 5.69 2.06.498 3.985 1.539 5.507 3.061a11.644 11.644 0 010 16.467c-1.522 1.523-3.447 2.563-5.507 3.062-2.846.688-5.718 2.762-5.802 5.689l-.173 5.966c0 1.545.613 3.026 1.705 4.118 8.487 5.61 47.467 5.041 54.81 0a5.823 5.823 0 001.706-4.118l1.058-12.875c1.769 1.021 2.718 1.556 4.762 1.557a11.64 11.64 0 0010.082-5.814 11.643 11.643 0 001.564-5.818z" stroke="#F0FFF5" stroke-width="3" stroke-linecap="round" stroke-linejoin="round"/></svg>