<svg width="22" height="22" fill="none" xmlns="http://www.w3.org/2000/svg"><path d="M7.3 1.67C6.083.65 4.27.798 3.346 2.09c-.247.345-.54.756-1.044 1.388-1.737 2.173-1.737 5.319.01 7.484 1.289 1.599 2.64 3.211 4.152 4.723 1.511 1.511 3.124 2.863 4.722 4.152 2.166 1.747 5.312 1.747 7.485.01.674-.539 1.094-.832 1.451-1.087 1.248-.892 1.423-2.64.448-3.824-.77-.936-1.627-1.83-2.455-2.7-.659-.695-1.76-.74-2.507-.143-.202.16-.451.373-.958.847-2.485-1.477-3.992-3.001-5.442-5.442.48-.512.693-.763.855-.966.596-.747.552-1.845-.146-2.498-.852-.796-1.718-1.61-2.617-2.363z" stroke="#F0FFF5" stroke-opacity=".7" stroke-width="1.5" stroke-linejoin="round"/></svg>