<svg width="64" height="64" fill="none" xmlns="http://www.w3.org/2000/svg"><path d="M15.992 41.59c.338 2.294 2.302 3.953 4.612 4.148 3.601.304 7.341.641 11.178.641 3.892 0 7.66-.214 11.315-.552 2.247-.207 4.093-1.883 4.429-4.114.354-2.357.576-4.781.576-7.272a49.45 49.45 0 00-.563-7.365c-.331-2.188-2.148-3.816-4.351-4.023a121.318 121.318 0 00-11.406-.55c-3.942 0-7.796.191-11.484.544-2.165.207-3.952 1.8-4.28 3.95a49.506 49.506 0 00-.557 7.444c0 2.449.19 4.83.531 7.15zm9.513 4.537V22.72M38.06 46.188V22.72" stroke="#F0FFF5" stroke-width="2" stroke-linejoin="round"/><path d="M39.237 22.68v-1.482a7.454 7.454 0 10-14.908 0v1.481" stroke="#F0FFF5" stroke-width="2" stroke-linejoin="round"/></svg>