<svg width="20" height="25" fill="none" xmlns="http://www.w3.org/2000/svg"><path d="M4.865 4c-.65.081-1.294.165-1.929.243-.887.11-1.588.82-1.65 1.711a111.237 111.237 0 000 15.936 1.81 1.81 0 001.654 1.679c4.901.41 9.383.41 14.284 0a1.81 1.81 0 001.654-1.68 111.22 111.22 0 000-15.935c-.062-.89-.763-1.602-1.65-1.71-.635-.079-1.279-.163-1.929-.244" stroke="#001C04" stroke-width="1.5" stroke-linejoin="round"/><path d="M12.569.997H7.593a2.747 2.747 0 00-2.747 2.747v.001a2.747 2.747 0 002.747 2.748h4.976a2.747 2.747 0 002.747-2.748v-.001A2.747 2.747 0 0012.57.997z" stroke="#001C04" stroke-width="1.5" stroke-linejoin="round"/></svg>