<svg width="64" height="65" fill="none" xmlns="http://www.w3.org/2000/svg"><path d="M16.645 23.038c-.188 2.548-.324 5.645-.324 8.123 0 3.416.397 7.663.729 10.612.255 2.268 1.519 4.307 3.603 5.24 2.562 1.146 6.484 2.457 11.03 2.457 4.546 0 8.47-1.31 11.031-2.457 2.084-.933 3.348-2.972 3.603-5.24.332-2.949.73-7.196.73-10.612 0-2.634-.155-5.227-.361-7.769" stroke="#F0FFF5" stroke-width="2" stroke-linejoin="round"/><path d="M31.683 29.355c9.634 0 15.053-2.4 15.053-6.665 0-4.265-5.42-6.664-15.053-6.664-9.635 0-15.054 2.399-15.054 6.664s5.42 6.665 15.053 6.665zm-15.235 6.087c9.555 4.858 20.928 4.88 30.472 0" stroke="#F0FFF5" stroke-width="2" stroke-linejoin="round"/></svg>