<svg width="26" height="28" fill="none" xmlns="http://www.w3.org/2000/svg"><path d="M1.708 6.779a89.31 89.31 0 00-.244 6.1c0 2.565.299 5.754.548 7.969.191 1.703 1.14 3.234 2.705 3.934 1.924.861 4.87 1.846 8.283 1.846 3.414 0 6.36-.985 8.283-1.846 1.565-.7 2.514-2.231 2.706-3.934.249-2.215.547-5.404.547-7.97 0-1.977-.115-3.924-.27-5.833" stroke="#001C04" stroke-width="1.502" stroke-linejoin="round"/><path d="M13 11.523c7.234 0 11.304-1.802 11.304-5.005S20.234 1.514 13 1.514c-7.235 0-11.304 1.801-11.304 5.004 0 3.203 4.069 5.005 11.303 5.005zM1.56 16.094c7.174 3.648 15.715 3.665 22.881 0" stroke="#001C04" stroke-width="1.502" stroke-linejoin="round"/></svg>