<svg width="64" height="64" fill="none" xmlns="http://www.w3.org/2000/svg"><path d="M48.162 35.433a5.168 5.168 0 00-5.17-5.164c-.907 0-1.328.24-2.114.694l-.47-6.018a2.584 2.584 0 00-2.584-2.585l-5.295-.569c.455-.785.704-1.108.705-2.016a5.169 5.169 0 10-10.337 0c.001.908.234 1.23.69 2.016l-6.438.57a2.584 2.584 0 00-2.585 2.584l.08 2.948c.036 1.299 1.31 2.22 2.572 2.526a5.178 5.178 0 012.445 1.359 5.17 5.17 0 010 7.31 5.179 5.179 0 01-2.445 1.359c-1.263.305-2.538 1.226-2.575 2.525l-.077 2.649c0 .685.272 1.343.757 1.827 3.767 2.49 21.07 2.238 24.33 0a2.584 2.584 0 00.758-1.827l.47-5.716c.785.453 1.206.69 2.113.691a5.166 5.166 0 005.17-5.163z" stroke="#F0FFF5" stroke-width="2" stroke-linecap="round" stroke-linejoin="round"/></svg>