<svg width="27" height="27" fill="none" xmlns="http://www.w3.org/2000/svg"><path d="M1.643 21.728c.254 1.723 1.728 2.968 3.463 3.115 2.704.228 5.513.481 8.394.481 2.922 0 5.752-.16 8.497-.414 1.687-.156 3.073-1.414 3.325-3.09.266-1.77.433-3.59.433-5.46 0-1.889-.153-3.744-.423-5.53-.249-1.644-1.613-2.866-3.267-3.022a91.089 91.089 0 00-8.565-.412c-2.96 0-5.854.143-8.623.408-1.626.155-2.968 1.35-3.215 2.966a37.175 37.175 0 00-.417 5.59c0 1.839.142 3.627.398 5.368zm7.144 3.406V7.558m9.427 17.622V7.558" stroke="#001C04" stroke-width="1.502" stroke-linejoin="round"/><path d="M19.098 7.527V6.415a5.597 5.597 0 00-11.195 0v1.112" stroke="#001C04" stroke-width="1.502" stroke-linejoin="round"/></svg>