<svg width="26" height="28" fill="none" xmlns="http://www.w3.org/2000/svg"><path d="M25.148 16.618a3.737 3.737 0 00-3.739-3.734c-.656 0-.96.174-1.528.502l-.34-4.352a1.869 1.869 0 00-1.869-1.87l-3.83-.41c.33-.569.51-.802.511-1.459a3.738 3.738 0 10-7.476 0c.001.657.17.89.5 1.458l-4.656.412A1.869 1.869 0 00.852 9.034l.058 2.132c.026.939.947 1.605 1.86 1.826a3.74 3.74 0 011.768.983 3.738 3.738 0 010 5.286 3.744 3.744 0 01-1.768.983c-.913.22-1.835.886-1.863 1.826l-.055 1.915c0 .496.197.971.547 1.322 2.725 1.8 15.237 1.618 17.595 0 .35-.35.547-.826.547-1.322l.34-4.133c.568.328.872.5 1.528.5a3.736 3.736 0 003.739-3.734z" stroke="#001C04" stroke-width="1.5" stroke-linecap="round" stroke-linejoin="round"/></svg>