<svg width="64" height="65" fill="none" xmlns="http://www.w3.org/2000/svg"><path d="M23.274 19.172c-1.026.127-2.04.26-3.041.383-1.399.172-2.504 1.293-2.603 2.698-.6 8.533-.6 16.594 0 25.127a2.855 2.855 0 002.608 2.648c7.729.647 14.795.647 22.524 0a2.855 2.855 0 002.608-2.648c.6-8.533.6-16.594 0-25.127-.099-1.405-1.204-2.526-2.602-2.698-1.002-.123-2.016-.256-3.042-.383" stroke="#F0FFF5" stroke-width="2" stroke-linejoin="round"/><path d="M35.422 14.436h-7.846a4.332 4.332 0 00-4.332 4.332v.003a4.332 4.332 0 004.332 4.331h7.846a4.332 4.332 0 004.331-4.331v-.003a4.332 4.332 0 00-4.331-4.332z" stroke="#F0FFF5" stroke-width="2" stroke-linejoin="round"/></svg>