<svg width="17" height="17" fill="none" xmlns="http://www.w3.org/2000/svg"><path d="M5.273.561c-1.018-.853-2.537-.73-3.31.35-.206.29-.45.634-.874 1.163-1.453 1.819-1.453 4.452.008 6.264 1.08 1.338 2.211 2.688 3.476 3.953 1.265 1.265 2.615 2.396 3.953 3.476 1.812 1.462 4.446 1.462 6.264.008.564-.451.916-.697 1.215-.91 1.045-.746 1.191-2.21.375-3.201-.644-.783-1.362-1.53-2.055-2.26-.551-.581-1.472-.62-2.098-.12-.169.135-.378.313-.802.71-2.08-1.236-3.341-2.512-4.555-4.555.403-.429.58-.639.716-.809.499-.625.462-1.544-.123-2.09-.712-.667-1.437-1.348-2.19-1.979z" fill="#256035"/></svg>