<svg width="581" height="159" fill="none" xmlns="http://www.w3.org/2000/svg"><g opacity=".1" filter="url(#filter0_d_101_1114)" fill="#fff"><path d="M23.661 151.833c12.397 0 19.564-9.007 19.564-21.404 0-12.591-7.167-21.405-19.564-21.405C11.167 109.024 4 117.838 4 130.429c0 12.397 7.167 21.404 19.661 21.404zm33.225-2.615h36.803V67.571h15.013c9.588 0 19.951 8.136 19.951 25.279v56.368h36.707V90.719c0-36.707-19.176-58.596-53.85-58.596H56.885v117.095zm121.553 0h37.773V32.123h-37.773v117.095zm51.336 0h36.126l10.073-57.821c2.906-16.562 6.489-24.213 15.69-27.022 9.589-2.906 24.794 2.906 25.763 24.116 1.065 22.567-13.85 29.444-25.472 27.603l-3.003-.484-.097 33.899c16.562 3.196 35.255-.775 46.78-10.654 12.01-10.363 19.661-27.894 18.887-50.945-1.356-42.421-27.603-61.114-55.4-57.82-17.337 2.033-25.085 10.653-29.734 18.401-6.102-12.3-17.821-17.336-30.605-16.852l-12.01.484v35.739l4.068-.097c9.491-.194 13.753 4.746 11.816 14.334l-1.163 5.811-11.719 61.308zm135.985 0h103.923v-3.777L443.824 103.6l27.893-70.218-.29-1.259h-34.674l-13.946 38.45-24.02-38.45h-42.615l-.291 1.453 53.366 80.969H365.76v34.673zm140.634 0h37.773L577 44.423v-12.3h-61.986V.26h-36.61v67.506h53.56l-25.57 81.453z"/></g><defs><filter id="filter0_d_101_1114" x=".783" y=".259" width="579.434" height="158.008" filterUnits="userSpaceOnUse" color-interpolation-filters="sRGB"><feFlood flood-opacity="0" result="BackgroundImageFix"/><feColorMatrix in="SourceAlpha" values="0 0 0 0 0 0 0 0 0 0 0 0 0 0 0 0 0 0 127 0" result="hardAlpha"/><feOffset dy="3.217"/><feGaussianBlur stdDeviation="1.608"/><feComposite in2="hardAlpha" operator="out"/><feColorMatrix values="0 0 0 0 0 0 0 0 0 0 0 0 0 0 0 0 0 0 0.25 0"/><feBlend in2="BackgroundImageFix" result="effect1_dropShadow_101_1114"/><feBlend in="SourceGraphic" in2="effect1_dropShadow_101_1114" result="shape"/></filter></defs></svg>