<svg width="22" height="20" fill="none" xmlns="http://www.w3.org/2000/svg"><path d="M6.122 13.948a10.54 10.54 0 01-3.743 1.869.777.777 0 00-.512.726.77.77 0 00.512.726c10.748 4.387 17.582-2.394 16.541-9.917l2.147-2.879-3.312-.751c-.43-1.602-1.746-2.536-3.221-2.804-1.475-.267-3.458 0-4.634 1.772-.717 1.08-.942 2.635-.237 4.662 0 0-2.687.68-7.253-3.785a.778.778 0 00-1.32.494 8.485 8.485 0 00.68 5.867 8.556 8.556 0 004.352 4.02z" stroke="#256035" stroke-width="1.5" stroke-linecap="round" stroke-linejoin="round"/></svg>