<svg width="35" height="36" viewBox="0 0 35 36" fill="none" xmlns="http://www.w3.org/2000/svg">
<path fill-rule="evenodd" clip-rule="evenodd" d="M21.1107 19.9902C20.4663 20.2535 20.0547 21.2623 19.6371 21.7776C19.423 22.0416 19.1677 22.0828 18.8385 21.9505C16.4201 20.987 14.5662 19.3731 13.2316 17.1475C13.0055 16.8024 13.0461 16.5298 13.3187 16.2093C13.7217 15.7345 14.2284 15.1952 14.3374 14.5555C14.5795 13.1405 12.7296 8.75114 10.2865 10.74C3.25663 16.4686 22.0137 31.6622 25.399 23.4447C26.3565 21.1153 22.1786 19.5527 21.1107 19.9902ZM17.0465 32.0492C14.5602 32.0492 12.1138 31.3882 9.97201 30.1368C9.62823 29.9353 9.21264 29.8821 8.82829 29.9865L4.17427 31.2639L5.79543 27.6924C6.01619 27.2063 5.95967 26.6404 5.64781 26.2082C3.91361 23.8044 2.99663 20.9664 2.99663 18C2.99663 10.2526 9.29908 3.95016 17.0465 3.95016C24.7939 3.95016 31.0957 10.2526 31.0957 18C31.0957 25.7467 24.7932 32.0492 17.0465 32.0492ZM17.0465 0.97714C7.65996 0.97714 0.0236155 8.61349 0.0236155 18C0.0236155 21.3022 0.961203 24.4733 2.74262 27.2256L0.156607 32.9209C-0.0821125 33.4469 0.00499677 34.0627 0.378702 34.5009C0.665963 34.8367 1.08156 35.0229 1.51046 35.0229C2.46932 35.0229 7.69787 33.3798 9.02844 33.0147C11.4881 34.3306 14.247 35.0229 17.0465 35.0229C26.4323 35.0229 34.0693 27.3858 34.0693 18C34.0693 8.61349 26.4323 0.97714 17.0465 0.97714Z" fill="#39AE41"/>
</svg>
