<svg width="22" height="22" fill="none" xmlns="http://www.w3.org/2000/svg"><path d="M11.456.842C5.661.843.963 5.542.965 11.338c0 2.007.576 3.971 1.659 5.66L.991 21.236a.437.437 0 00.556.57l4.372-1.562c4.92 3.064 11.391 1.56 14.455-3.36s1.56-11.391-3.36-14.455A10.493 10.493 0 0011.456.842z" fill="#256035"/><path d="M16.46 13.128s-1.072-.524-1.743-.874c-.759-.391-1.65.34-2.07.757a5.262 5.262 0 01-1.755-1.114 5.258 5.258 0 01-1.115-1.755c.417-.42 1.147-1.312.758-2.07-.346-.672-.875-1.743-.875-1.744a.437.437 0 00-.39-.24h-.874A2.635 2.635 0 006.21 8.71c0 1.373 1.643 4.01 2.75 5.12 1.109 1.108 3.746 2.75 5.12 2.75a2.635 2.635 0 002.623-2.185v-.875a.438.438 0 00-.244-.393z" fill="#F0FFF5"/></svg>