<svg width="21" height="23" fill="none" xmlns="http://www.w3.org/2000/svg"><path d="M12.16 20.206a2.298 2.298 0 002.093 1.346c1.269 0 2.424-.989 2.282-2.564a10.66 10.66 0 01-4.374 1.218zm6.068-17.434A9.423 9.423 0 0011.518 0a9.42 9.42 0 00-6.704 2.777A9.42 9.42 0 002.037 9.48l-.003 1.488c-.001.8-.63 1.445-1.43 1.466L0 12.451v.604c0 1.249.827 2.712 2.158 3.82.382.317.864.654 1.457.964a3.566 3.566 0 013.267-2.146 3.565 3.565 0 013.548 3.27h1.089a9.42 9.42 0 006.704-2.777A9.42 9.42 0 0021 9.48c0-2.54-.984-4.922-2.772-6.71zm-3.045 3.83h1.263v2.112h-1.263V6.603zm-6.364 0h1.263v2.112H8.819V6.603zm3.813 7.3a4.354 4.354 0 01-4.061-2.82l1.183-.441a3.086 3.086 0 002.879 1.998 3.086 3.086 0 002.878-1.998l1.183.441a4.355 4.355 0 01-4.061 2.82z" fill="#256035"/><path d="M7.418 21.491a2.298 2.298 0 10-1.08-4.468 2.298 2.298 0 001.08 4.468z" fill="#256035"/></svg>