<svg width="25" height="21" fill="none" xmlns="http://www.w3.org/2000/svg"><path d="M1.11 14.775c.318 2.714 2.576 4.853 5.297 5.1 1.884.171 3.817.315 5.787.315 1.97 0 3.902-.144 5.787-.315 2.721-.247 4.978-2.386 5.296-5.1.15-1.29.263-2.605.263-3.94 0-1.336-.112-2.652-.263-3.941-.318-2.714-2.575-4.853-5.296-5.1-1.885-.172-3.818-.315-5.787-.315-1.97 0-3.903.143-5.787.315-2.721.247-4.979 2.386-5.296 5.1-.151 1.29-.263 2.605-.263 3.94 0 1.336.112 2.652.263 3.941z" stroke="#256035" stroke-width="1.5"/><path d="M11.784 15.108c2.315-1.24 5.317-3.078 5.317-4.273 0-1.195-3.002-3.034-5.317-4.274-1.215-.65-2.634.25-2.634 1.628v5.291c0 1.378 1.42 2.279 2.634 1.628z" stroke="#256035" stroke-width="1.5"/></svg>