<svg width="25" height="25" viewBox="0 0 25 25" fill="none" xmlns="http://www.w3.org/2000/svg">
<path d="M22.9269 23.001H14.3555" stroke="#001C04" stroke-opacity="0.6" stroke-width="1.5" stroke-linecap="round" stroke-linejoin="round"/>
<path d="M14.3555 14.4297H22.9269" stroke="#001C04" stroke-opacity="0.6" stroke-width="1.5" stroke-linecap="round" stroke-linejoin="round"/>
<path d="M14.3555 18.7148H22.9269" stroke="#001C04" stroke-opacity="0.6" stroke-width="1.5" stroke-linecap="round" stroke-linejoin="round"/>
<path d="M23.2209 7.88075C23.7667 8.94532 22.9375 10.1437 21.7411 10.1437H15.4841C14.3038 10.1437 13.4739 8.9739 13.9955 7.91509C15.1178 5.6368 16.5559 3.97136 18.6414 1.57227C20.6425 3.96375 22.0634 5.62324 23.2209 7.88075Z" stroke="#001C04" stroke-opacity="0.6" stroke-width="1.5" stroke-linecap="round" stroke-linejoin="round"/>
<path d="M6.21253 23.427C8.81517 23.427 10.925 21.3172 10.925 18.7144C10.925 16.1118 8.81517 14.002 6.21253 14.002C3.60986 14.002 1.5 16.1118 1.5 18.7144C1.5 21.3172 3.60986 23.427 6.21253 23.427Z" stroke="#001C04" stroke-opacity="0.6" stroke-width="1.5" stroke-linecap="round" stroke-linejoin="round"/>
<path d="M2.10168 8.38345C2.1929 9.20634 2.85172 9.86492 3.67423 9.95951C4.49681 10.0541 5.34525 10.1437 6.21247 10.1437C7.07969 10.1437 7.92813 10.0541 8.75071 9.95951C9.57323 9.86492 10.232 9.20634 10.3233 8.38345C10.414 7.56494 10.4982 6.72078 10.4982 5.85798C10.4982 4.99516 10.414 4.15101 10.3233 3.33251C10.232 2.50962 9.57323 1.85105 8.75071 1.75645C7.92813 1.66185 7.07969 1.57227 6.21247 1.57227C5.34525 1.57227 4.49681 1.66185 3.67423 1.75645C2.85172 1.85105 2.1929 2.50962 2.10168 3.33251C2.01094 4.15101 1.92676 4.99516 1.92676 5.85798C1.92676 6.72078 2.01094 7.56494 2.10168 8.38345Z" stroke="#001C04" stroke-opacity="0.6" stroke-width="1.5"/>
</svg>
