<svg width="105" height="68" viewBox="0 0 105 68" fill="none" xmlns="http://www.w3.org/2000/svg">
<path d="M40.5799 25.153H63.2156V12.5869C63.2156 4.99315 59.1794 0 51.2528 0H40.5799V25.153ZM47.2999 18.4539V6.69915H51.2736C54.1447 6.69915 56.558 8.52997 56.558 12.8366V18.4539H47.2999Z" fill="#F0FFF5"/>
<path d="M66.3063 25.153H73.1927V0H66.3063V25.153Z" fill="#F0FFF5"/>
<path d="M76.3251 15.0003H83.1907V0H76.3251V15.0003Z" fill="#F0FFF5"/>
<path d="M0 67.7612H6.78237V49.2658H30.1717C32.8347 49.2658 35.3521 51.3046 35.3521 55.6112V67.7612H42.1137V55.1951C42.1137 47.6014 37.7447 42.6082 30.1509 42.6082H0V67.7612Z" fill="#F0FFF5"/>
<path d="M45.2044 67.7612H52.0908V42.6082H45.2044V67.7612Z" fill="#F0FFF5"/>
<path d="M54.5574 67.9485H56.4507C59.1345 67.9485 61.5895 67.2203 63.1498 65.5767C64.8558 63.7875 65.3551 61.0621 65.2927 57.3796L65.1471 49.2866L68.3926 49.245C70.91 49.2034 73.4274 50.7429 73.4274 55.5488V67.7612H80.1889V55.1951C80.1889 47.3517 76.2569 42.525 68.6007 42.5666L55.1608 42.629L55.2024 49.3906L58.5728 49.349L58.6768 57.4837C58.6976 59.1897 58.4479 60.2507 57.8862 60.854C57.2413 61.5198 56.1802 61.603 54.5574 61.4158V67.9485Z" fill="#F0FFF5"/>
<path d="M85.2146 67.7612H91.7265C99.6323 67.7612 104.979 62.7889 105 54.5918C105.021 46.1867 99.4867 41.3391 92.4962 41.9009C86.0676 42.421 82.1146 46.8316 82.2603 52.1784C82.3643 56.277 85.277 58.8568 87.6695 59.3561L91.0815 53.8428C90.0621 53.614 89.1675 52.8026 89.0218 51.908C88.8138 50.6597 89.1883 49.0785 91.248 48.5168C94.764 47.5598 98.5296 49.9731 98.3424 54.8415C98.176 59.3561 95.0552 61.2909 90.6446 61.2909H85.2146V67.7612Z" fill="#F0FFF5"/>
</svg>
