<svg width="110" height="108" viewBox="0 0 110 108" fill="none" xmlns="http://www.w3.org/2000/svg">
<path d="M43.1539 25.653H65.7895V13.0869C65.7895 5.49315 61.7534 0.5 53.8268 0.5H43.1539V25.653ZM49.8738 18.9539V7.19915H53.8476C56.7186 7.19915 59.132 9.02997 59.132 13.3366V18.9539H49.8738Z" fill="#F0FFF5"/>
<path d="M68.8803 25.653H75.7667V0.5H68.8803V25.653Z" fill="#F0FFF5"/>
<path d="M78.899 15.5003H85.7646V0.5H78.899V15.5003Z" fill="#F0FFF5"/>
<path d="M2.57394 68.2612H9.35631V49.7658H32.7457C35.4087 49.7658 37.9261 51.8046 37.9261 56.1112V68.2612H44.6876V55.6951C44.6876 48.1014 40.3186 43.1082 32.7249 43.1082H2.57394V68.2612Z" fill="#F0FFF5"/>
<path d="M47.7784 68.2612H54.6648V43.1082H47.7784V68.2612Z" fill="#F0FFF5"/>
<path d="M57.1314 68.4485H59.0246C61.7084 68.4485 64.1634 67.7203 65.7238 66.0767C67.4298 64.2875 67.9291 61.5621 67.8667 57.8796L67.721 49.7866L70.9666 49.745C73.484 49.7034 76.0013 51.2429 76.0013 56.0488V68.2612H82.7629V55.6951C82.7629 47.8517 78.8308 43.025 71.1746 43.0666L57.7347 43.129L57.7763 49.8906L61.1467 49.849L61.2507 57.9837C61.2715 59.6897 61.0219 60.7507 60.4602 61.354C59.8152 62.0198 58.7542 62.103 57.1314 61.9158V68.4485Z" fill="#F0FFF5"/>
<path d="M87.7885 68.2612H94.3004C102.206 68.2612 107.553 63.2889 107.574 55.0918C107.595 46.6867 102.061 41.8391 95.0702 42.4009C88.6415 42.921 84.6886 47.3316 84.8342 52.6784C84.9383 56.777 87.8509 59.3568 90.2435 59.8561L93.6555 54.3428C92.636 54.114 91.7414 53.3026 91.5958 52.408C91.3877 51.1597 91.7622 49.5785 93.8219 49.0168C97.3379 48.0598 101.104 50.4731 100.916 55.3415C100.75 59.8561 97.6292 61.7909 93.2186 61.7909H87.7885V68.2612Z" fill="#F0FFF5"/>
<circle cx="12" cy="96.5" r="5" fill="#FF0E00"/>
<circle cx="12" cy="96.6533" r="10.0379" stroke="#F0FFF5" stroke-width="2.23065"/>
<path d="M28.1533 107.334V87.6573H33.6628L34.1351 90.0186H34.2925C35.0796 89.2577 35.9716 88.6018 36.9685 88.0509C37.9918 87.4737 39.1724 87.1851 40.5104 87.1851C42.688 87.1851 44.249 87.9197 45.1935 89.3889C46.1643 90.8319 46.6496 92.7733 46.6496 95.2133V107.334H39.8807V96.0791C39.8807 94.8197 39.7233 93.9802 39.4085 93.5604C39.0937 93.1406 38.5952 92.9307 37.913 92.9307C37.2834 92.9307 36.7587 93.0619 36.3389 93.3243C35.9191 93.5866 35.4469 93.9539 34.9221 94.4262V107.334H28.1533Z" fill="#F0FFF5"/>
<path d="M55.9384 107.807C54.4167 107.807 53.2098 107.505 52.3178 106.901C51.452 106.272 50.8224 105.406 50.4288 104.304C50.0615 103.176 49.8779 101.877 49.8779 100.408V79.9439H56.6468V100.644C56.6468 101.3 56.7648 101.759 57.0009 102.022C57.2633 102.258 57.5125 102.376 57.7487 102.376C57.8799 102.376 57.9848 102.376 58.0635 102.376C58.1684 102.349 58.2996 102.323 58.457 102.297L59.2441 107.256C58.9031 107.413 58.457 107.544 57.9061 107.649C57.3551 107.754 56.6992 107.807 55.9384 107.807Z" fill="#F0FFF5"/>
<path d="M60.4189 107.334V87.6573H67.1878V107.334H60.4189ZM63.8033 85.2174C62.7539 85.2174 61.8881 84.9025 61.206 84.2729C60.5238 83.617 60.1828 82.8037 60.1828 81.8329C60.1828 80.836 60.5238 80.0226 61.206 79.393C61.8881 78.7633 62.7539 78.4485 63.8033 78.4485C64.879 78.4485 65.7448 78.7633 66.4007 79.393C67.0828 80.0226 67.4239 80.836 67.4239 81.8329C67.4239 82.8037 67.0828 83.617 66.4007 84.2729C65.7448 84.9025 64.879 85.2174 63.8033 85.2174Z" fill="#F0FFF5"/>
<path d="M70.5756 107.334V87.6573H76.0852L76.5574 90.0186H76.7148C77.5019 89.2577 78.3939 88.6018 79.3909 88.0509C80.4141 87.4737 81.5947 87.1851 82.9328 87.1851C85.1103 87.1851 86.6714 87.9197 87.6159 89.3889C88.5866 90.8319 89.072 92.7733 89.072 95.2133V107.334H82.3031V96.0791C82.3031 94.8197 82.1457 93.9802 81.8308 93.5604C81.516 93.1406 81.0175 92.9307 80.3354 92.9307C79.7057 92.9307 79.181 93.0619 78.7612 93.3243C78.3414 93.5866 77.8692 93.9539 77.3445 94.4262V107.334H70.5756Z" fill="#F0FFF5"/>
<path d="M101.43 107.807C99.5151 107.807 97.7835 107.4 96.2356 106.587C94.7139 105.773 93.5071 104.606 92.6151 103.084C91.723 101.536 91.277 99.6734 91.277 97.4958C91.277 95.3707 91.723 93.5473 92.6151 92.0256C93.5333 90.4777 94.7139 89.2839 96.1569 88.4444C97.5999 87.6048 99.1216 87.1851 100.722 87.1851C102.663 87.1851 104.264 87.618 105.523 88.4837C106.809 89.3233 107.753 90.4646 108.357 91.9075C108.986 93.3505 109.301 94.9509 109.301 96.7087C109.301 97.2859 109.262 97.85 109.183 98.4009C109.131 98.9257 109.078 99.3061 109.026 99.5422H96.6292L96.5505 95.1346H103.555C103.555 94.3737 103.359 93.7178 102.965 93.1669C102.598 92.5897 101.903 92.3011 100.879 92.3011C100.302 92.3011 99.7512 92.4585 99.2265 92.7733C98.7018 93.0882 98.2689 93.626 97.9278 94.3868C97.5868 95.1477 97.4162 96.184 97.4162 97.4958C97.4162 98.8863 97.6655 99.962 98.164 100.723C98.6624 101.457 99.2921 101.969 100.053 102.258C100.814 102.546 101.588 102.691 102.375 102.691C103.057 102.691 103.713 102.599 104.343 102.415C104.998 102.205 105.681 101.903 106.389 101.51L108.593 105.524C107.543 106.259 106.363 106.823 105.051 107.216C103.739 107.61 102.532 107.807 101.43 107.807Z" fill="#F0FFF5"/>
</svg>
