<svg width="107" height="72" viewBox="0 0 107 72" fill="none" xmlns="http://www.w3.org/2000/svg">
<path d="M33.1934 24.5H54.4434V12.7031C54.4434 5.57422 50.6544 0.886719 43.213 0.886719H33.1934V24.5ZM39.502 18.2109V7.17578H43.2325C45.9278 7.17578 48.1934 8.89453 48.1934 12.9375V18.2109H39.502Z" fill="#F0FFF5"/>
<path d="M57.345 24.5H63.8098V0.886719H57.345V24.5Z" fill="#F0FFF5"/>
<path d="M66.7505 14.9688H73.1958V0.886719H66.7505V14.9688Z" fill="#F0FFF5"/>
<path d="M0.0660934 71.5117H6.43328V40.8867H0.0660934V71.5117Z" fill="#F0FFF5"/>
<path d="M9.68641 64.5H16.1512V40.8867H9.68641V64.5Z" fill="#F0FFF5"/>
<path d="M31.2794 64.5H37.588V52.7031C37.588 45.5742 33.7989 40.8867 26.5137 40.8867H18.8184V47.1758H26.3184C28.877 47.1758 31.2794 49.3047 31.2794 53.0938V64.5Z" fill="#F0FFF5"/>
<path d="M39.8841 64.5H47.5989C53.7708 64.5 58.6341 60.125 58.6341 52.7031C58.6341 44.9883 53.8489 40.8867 47.5989 40.8867H39.8841V47.1758H47.1692C50.0598 47.1758 52.345 49.6367 52.345 52.7617C52.345 55.8086 50.3723 58.2109 47.2473 58.2109H39.8841V64.5Z" fill="#F0FFF5"/>
<path d="M60.6372 54.9688H67.0825V40.8867H60.6372V54.9688Z" fill="#F0FFF5"/>
<path d="M74.5739 64.5H81.1169L78.3239 47.0977H83.363L83.3434 40.8867H69.1052V47.0977H72.2887L74.5739 64.5Z" fill="#F0FFF5"/>
<path d="M100.229 64.5H106.538V52.7031C106.538 45.5742 102.573 40.8867 95.327 40.8867H86.0106V47.1758H95.2294C97.7684 47.1758 100.229 48.7578 100.229 53.0547V64.5ZM86.0106 64.5H92.3778V52.5078H86.0106V64.5Z" fill="#F0FFF5"/>
<path d="M9 32.1036L13 25L17 32.1036H9Z" fill="#F0FFF5"/>
<path d="M13 34.4715L17 27.3679H9L13 34.4715Z" fill="#F0FFF5"/>
</svg>
