<svg width="21" height="21" viewBox="0 0 21 21" fill="none" xmlns="http://www.w3.org/2000/svg">
<path d="M6.8363 1V4.83987" stroke="#F0FFF5" stroke-width="1.5" stroke-linecap="round" stroke-linejoin="round"/>
<path d="M13.6208 1V4.83987" stroke="#F0FFF5" stroke-width="1.5" stroke-linecap="round" stroke-linejoin="round"/>
<path d="M1.2991 15.7822C1.54309 17.9587 3.31232 19.6871 5.50012 19.7925C7.01229 19.8652 8.55704 19.903 10.2336 19.903C11.9101 19.903 13.4548 19.8652 14.967 19.7925C17.1548 19.6871 18.9241 17.9587 19.168 15.7822C19.3324 14.3162 19.4672 12.8134 19.4672 11.2825C19.4672 9.75157 19.3324 8.24873 19.168 6.78287C18.9241 4.60618 17.1548 2.8779 14.967 2.77255C13.4549 2.69972 11.9101 2.66187 10.2336 2.66187C8.55704 2.66187 7.01229 2.69972 5.50012 2.77255C3.31232 2.8779 1.54309 4.60618 1.2991 6.78287C1.1348 8.24873 1 9.75157 1 11.2825C1 12.8134 1.1348 14.3162 1.2991 15.7822Z" stroke="#F0FFF5" stroke-width="1.5" stroke-linecap="round" stroke-linejoin="round"/>
<path d="M5.69678 9.01404H6.4529" stroke="#F0FFF5" stroke-width="1.5" stroke-linecap="round" stroke-linejoin="round"/>
<path d="M5.69678 13.5508H6.4529" stroke="#F0FFF5" stroke-width="1.5" stroke-linecap="round" stroke-linejoin="round"/>
<path d="M9.85547 9.01404H10.6116" stroke="#F0FFF5" stroke-width="1.5" stroke-linecap="round" stroke-linejoin="round"/>
<path d="M14.0142 9.01404H14.7703" stroke="#F0FFF5" stroke-width="1.5" stroke-linecap="round" stroke-linejoin="round"/>
<path d="M9.85547 13.5508H10.6116" stroke="#F0FFF5" stroke-width="1.5" stroke-linecap="round" stroke-linejoin="round"/>
</svg>
