<svg width="56" height="59" viewBox="0 0 56 59" fill="none" xmlns="http://www.w3.org/2000/svg">
<path d="M11.8408 35.6322C18.0699 35.6322 23.1196 40.6819 23.1196 46.9109C23.1196 53.14 18.0699 58.1896 11.8408 58.1896C5.61179 58.1896 0.562134 53.14 0.562134 46.9109C0.562134 40.6819 5.61179 35.6322 11.8408 35.6322Z" fill="#256035"/>
<path d="M41.1554 35.6321C45.4633 35.6321 48.9556 39.1243 48.9556 43.4322C48.9556 47.7401 45.4633 51.2323 41.1554 51.2323C36.8476 51.2323 33.3553 47.7401 33.3553 43.4322C33.3553 39.1243 36.8476 35.6321 41.1554 35.6321Z" fill="#256035"/>
<path d="M14.2935 1.61213C12.0654 1.80492 10.2452 3.52234 9.91657 5.73477C9.49825 8.55072 9.07788 11.4663 9.07788 14.4518C9.07788 17.4373 9.49825 20.3526 9.91657 23.1688C10.2452 25.381 12.0654 27.0984 14.2935 27.2913C14.6733 27.3242 15.0545 27.3576 15.437 27.3911C19.2049 27.721 23.1066 28.0625 27.1031 28.0625C31.0997 28.0625 35.0015 27.721 38.7693 27.3911C39.1518 27.3576 39.533 27.3242 39.9128 27.2913C42.141 27.0984 43.9613 25.381 44.2896 23.1688C44.468 21.9699 44.6463 20.7531 44.7926 19.5205C49.2291 21.5035 55.1171 24.0965 55.1171 24.0965V4.80667C55.1171 4.80667 49.2291 7.39957 44.7926 9.38243C44.6463 8.15024 44.468 6.93343 44.2896 5.73477C43.9613 3.52234 42.141 1.80492 39.9128 1.61213C39.533 1.57906 39.1518 1.546 38.7693 1.51247C35.0015 1.1823 31.0997 0.840965 27.1031 0.840965C23.1066 0.840965 19.2049 1.1823 15.4371 1.51247C15.0545 1.546 14.6733 1.57906 14.2935 1.61213Z" fill="#256035"/>
</svg>
