<svg width="33" height="34" viewBox="0 0 33 34" fill="none" xmlns="http://www.w3.org/2000/svg">
<rect width="33" height="33.016" rx="16.5" fill="white"/>
<path d="M24.315 8.44636C24.2054 8.3666 24.081 8.30935 23.9492 8.27793C23.8173 8.24651 23.6805 8.24154 23.5467 8.26331C23.4129 8.28508 23.2847 8.33315 23.1696 8.40475C23.0545 8.47635 22.9547 8.57006 22.876 8.68046L13.216 22.1548L9.98685 18.9257C9.79107 18.7432 9.53212 18.6439 9.26456 18.6486C8.997 18.6534 8.74172 18.7617 8.5525 18.951C8.36327 19.1402 8.25488 19.3955 8.25016 19.663C8.24544 19.9306 8.34476 20.1895 8.52719 20.3853L12.6101 24.4751C12.7179 24.5778 12.8461 24.6565 12.9865 24.706C13.1268 24.7556 13.2761 24.7748 13.4244 24.7624C13.5727 24.75 13.7168 24.7064 13.847 24.6343C13.9772 24.5623 14.0907 24.4634 14.18 24.3443L24.556 9.88537C24.6354 9.77533 24.6922 9.65063 24.7231 9.51849C24.754 9.38635 24.7583 9.24939 24.7359 9.11555C24.7135 8.98171 24.6648 8.85365 24.5925 8.73878C24.5203 8.62391 24.4259 8.52452 24.315 8.44636Z" fill="#256035"/>
</svg>
