<svg width="19" height="17" viewBox="0 0 19 17" fill="none" xmlns="http://www.w3.org/2000/svg">
<path d="M0.743516 13.697C0.920527 15.1228 2.07237 16.2491 3.50133 16.3986C5.47866 16.6052 7.52797 16.8234 9.62805 16.8234C11.7281 16.8234 13.7774 16.6052 15.7547 16.3986C17.1836 16.2491 18.3355 15.1228 18.5125 13.697C18.7239 11.9947 18.9319 10.2342 18.9319 8.43223C18.9319 6.63021 18.7239 4.86976 18.5125 3.16747C18.3355 1.74168 17.1836 0.615337 15.7547 0.465955C13.7774 0.259261 11.7281 0.0410156 9.62805 0.0410156C7.52797 0.0410156 5.47864 0.259261 3.50133 0.465955C2.07237 0.615337 0.920527 1.74168 0.743501 3.16747C0.532163 4.86976 0.324219 6.63021 0.324219 8.43223C0.324219 10.2342 0.532163 11.9947 0.743516 13.697Z" fill="#F0FFF5" fill-opacity="0.7"/>
<path d="M0.7854 2.78198L7.78503 8.30095C8.86612 9.15336 10.3907 9.15336 11.4718 8.30095L18.4713 2.78198" stroke="#1A331E" stroke-width="1.5" stroke-linejoin="round"/>
</svg>
