<svg width="17" height="17" viewBox="0 0 17 17" fill="none" xmlns="http://www.w3.org/2000/svg">
<path d="M5.34182 0.561466C4.32289 -0.292472 2.80474 -0.169725 2.03163 0.911828C1.82514 1.20071 1.58044 1.54527 1.15779 2.07395C-0.296124 3.89265 -0.296118 6.52607 1.16583 8.33833C2.24506 9.67615 3.37663 11.0261 4.64157 12.2911C5.90652 13.556 7.25647 14.6875 8.59429 15.7668C10.4066 17.2288 13.04 17.2288 14.8587 15.7749C15.4227 15.3239 15.7746 15.0781 16.0733 14.8649C17.1182 14.1188 17.2645 12.6553 16.4487 11.664C15.8041 10.8807 15.0863 10.1334 14.3938 9.40389C13.8421 8.82279 12.9209 8.78483 12.2948 9.28483C12.1265 9.4193 11.9174 9.59655 11.4935 9.99397C9.41312 8.75779 8.1523 7.48158 6.93867 5.43916C7.34091 5.0101 7.51832 4.80043 7.65397 4.6304C8.15308 4.00482 8.11603 3.08597 7.53149 2.53935C6.81907 1.87315 6.09403 1.19185 5.34182 0.561466Z" fill="#F0FFF5" fill-opacity="0.7"/>
</svg>
