<svg width="40" height="37" viewBox="0 0 40 37" fill="none" xmlns="http://www.w3.org/2000/svg">
<path d="M27.8047 1.20947C30.1611 -0.63002 33.6719 -0.365608 35.4598 1.96419C35.9373 2.58646 36.5032 3.3287 37.4806 4.46755C40.8429 8.38524 40.8429 14.0579 37.462 17.9618C34.9662 20.8436 32.3494 23.7516 29.4241 26.4764C26.4988 29.2013 23.377 31.6387 20.2831 33.9637C16.0922 37.1129 10.0021 37.1129 5.79624 33.981C4.49186 33.0095 3.67824 32.4801 2.98739 32.0208C0.571086 30.4135 0.232628 27.261 2.11935 25.1257C3.60989 23.4383 5.26998 21.8285 6.87134 20.2571C8.14718 19.0054 10.2775 18.9236 11.7254 20.0006C12.1147 20.2903 12.5983 20.6721 13.5786 21.5282C18.3895 18.8653 21.3053 16.1162 24.1119 11.7166C23.1817 10.7924 22.7714 10.3407 22.4577 9.97443C21.3035 8.62685 21.3892 6.64754 22.741 5.47006C24.3885 4.03498 26.0652 2.56739 27.8047 1.20947Z" fill="#256035"/>
</svg>
