<svg width="687" height="277" viewBox="0 0 687 277" fill="none" xmlns="http://www.w3.org/2000/svg">
<path d="M489.322 111.376H591.84V55.7422C591.84 20.6485 573.602 0.0159912 540.627 0.0159912H489.322V111.376ZM523.771 78.4011V33.9123H537.955C547.074 33.9123 557.575 39.2546 557.575 55.8343V78.4011H523.771Z" fill="white"/>
<path d="M602.484 111.376H638.406V0.0159912H602.484V111.376Z" fill="white"/>
<path d="M649.143 66.3348H684.052V0.0159912H649.143V66.3348Z" fill="white"/>
<path d="M0 275.079H36.9621V197.431H351.198C360.317 197.431 370.173 205.168 370.173 221.472V275.079H405.082V219.445C405.082 184.536 386.844 163.719 353.869 163.719H0V275.079Z" fill="white"/>
<path d="M415.634 275.079H451.557V163.719H415.634V275.079Z" fill="white"/>
<path d="M459.622 275.632L471.412 276C483.478 276.369 495.176 272.224 502.084 264.671C509.545 256.565 511.756 245.696 511.48 230.222L510.927 196.602L523.454 196.418C531.375 196.326 541.691 202.037 541.691 220.09V275.079H576.693V218.985C576.693 183.983 559.745 163.443 527.599 163.535L463.122 163.719L463.306 197.155L477.399 196.971L477.767 228.84C477.86 235.288 476.202 239.341 473.715 241.275C471.043 243.394 465.701 244.96 459.622 243.854V275.632Z" fill="white"/>
<path d="M596.456 275.079H627.405C661.117 275.079 686.263 253.526 686.355 217.143C686.447 181.588 664.525 160.219 633.392 160.587C600.693 160.956 583.469 182.141 583.837 206.182C584.113 226.261 600.233 233.17 602.351 234.091L623.72 210.511C621.602 209.405 618.562 207.379 618.01 203.695C617.457 199.734 618.562 196.234 622.891 194.115C634.313 188.497 653.288 196.51 652.09 218.432C651.169 234.735 639.563 242.933 622.523 242.933H596.456V275.079Z" fill="white"/>
</svg>
