<svg width="21" height="21" viewBox="0 0 21 21" fill="none" xmlns="http://www.w3.org/2000/svg">
<path d="M1.33912 15.6522C1.57489 17.8742 3.3636 19.6632 5.58466 19.9088C7.15594 20.0827 8.76808 20.2296 10.4111 20.2296C12.054 20.2296 13.6662 20.0827 15.2374 19.9088C17.4585 19.6632 19.2473 17.8744 19.4829 15.6522C19.6487 14.09 19.7866 12.4873 19.7866 10.8541C19.7866 9.22084 19.6487 7.61817 19.4829 6.05597C19.2473 3.83384 17.4585 2.04497 15.2374 1.7993C13.6662 1.62549 12.054 1.47852 10.4111 1.47852C8.76808 1.47852 7.15594 1.62549 5.58466 1.7993C3.3636 2.04497 1.57489 3.83384 1.33912 6.05597C1.17337 7.61817 1.03549 9.22084 1.03549 10.8541C1.03549 12.4873 1.17337 14.09 1.33912 15.6522Z" stroke="#256035" stroke-width="1.5"/>
<path d="M10.4108 14.22C12.2697 14.22 13.7766 12.7131 13.7766 10.8542C13.7766 8.99524 12.2697 7.48828 10.4108 7.48828C8.55185 7.48828 7.04489 8.99524 7.04489 10.8542C7.04489 12.7131 8.55185 14.22 10.4108 14.22Z" stroke="#256035" stroke-width="1.5" stroke-linecap="round" stroke-linejoin="round"/>
<path d="M15.5267 5.66064V6.33594" stroke="#256035" stroke-width="1.5" stroke-linecap="round"/>
</svg>
