<svg width="34" height="41" viewBox="0 0 34 41" fill="none" xmlns="http://www.w3.org/2000/svg">
<path d="M18.8299 39.1216C22.8725 35.6182 32.2051 26.4246 32.2051 16.206C32.2051 7.80797 25.397 1 16.999 1C8.60094 1 1.79297 7.80797 1.79297 16.206C1.79297 26.4246 11.1255 35.6182 15.168 39.1216C16.2305 40.0421 17.7675 40.0421 18.8299 39.1216Z" stroke="#001C04" stroke-opacity="0.6" stroke-width="2" stroke-linecap="round" stroke-linejoin="round"/>
<path d="M16.9996 21.5413C20.4393 21.5413 23.2277 18.7529 23.2277 15.3132C23.2277 11.8735 20.4393 9.08508 16.9996 9.08508C13.5599 9.08508 10.7715 11.8735 10.7715 15.3132C10.7715 18.7529 13.5599 21.5413 16.9996 21.5413Z" stroke="#001C04" stroke-opacity="0.6" stroke-width="2" stroke-linecap="round" stroke-linejoin="round"/>
</svg>
