<svg width="24" height="22" viewBox="0 0 24 22" fill="none" xmlns="http://www.w3.org/2000/svg">
<path d="M1.48286 16.7263C1.68671 18.3682 3.01317 19.6652 4.65877 19.8374C6.93585 20.0753 9.29584 20.3266 11.7143 20.3266C14.1327 20.3266 16.4927 20.0753 18.7698 19.8374C20.4153 19.6652 21.7418 18.3682 21.9457 16.7263C22.1891 14.7659 22.4286 12.7385 22.4286 10.6633C22.4286 8.58811 22.1891 6.56078 21.9457 4.60043C21.7418 2.95849 20.4153 1.66139 18.7698 1.48936C16.4927 1.25133 14.1327 1 11.7143 1C9.29584 1 6.93583 1.25133 4.65877 1.48936C3.01317 1.66139 1.68671 2.95849 1.48285 4.60043C1.23947 6.56078 1 8.58811 1 10.6633C1 12.7385 1.23947 14.7659 1.48286 16.7263Z" stroke="#F0FFF5" stroke-opacity="0.7" stroke-width="1.5"/>
<path d="M1.53076 4.15625L9.59154 10.5119C10.8365 11.4935 12.5922 11.4935 13.8372 10.5119L21.8979 4.15625" stroke="#F0FFF5" stroke-opacity="0.7" stroke-width="1.5" stroke-linejoin="round"/>
</svg>
