<svg width="20" height="17" viewBox="0 0 20 17" fill="none" xmlns="http://www.w3.org/2000/svg">
<path d="M1.32337 13.656C1.50038 15.0818 2.65222 16.2081 4.08118 16.3576C6.05851 16.5642 8.10782 16.7824 10.2079 16.7824C12.308 16.7824 14.3573 16.5642 16.3346 16.3576C17.7635 16.2081 18.9154 15.0818 19.0924 13.656C19.3038 11.9537 19.5117 10.1932 19.5117 8.39122C19.5117 6.58919 19.3038 4.82875 19.0924 3.12646C18.9154 1.70067 17.7635 0.574322 16.3346 0.424939C14.3573 0.218245 12.308 0 10.2079 0C8.10782 0 6.05849 0.218245 4.08118 0.424939C2.65222 0.574322 1.50038 1.70067 1.32335 3.12646C1.11201 4.82875 0.904068 6.58919 0.904068 8.39122C0.904068 10.1932 1.11201 11.9537 1.32337 13.656Z" fill="#256035"/>
<path d="M1.36534 2.74121L8.36498 8.26018C9.44606 9.11259 10.9706 9.11259 12.0517 8.26018L19.0513 2.74121" fill="#256035"/>
<path d="M1.36534 2.74121L8.36498 8.26018C9.44607 9.11259 10.9706 9.11259 12.0517 8.26018L19.0513 2.74121" stroke="#F0FFF5" stroke-width="1.5" stroke-linejoin="round"/>
</svg>
