<svg width="21" height="20" viewBox="0 0 21 20" fill="none" xmlns="http://www.w3.org/2000/svg">
<g opacity="0.4">
<path d="M10.4287 19C15.3993 19 19.4287 14.9706 19.4287 10C19.4287 5.02944 15.3993 1 10.4287 1C5.45815 1 1.42871 5.02944 1.42871 10C1.42871 14.9706 5.45815 19 10.4287 19Z" stroke="#001C04" stroke-opacity="0.9" stroke-width="1.5" stroke-linecap="round" stroke-linejoin="round"/>
<path d="M10.4283 10.8354C12.1674 10.8354 13.5772 9.42556 13.5772 7.68644C13.5772 5.94732 12.1674 4.53748 10.4283 4.53748C8.68913 4.53748 7.2793 5.94732 7.2793 7.68644C7.2793 9.42556 8.68913 10.8354 10.4283 10.8354Z" stroke="#001C04" stroke-opacity="0.9" stroke-width="1.5" stroke-linecap="round" stroke-linejoin="round"/>
<path d="M15.7625 17.2497C14.2698 18.3499 12.425 19 10.4284 19C8.43178 19 6.587 18.3499 5.09424 17.2497C5.39153 16.1301 6.03454 15.1296 6.93567 14.393C7.92138 13.5873 9.15533 13.1472 10.4284 13.1472C11.7015 13.1472 12.9354 13.5873 13.9212 14.393C14.8222 15.1296 15.4653 16.1301 15.7625 17.2497Z" stroke="#001C04" stroke-opacity="0.9" stroke-width="1.5" stroke-linecap="round" stroke-linejoin="round"/>
</g>
</svg>
