<svg width="133" height="131" viewBox="0 0 133 131" fill="none" xmlns="http://www.w3.org/2000/svg">
<g style="mix-blend-mode:multiply">
<path d="M42.4645 124.399C42.5258 124.235 43.2416 124.296 44.5401 124.552C45.1843 124.675 45.9818 124.869 46.9225 125.033C47.8632 125.206 48.9368 125.462 50.1638 125.646C55.0411 126.474 62.1882 127.323 70.8487 126.301C79.4785 125.319 89.7034 122.292 99.2329 115.932C100.439 115.166 101.585 114.286 102.771 113.427C103.906 112.507 105.082 111.618 106.186 110.605C107.321 109.634 108.384 108.571 109.478 107.507C110.521 106.403 111.595 105.299 112.587 104.102C116.636 99.4091 120.081 93.9184 122.699 87.8857C123.987 84.8591 125.041 81.7712 125.858 78.6731C126.646 75.5647 127.188 72.4563 127.535 69.3684C127.842 66.2805 127.944 63.2437 127.842 60.2683C127.699 57.2929 127.454 54.3686 126.922 51.5567C125.981 45.9126 124.223 40.7081 122.157 36.0456C120.051 31.3933 117.525 27.3238 114.928 23.8269C112.321 20.33 109.621 17.4261 107.096 15.0335C105.848 13.8167 104.591 12.784 103.466 11.7922C102.29 10.8719 101.237 9.97216 100.235 9.26664C96.2575 6.31165 93.8547 4.89039 94.0285 4.53252C94.1716 4.236 96.9017 5.03354 101.36 7.53864C102.484 8.1419 103.66 8.93945 104.979 9.77789C106.247 10.6777 107.648 11.6491 109.049 12.8045C111.881 15.0948 114.918 17.968 117.873 21.516C120.818 25.0641 123.701 29.2767 126.135 34.1744C128.527 39.0722 130.582 44.614 131.738 50.6774C132.372 53.6937 132.709 56.843 132.914 60.0536C133.077 63.2642 133.006 66.5566 132.719 69.9001C132.382 73.2437 131.82 76.6179 130.981 79.9921C130.112 83.3561 128.987 86.7098 127.587 89.992C124.744 96.5359 120.961 102.477 116.533 107.507C115.45 108.785 114.274 109.961 113.129 111.147C111.932 112.282 110.756 113.407 109.519 114.44C108.313 115.503 107.024 116.454 105.777 117.415C104.489 118.315 103.231 119.245 101.912 120.033C96.7176 123.335 91.3087 125.697 86.0838 127.313C80.8589 128.939 75.8078 129.736 71.2066 130.033C61.994 130.626 54.5912 129.133 49.7139 127.65C48.4869 127.303 47.4235 126.883 46.5033 126.546C45.5831 126.208 44.8264 125.851 44.2232 125.564C43.0166 124.971 42.4236 124.583 42.4849 124.399H42.4645Z" fill="#F8F8F8"/>
</g>
<path d="M65.1228 0.616453C65.1228 1.02545 62.4746 1.25041 57.812 2.09907C53.1802 2.97841 46.4624 4.57349 39.0187 8.39759C31.6159 12.1808 23.5178 18.285 17.0557 27.1091C15.4709 29.3279 13.9371 31.6694 12.5875 34.1847C11.2582 36.7102 10.0108 39.3483 8.99852 42.1397C7.99648 44.931 7.13759 47.8247 6.5241 50.8308C5.92083 53.8267 5.52207 56.9146 5.34825 60.0434C5.21532 63.1722 5.2869 66.2703 5.57319 69.3173C5.89017 72.3541 6.42186 75.3296 7.12738 78.213C7.86357 81.0862 8.79403 83.8469 9.86764 86.4951C10.9821 89.1229 12.2091 91.6382 13.5895 94.0002C16.3604 98.7036 19.571 102.834 23.0066 106.29C26.4319 109.757 30.0208 112.599 33.5075 114.879C40.5116 119.45 47.0248 121.74 51.5442 123.1C56.0943 124.429 58.7221 124.92 58.6812 125.329C58.6505 125.646 55.9409 125.861 51.0943 125.114C46.2784 124.348 39.2539 122.517 31.5546 118.08C27.7203 115.871 23.753 113.008 19.9391 109.44C16.115 105.881 12.5261 101.526 9.40752 96.5155C7.86357 94.0002 6.47298 91.3008 5.21532 88.4787C4.00878 85.626 2.95562 82.6301 2.11718 79.5218C1.30942 76.4032 0.706146 73.1721 0.338051 69.8593C0.0108552 66.5464 -0.081163 63.1824 0.0722101 59.7776C0.266483 56.3727 0.706161 53.0189 1.39123 49.7572C2.08652 46.4954 3.03742 43.3462 4.16216 40.3298C5.29712 37.3135 6.68771 34.4608 8.18054 31.7512C9.69382 29.0518 11.4014 26.5467 13.1703 24.1848C20.389 14.8086 29.3562 8.59185 37.4237 5.02337C45.5422 1.41399 52.7303 0.330148 57.5871 0.0643017C58.8039 -0.0277221 59.8979 0.00296497 60.8284 0.0131898C61.7691 0.0131898 62.5564 0.0847477 63.2006 0.156322C64.4787 0.29947 65.1433 0.463079 65.1433 0.647127L65.1228 0.616453Z" fill="#256035"/>
<path d="M72.9145 130.503C72.8122 130.114 75.5934 129.44 80.3786 127.732C82.7713 126.883 85.6445 125.718 88.8244 124.133C92.0043 122.548 95.5012 120.503 99.039 117.885C102.577 115.268 106.166 112.057 109.53 108.233C112.884 104.409 115.982 99.9306 118.538 94.9204C119.816 92.4154 120.92 89.7467 121.902 86.9962C122.843 84.2252 123.609 81.352 124.202 78.397C124.744 75.4318 125.102 72.3951 125.245 69.3276C125.348 66.2499 125.245 63.1416 124.928 60.0332C124.571 56.9248 123.988 53.888 123.221 50.9637C122.434 48.0394 121.431 45.2378 120.286 42.5691C119.131 39.9004 117.771 37.3953 116.34 35.0231C114.877 32.6612 113.272 30.4731 111.626 28.4281C104.888 20.2891 96.8816 14.9926 89.7549 11.8434C82.577 8.66344 76.2887 7.55914 71.9738 6.97633C67.6385 6.42418 65.1845 6.3526 65.1436 5.9436C65.1231 5.75956 65.706 5.55507 66.8511 5.35057C67.9963 5.12563 69.7243 4.95181 71.9636 4.91091C74.213 4.85979 76.9738 5.02338 80.1844 5.4835C83.3847 5.9743 87.0248 6.84339 90.9205 8.27487C94.8161 9.69613 98.9674 11.7207 103.098 14.4814C105.184 15.8311 107.219 17.4364 109.254 19.1541C111.248 20.9333 113.241 22.8453 115.113 24.9925C118.865 29.2665 122.26 34.3381 124.877 40.0947C127.515 45.8308 129.366 52.2725 130.153 59.0311C130.941 65.7796 130.654 72.5587 129.397 78.9799C128.139 85.4011 125.941 91.444 123.088 96.812C120.276 102.211 116.769 106.904 113.078 110.922C109.346 114.91 105.378 118.182 101.493 120.779C97.5973 123.386 93.7835 125.319 90.3274 126.75C88.5994 127.487 86.943 128.029 85.4195 128.55C83.8756 128.99 82.4645 129.429 81.166 129.695C75.9922 130.871 73.0167 130.861 72.9349 130.534L72.9145 130.503Z" fill="#256035"/>
<path d="M38.385 27.1602C38.477 27.5283 37.066 28.0702 34.5404 29.2359C33.8963 29.5119 33.2214 29.8902 32.4341 30.2583C31.6877 30.6776 30.839 31.0968 29.9699 31.6387C28.2113 32.6919 26.2481 34.0313 24.1929 35.7798C22.1479 37.5283 20.0314 39.6959 18.0068 42.3441C15.9925 45.0026 14.1418 48.1621 12.5877 51.8226C11.1153 55.4933 9.91896 59.6651 9.44861 64.256C8.92714 68.847 9.0703 73.8163 10.0621 78.939C11.0539 84.0616 12.8637 89.0718 15.3586 93.6832C17.833 98.3151 21.0027 102.507 24.5405 106.188C28.109 109.828 32.0456 112.947 36.1151 115.432C40.1846 117.916 44.3461 119.828 48.344 121.219C52.3419 122.62 56.1558 123.519 59.5811 124.102C63.0065 124.634 66.033 124.961 68.5177 125.074C73.5074 125.339 76.3397 125.217 76.2579 125.626C76.1965 125.984 73.2007 126.863 67.8633 127.2C66.534 127.303 65.0514 127.292 63.4564 127.313C61.8511 127.241 60.1231 127.211 58.2724 126.996C54.5914 126.628 50.4606 125.892 46.115 124.562C37.4545 121.914 27.925 116.812 20.1745 108.877C18.242 106.904 16.4015 104.787 14.7349 102.507C13.876 101.393 13.1091 100.186 12.3218 99.0104C11.5958 97.7834 10.829 96.5769 10.1848 95.2988C8.83512 92.7834 7.67971 90.1352 6.74925 87.4154C5.78811 84.716 5.07237 81.9144 4.58158 79.1026C4.30551 77.7018 4.16235 76.2907 3.99876 74.9206C3.90673 73.5198 3.77382 72.1701 3.78404 70.8204C3.72269 68.1313 3.92718 65.5035 4.25438 62.9984C4.58157 60.4933 5.15417 58.1007 5.78811 55.841C6.50385 53.5915 7.25026 51.4545 8.20118 49.4913C10.0008 45.5343 12.3014 42.201 14.6428 39.4301C16.9946 36.6591 19.4894 34.4915 21.8616 32.7941C26.6264 29.3995 30.8902 27.9578 33.7531 27.3136C36.6468 26.6899 38.2418 26.8126 38.3339 27.15L38.385 27.1602Z" fill="#F8F8F8"/>
<g style="mix-blend-mode:multiply">
<path d="M3.14005 79.072C3.39567 78.9698 3.85579 79.5321 4.51018 80.6568C4.82715 81.2294 5.2157 81.9247 5.67582 82.7427C6.13594 83.5607 6.6165 84.5218 7.24022 85.5648C9.62261 89.7467 13.3342 95.6772 19.2749 101.536C22.2401 104.46 25.7472 107.334 29.7861 109.92C33.8453 112.477 38.4363 114.747 43.4772 116.372C53.5282 119.695 65.3993 120.36 76.7796 117.221C79.6221 116.475 82.3521 115.442 84.9492 114.297C87.5566 113.151 90.0106 111.802 92.3111 110.319C94.6117 108.847 96.7692 107.252 98.7324 105.524C100.706 103.816 102.536 102.027 104.162 100.145C107.475 96.444 110.031 92.4461 112.066 88.5709C114.049 84.6548 115.45 80.8 116.401 77.2111C117.352 73.6119 117.863 70.2786 118.129 67.3236C118.293 65.8512 118.323 64.4709 118.395 63.1928C118.395 61.9249 118.456 60.749 118.425 59.6959C118.385 55.4832 118.201 53.0804 118.753 52.9168C119.254 52.7634 120.45 54.8799 121.472 59.1744C121.984 61.3114 122.413 64.0005 122.567 67.1805C122.73 70.3604 122.618 74.0414 121.953 78.0802C121.299 82.119 120.092 86.5157 118.16 91.0249C116.248 95.5443 113.528 100.145 110.021 104.532C108.262 106.73 106.278 108.837 104.111 110.871C101.933 112.896 99.5401 114.787 96.9634 116.546C91.7999 120.033 85.849 122.916 79.3562 124.716C66.3706 128.397 52.8227 127.487 41.5549 123.427C35.9005 121.434 30.8495 118.683 26.4732 115.605C22.097 112.518 18.4365 109.062 15.4304 105.626C12.4242 102.18 10.1032 98.7242 8.33429 95.534C6.56539 92.3439 5.31795 89.4502 4.49996 87.0065C2.85376 82.119 2.65949 79.2152 3.12983 79.0413L3.14005 79.072Z" fill="#F8F8F8"/>
</g>
</svg>
