<svg width="36" height="33" viewBox="0 0 36 33" fill="none" xmlns="http://www.w3.org/2000/svg">
<path d="M2.68211 25.6043C2.98821 28.0699 4.98007 30.0176 7.45115 30.276C10.8705 30.6333 14.4143 31.0107 18.0459 31.0107C21.6776 31.0107 25.2214 30.6333 28.6407 30.276C31.1117 30.0176 33.1036 28.0699 33.4097 25.6043C33.7752 22.6605 34.1349 19.6162 34.1349 16.5C34.1349 13.3838 33.7752 10.3395 33.4097 7.39579C33.1036 4.93019 31.1117 2.98243 28.6407 2.72411C25.2214 2.36668 21.6776 1.98927 18.0459 1.98927C14.4143 1.98927 10.8705 2.36668 7.45115 2.72411C4.98007 2.98243 2.98821 4.93019 2.68209 7.39579C2.31662 10.3395 1.95703 13.3838 1.95703 16.5C1.95703 19.6162 2.31662 22.6605 2.68211 25.6043Z" stroke="#256035" stroke-width="2"/>
<path d="M2.75391 6.72888L14.8582 16.2727C16.7277 17.7468 19.3641 17.7468 21.2336 16.2727L33.3378 6.72888" stroke="#256035" stroke-width="2" stroke-linejoin="round"/>
</svg>
