<svg width="108" height="125" viewBox="0 0 108 125" fill="none" xmlns="http://www.w3.org/2000/svg">
<path fill-rule="evenodd" clip-rule="evenodd" d="M52.0375 74.1765C55.0034 69.538 52.1008 67.452 48.5932 72.1341L36.3661 88.458C30.5511 96.2245 25.1078 90.6863 30.7884 84.0349L42.6042 70.1964C46.877 65.194 44.4549 61.6726 38.4303 67.8415L35.1383 71.2127C30.0548 76.4167 26.0944 71.9166 31.1759 66.0343L53.1132 40.6389C55.7666 37.5663 78.1448 10.0058 65.8267 15.1011C55.6875 19.2968 47.6442 28.1765 35.7907 41.8154C31.7434 46.4737 29.0227 43.7787 32.2317 39.4111C35.9074 34.4087 32.6924 30.6441 28.2892 35.4685L17.711 47.057C13.4699 51.7015 9.11211 48.2077 13.6716 43.2587L23.4905 32.6055C27.2491 28.5265 24.2635 25.8869 19.7515 29.869L16.2341 32.9732C10.7433 37.8174 8.47742 32.7221 14.8856 26.3535C28.2793 13.0389 41.3685 4.21456 53.0183 1.28037C71.9066 -3.4788 89.8242 4.90462 85.4723 28.5245C82.726 43.4466 75.7365 57.7201 54.6119 82.0597C51.1043 86.1011 46.2898 83.1669 49.0322 78.8783L52.0375 74.1765V74.1765Z" fill="#256035"/>
<path fill-rule="evenodd" clip-rule="evenodd" d="M59.9107 0.125591C57.6527 0.309472 55.3434 0.695029 53.0162 1.28029C41.3644 4.21448 28.2772 13.0408 14.8835 26.3534C8.47533 32.722 10.7432 37.8173 16.232 32.9731L19.7494 29.8689C24.2615 25.8868 27.2471 28.5264 23.4884 32.6054L13.6695 43.2586C9.11002 48.2076 13.4678 51.7033 17.7089 47.0569L28.2871 35.4684C32.6903 30.644 35.9053 34.4086 32.2296 39.411C29.0206 43.7787 31.7413 46.4736 35.7886 41.8153C47.6441 28.1764 55.6854 19.2947 65.8246 15.1011C70.7083 13.0803 70.1349 16.1945 67.5033 20.8785C74.4215 8.97365 71.8867 2.05536 59.9068 0.123611L59.9107 0.125591Z" fill="#001C04" fill-opacity="0.9"/>
<path fill-rule="evenodd" clip-rule="evenodd" d="M18.2409 101.939L21.527 97.6718C24.3979 93.9408 28.8803 97.6125 26.0113 101.342L22.7252 105.61C19.8543 109.339 15.3699 105.67 18.2409 101.941V101.939Z" fill="#256035"/>
<path fill-rule="evenodd" clip-rule="evenodd" d="M39.1437 92.094L42.4298 87.8272C45.3008 84.0962 49.9769 87.9617 47.104 91.6887L43.8178 95.9575C40.9469 99.6866 36.2708 95.8251 39.1417 92.094H39.1437Z" fill="#256035"/>
<path fill-rule="evenodd" clip-rule="evenodd" d="M18.1181 82.6054L21.4042 78.3385C24.2751 74.6075 29.1925 78.4235 26.3215 82.1526L23.0354 86.4194C20.1645 90.1484 15.2471 86.3344 18.1181 82.6054Z" fill="#256035"/>
<path fill-rule="evenodd" clip-rule="evenodd" d="M1.12367 60.7788L4.40981 56.5119C7.28074 52.7809 11.7631 56.4526 8.89415 60.1816L5.60801 64.4485C2.73708 68.1775 -1.74726 64.5078 1.12367 60.7788Z" fill="#001C04" fill-opacity="0.9"/>
<path fill-rule="evenodd" clip-rule="evenodd" d="M22.025 50.9344L25.3112 46.6675C28.1821 42.9365 32.8582 46.8 29.9873 50.529L26.7012 54.7978C23.8302 58.5269 19.1541 54.6654 22.025 50.9363V50.9344Z" fill="#001C04" fill-opacity="0.9"/>
<path fill-rule="evenodd" clip-rule="evenodd" d="M0.999404 41.4456L4.28554 37.1788C7.15647 33.4478 12.0738 37.2658 9.20289 40.9928L5.91675 45.2597C3.04583 48.9887 -1.87152 45.1747 0.999404 41.4456V41.4456Z" fill="#001C04" fill-opacity="0.9"/>
<path fill-rule="evenodd" clip-rule="evenodd" d="M80.5367 99.1171C78.338 103.696 83.6132 106.532 86.7649 102.211C96.9852 88.2009 128.18 19.9255 87.6211 22.6046C111.237 27.6287 71.4039 74.6965 63.9676 85.3735C59.5248 91.75 65.0867 96.1038 69.6027 90.3996L72.527 86.7041C77.8773 79.942 79.6114 82.985 75.7696 88.3235L67.7896 99.4078C62.6824 106.504 68.7623 111.52 73.7963 103.228L81.3296 90.8207C84.3646 85.8203 86.1915 87.3428 83.811 92.3016L80.5387 99.1151L80.5367 99.1171Z" fill="#430B08"/>
<path fill-rule="evenodd" clip-rule="evenodd" d="M59.7662 118.917L63.0524 114.65C65.9233 110.919 70.5994 114.785 67.7285 118.512L64.4424 122.781C61.5714 126.51 56.8953 122.648 59.7662 118.917Z" fill="#430B08"/>
<path fill-rule="evenodd" clip-rule="evenodd" d="M55.3434 101.8L58.6295 97.5335C61.5004 93.8025 66.1766 97.666 63.3056 101.395L60.0195 105.664C57.1486 109.393 52.4725 105.531 55.3434 101.802V101.8Z" fill="#430B08"/>
<path fill-rule="evenodd" clip-rule="evenodd" d="M75.3154 112.554L77.7889 109.343C79.95 106.536 83.4674 109.444 81.3063 112.248L78.8348 115.459C76.6737 118.265 73.1562 115.36 75.3173 112.552L75.3154 112.554Z" fill="#430B08"/>
</svg>
