<svg width="101" height="103" viewBox="0 0 101 103" fill="none" xmlns="http://www.w3.org/2000/svg">
<path d="M54.3247 82.1069C54.3247 82.1069 56.2444 58.6352 82.7696 56.7159C82.7696 56.7159 82.5076 70.3277 77.3597 77.4825C77.3597 77.4825 70.1177 77.1334 68.1108 77.3953C68.1108 77.3953 70.0305 72.6837 74.4806 68.7572C74.4806 68.7572 66.5403 73.1201 63.8356 78.3552C63.8356 78.3552 60.8688 79.2279 54.3247 82.1069V82.1069Z" fill="#001C04" fill-opacity="0.9"/>
<path d="M62.2646 54.0979C62.2646 54.0979 62.73 41.9405 77.5051 40.8934C77.5051 40.8934 76.8072 56.9484 62.6719 58.519C62.6719 58.519 62.609 57.1383 62.2646 55.9595C62.2646 55.9595 69.2451 54.2146 71.6883 48.5718C71.6883 48.5718 65.7549 54.0398 62.2646 54.0979Z" fill="#001C04" fill-opacity="0.9"/>
<path d="M64.0537 38.3485C64.0537 38.3485 64.8828 29.4919 75.4407 29.012C75.4407 29.012 74.5389 41.1259 64.7085 41.3002L64.6503 39.6135C64.6503 39.6135 68.6641 38.8425 70.8162 35.098C70.8162 35.098 67.588 38.828 64.0542 38.348L64.0537 38.3485Z" fill="#001C04" fill-opacity="0.9"/>
<path d="M16.4561 56.7159C16.4561 56.7159 27.2754 55.5817 37.3974 64.4814C37.3974 64.4814 36.7868 71.7234 39.0552 77.4825C39.0552 77.4825 27.0139 73.8179 23.1745 65.7033C23.1745 65.7033 24.7451 77.0466 40.538 80.3621C40.538 80.3621 42.1086 84.3758 45.0753 86.7318C45.0753 86.7318 20.7313 89.2332 16.4556 56.7159H16.4561Z" fill="#001C04" fill-opacity="0.9"/>
<path d="M20.8188 40.8934C20.8188 40.8934 36.176 42.493 36.2631 54.6214C36.2631 54.6214 30.1554 52.4402 26.2288 48.8628C26.2288 48.8628 28.3228 54.1856 36.2631 55.8433V58.519C36.2631 58.519 22.9129 59.4498 20.8188 40.8934V40.8934Z" fill="#001C04" fill-opacity="0.9"/>
<path d="M23.0581 29.0125C23.0581 29.0125 33.3094 28.6464 33.7613 38.2759C33.7613 38.2759 28.933 36.5165 27.7116 34.6912C27.7116 34.6912 28.5407 37.5679 33.7613 39.614V41.3007C33.7613 41.3007 23.4654 41.9114 23.0581 29.0125V29.0125Z" fill="#001C04" fill-opacity="0.9"/>
<path d="M48.9443 27.9219C52.4782 27.9219 55.3431 25.057 55.3431 21.523C55.3431 17.989 52.4782 15.1242 48.9443 15.1242C45.4103 15.1242 42.5454 17.989 42.5454 21.523C42.5454 25.057 45.4103 27.9219 48.9443 27.9219Z" fill="#256035"/>
<path d="M56.3318 -1.52588e-05C56.3318 -1.52588e-05 78.9638 14.422 55.3429 45.7217L51.0381 41.3007C51.0381 41.3007 69.7687 20.5922 56.3318 -1.52588e-05V-1.52588e-05Z" fill="#256035"/>
<path d="M44.4068 50.259L48.4786 54.3309C48.4786 54.3309 37.4263 70.0367 47.1987 86.2079C47.1987 86.2079 30.7945 72.8286 44.4063 50.259H44.4068Z" fill="#256035"/>
<path d="M34.2852 15.5896C34.2852 15.5896 39.6549 36.8153 54.8745 48.0671C58.0141 50.3883 67.7865 61.2905 56.6223 69.4114C56.6223 69.4114 64.4759 59.794 49.8535 49.3863C48.8398 48.6652 32.889 34.6694 34.2847 15.5896H34.2852Z" fill="#001C04" fill-opacity="0.9"/>
<path d="M56.5495 64.2636C56.7664 64.2636 56.9422 64.0877 56.9422 63.8708C56.9422 63.6539 56.7664 63.4781 56.5495 63.4781C56.3326 63.4781 56.1567 63.6539 56.1567 63.8708C56.1567 64.0877 56.3326 64.2636 56.5495 64.2636Z" fill="#256035"/>
<path d="M56.9394 61.3866C56.9896 61.0775 56.7797 60.7862 56.4705 60.736C56.1613 60.6858 55.87 60.8958 55.8199 61.2049C55.7697 61.5141 55.9796 61.8054 56.2888 61.8555C56.5979 61.9057 56.8892 61.6958 56.9394 61.3866Z" fill="#256035"/>
<path d="M55.0687 59.2463C55.5386 59.2463 55.9195 58.8653 55.9195 58.3954C55.9195 57.9255 55.5386 57.5445 55.0687 57.5445C54.5987 57.5445 54.2178 57.9255 54.2178 58.3954C54.2178 58.8653 54.5987 59.2463 55.0687 59.2463Z" fill="#256035"/>
<path d="M53.2073 56.8075C53.6773 56.8075 54.0582 56.4265 54.0582 55.9566C54.0582 55.4866 53.6773 55.1057 53.2073 55.1057C52.7374 55.1057 52.3564 55.4866 52.3564 55.9566C52.3564 56.4265 52.7374 56.8075 53.2073 56.8075Z" fill="#256035"/>
<path d="M51.356 54.7795C52.0091 54.509 52.3193 53.7603 52.0487 53.1072C51.7782 52.4541 51.0295 52.144 50.3764 52.4145C49.7233 52.685 49.4131 53.4337 49.6837 54.0868C49.9542 54.7399 50.7029 55.0501 51.356 54.7795Z" fill="#256035"/>
<path d="M46.8461 49.6443C47.3459 49.1444 47.3459 48.334 46.8461 47.8341C46.3462 47.3343 45.5358 47.3343 45.0359 47.8341C44.5361 48.334 44.5361 49.1444 45.0359 49.6443C45.5358 50.1441 46.3462 50.1441 46.8461 49.6443Z" fill="#256035"/>
<path d="M44.2315 47.5947C44.8846 47.3242 45.1947 46.5755 44.9242 45.9224C44.6537 45.2693 43.905 44.9592 43.2519 45.2297C42.5988 45.5002 42.2886 46.2489 42.5592 46.902C42.8297 47.5551 43.5784 47.8653 44.2315 47.5947Z" fill="#256035"/>
<path d="M38.2251 39.6279C38.8075 39.3866 39.0841 38.7189 38.8428 38.1365C38.6016 37.5541 37.9339 37.2775 37.3514 37.5187C36.769 37.76 36.4924 38.4277 36.7337 39.0101C36.9749 39.5925 37.6427 39.8691 38.2251 39.6279Z" fill="#256035"/>
<path d="M39.714 42.649C40.4209 42.649 40.994 42.0759 40.994 41.369C40.994 40.6621 40.4209 40.0891 39.714 40.0891C39.0071 40.0891 38.4341 40.6621 38.4341 41.369C38.4341 42.0759 39.0071 42.649 39.714 42.649Z" fill="#256035"/>
<path d="M41.7057 45.4239C42.4126 45.4239 42.9857 44.8508 42.9857 44.1439C42.9857 43.437 42.4126 42.864 41.7057 42.864C40.9988 42.864 40.4258 43.437 40.4258 44.1439C40.4258 44.8508 40.9988 45.4239 41.7057 45.4239Z" fill="#256035"/>
<path d="M48.3068 52.4165C49.0137 52.4165 49.5868 51.8434 49.5868 51.1365C49.5868 50.4296 49.0137 49.8565 48.3068 49.8565C47.5999 49.8565 47.0269 50.4296 47.0269 51.1365C47.0269 51.8434 47.5999 52.4165 48.3068 52.4165Z" fill="#256035"/>
<path d="M36.2628 36.5688C36.8411 36.5688 37.3099 36.1 37.3099 35.5218C37.3099 34.9435 36.8411 34.4747 36.2628 34.4747C35.6846 34.4747 35.2158 34.9435 35.2158 35.5218C35.2158 36.1 35.6846 36.5688 36.2628 36.5688Z" fill="#256035"/>
<path d="M35.6948 33.331C36.0697 32.9562 36.0697 32.3484 35.6948 31.9736C35.32 31.5987 34.7123 31.5987 34.3374 31.9736C33.9626 32.3484 33.9626 32.9562 34.3374 33.331C34.7123 33.7058 35.32 33.7058 35.6948 33.331Z" fill="#256035"/>
<path d="M34.8641 29.6562C34.9362 29.2122 34.6346 28.7937 34.1906 28.7217C33.7465 28.6496 33.3281 28.9511 33.256 29.3952C33.1839 29.8392 33.4855 30.2577 33.9295 30.3297C34.3736 30.4018 34.792 30.1003 34.8641 29.6562Z" fill="#256035"/>
<path d="M33.3885 27.4032C33.7274 27.4032 34.0021 27.1285 34.0021 26.7896C34.0021 26.4508 33.7274 26.176 33.3885 26.176C33.0496 26.176 32.7749 26.4508 32.7749 26.7896C32.7749 27.1285 33.0496 27.4032 33.3885 27.4032Z" fill="#256035"/>
<path d="M33.3812 24.1987C33.3812 24.3663 33.2456 24.5019 33.0781 24.5019C32.9105 24.5019 32.7749 24.3663 32.7749 24.1987C32.7749 24.0312 32.9105 23.8956 33.0781 23.8956C33.2456 23.8956 33.3812 24.0312 33.3812 24.1987Z" fill="#256035"/>
<path d="M40.8003 88.1276C40.8003 88.1276 30.7659 87.7784 25.2688 80.7108C25.2688 80.7108 10.2609 79.4017 0.75 90.9195C0.75 90.9195 24.2218 115.758 52.4342 93.0716C52.4342 93.0716 72.0957 75.0388 93.2695 90.8613C93.2695 90.8613 79.9885 105.674 62.2972 93.1724C62.2972 93.1724 67.1337 88.3068 78.8621 88.669C78.8621 88.669 67.5579 85.9749 59.1818 93.1878C59.1818 93.1878 77.3308 112.617 100.25 90.6284C100.25 90.6284 75.4406 68.2332 45.941 90.5122C45.941 90.5122 25.5599 106.451 7.1779 90.0468C7.1779 90.0468 12.0934 83.3283 24.338 82.9501C24.338 82.9501 32.598 89.6109 40.8003 88.1276Z" fill="#256035"/>
</svg>
