<svg width="109" height="109" viewBox="0 0 109 109" fill="none" xmlns="http://www.w3.org/2000/svg">
<g filter="url(#filter0_d_669_1591)">
<ellipse cx="41.4211" cy="41.4414" rx="41.4211" ry="41.4414" transform="matrix(-1 0 0 1 95.8422 13)" fill="white"/>
</g>
<path d="M67.3938 44.4126C66.9788 42.0188 64.799 40.6254 62.4487 41.432C60.2291 42.1937 56.9767 43.536 52.4064 45.9015C47.921 48.2229 44.705 50.2159 42.4889 51.741C40.0261 53.4359 40.0261 56.5962 42.4889 58.2911C44.705 59.8161 47.921 61.8091 52.4064 64.1306C56.9767 66.496 60.2291 67.8383 62.4487 68.6001C64.799 69.4066 66.9788 68.0132 67.3938 65.6195C67.8278 63.1166 68.2558 59.5094 68.2558 55.016C68.2558 50.5227 67.8278 46.9154 67.3938 44.4126Z" fill="#256035"/>
<defs>
<filter id="filter0_d_669_1591" x="0.730122" y="0.730122" width="107.382" height="107.423" filterUnits="userSpaceOnUse" color-interpolation-filters="sRGB">
<feFlood flood-opacity="0" result="BackgroundImageFix"/>
<feColorMatrix in="SourceAlpha" type="matrix" values="0 0 0 0 0 0 0 0 0 0 0 0 0 0 0 0 0 0 127 0" result="hardAlpha"/>
<feOffset/>
<feGaussianBlur stdDeviation="6.13494"/>
<feComposite in2="hardAlpha" operator="out"/>
<feColorMatrix type="matrix" values="0 0 0 0 0 0 0 0 0 0 0 0 0 0 0 0 0 0 0.02 0"/>
<feBlend mode="normal" in2="BackgroundImageFix" result="effect1_dropShadow_669_1591"/>
<feBlend mode="normal" in="SourceGraphic" in2="effect1_dropShadow_669_1591" result="shape"/>
</filter>
</defs>
</svg>
