<svg width="67" height="81" viewBox="0 0 67 81" fill="none" xmlns="http://www.w3.org/2000/svg">
<path d="M4.68656 66.4948C3.64315 66.1396 2.8461 65.7893 2.26305 65.495C5.21985 61.5073 6.13681 56.2494 6.21786 50.709C6.2898 45.7912 5.69856 40.3991 5.12168 35.1379C4.96877 33.7433 4.81686 32.3579 4.67859 30.993C4.00803 24.374 3.65717 18.2411 4.81495 13.3409C5.38737 10.9182 6.31573 8.8611 7.70771 7.2134C9.05264 5.62141 10.8871 4.34369 13.4127 3.50415H46.3946C45.742 4.02463 45.1481 4.59073 44.61 5.20041C42.784 7.26922 41.6701 9.76066 41.0324 12.4871C39.7723 17.8743 40.3269 24.4145 41.1185 30.9931C41.2691 32.2444 41.4285 33.4987 41.5877 34.7521C42.2795 40.1962 42.9688 45.6214 42.9225 50.692C42.8669 56.7808 41.7433 62.0634 38.4976 66.0158C38.3485 66.0762 38.1341 66.1583 37.8502 66.256C37.1697 66.4901 36.0893 66.8137 34.5508 67.1412C31.4738 67.7962 26.5634 68.4668 19.3562 68.4668C12.197 68.4668 7.52399 67.4607 4.68656 66.4948ZM38.7594 65.9032C38.7605 65.9027 38.7602 65.9029 38.7585 65.9036L38.7594 65.9032Z" stroke="#F0FFF5" stroke-width="3"/>
<path d="M63.525 29.6988H42.6264C38.6336 7.01621 48.7147 1.83407 54.6049 2.004C66.8384 3.90696 65.8472 21.2601 63.525 29.6988Z" stroke="#F0FFF5" stroke-width="3" stroke-linecap="round" stroke-linejoin="round"/>
<path d="M17.3974 18.6472H27.9061" stroke="#F0FFF5" stroke-width="3" stroke-linecap="round" stroke-linejoin="round"/>
<path d="M18.756 35.9849H29.2647" stroke="#F0FFF5" stroke-width="3" stroke-linecap="round" stroke-linejoin="round"/>
<path d="M18.756 53.3234H29.2647" stroke="#F0FFF5" stroke-width="3" stroke-linecap="round" stroke-linejoin="round"/>
<circle cx="44.0247" cy="64.88" r="15.2605" fill="#F0FFF5"/>
<path d="M42.6547 65.7031C42.8902 65.3704 42.8905 64.9254 42.6554 64.5925L39.8174 60.5732C39.3774 59.9502 39.823 59.0901 40.5858 59.0901C40.8965 59.0901 41.1871 59.2435 41.3624 59.5001L43.476 62.5939C43.8587 63.1541 44.6855 63.1527 45.0663 62.5912L47.164 59.4982C47.3372 59.243 47.6256 59.0901 47.934 59.0901C48.6885 59.0901 49.1292 59.9408 48.694 60.5571L45.8457 64.591C45.6101 64.9247 45.6109 65.3708 45.8477 65.7036L48.9075 70.003C49.349 70.6234 48.9055 71.4834 48.144 71.4834C47.8343 71.4834 47.5445 71.3304 47.3699 71.0745L45.0623 67.6921C44.6819 67.1345 43.8606 67.1319 43.4766 67.687L41.1289 71.0818C40.9549 71.3333 40.6686 71.4834 40.3628 71.4834C39.6069 71.4834 39.1658 70.6306 39.6026 70.0138L42.6547 65.7031Z" fill="#256035"/>
</svg>
