<svg width="78" height="78" viewBox="0 0 78 78" fill="none" xmlns="http://www.w3.org/2000/svg">
<path d="M3.20323 65.1421C3.96944 70.3425 8.42208 74.1041 13.6602 74.5464C21.8263 75.2362 30.3067 76 39.0061 76C47.8313 76 56.3757 75.5145 64.663 74.7483C69.7586 74.2776 73.9447 70.4787 74.705 65.4186C75.5079 60.0749 76.0123 54.5785 76.0123 48.9317C76.0123 43.2285 75.5493 37.6264 74.734 32.2312C73.9838 27.2699 69.8652 23.5784 64.869 23.1082C56.4985 22.3204 47.9149 21.8633 39.0061 21.8633C30.069 21.8633 21.3302 22.2945 12.9672 23.0943C8.057 23.5638 4.00532 27.1749 3.26152 32.0511C2.43073 37.4973 1.99994 43.1701 1.99994 48.9317C1.99994 54.4836 2.42854 59.8837 3.20323 65.1421Z" stroke="#F0FFF5" stroke-width="2.80173" stroke-linejoin="round"/>
<path d="M24.7742 75.4269V22.3534" stroke="#F0FFF5" stroke-width="2.80173" stroke-linecap="round" stroke-linejoin="round"/>
<path d="M53.2383 75.5655V22.3534" stroke="#F0FFF5" stroke-width="2.80173" stroke-linecap="round" stroke-linejoin="round"/>
<path d="M55.908 22.2609V18.9018C55.908 14.4192 54.1273 10.1202 50.9576 6.95044C47.7879 3.7807 43.4888 2 39.0061 2C34.5235 2 30.2245 3.7807 27.0547 6.95044C23.885 10.1202 22.1043 14.4192 22.1043 18.9018V22.2609" stroke="#F0FFF5" stroke-width="2.80173" stroke-linecap="round" stroke-linejoin="round"/>
</svg>
