<svg width="78" height="77" viewBox="0 0 78 77" fill="none" xmlns="http://www.w3.org/2000/svg">
<path d="M48.9134 73.6444C39.8044 76.1294 29.7446 75.1179 20.9216 70.024C3.38025 59.8963 -2.62987 37.4666 7.49763 19.9252L10.7307 14.3254" stroke="#F0FFF5" stroke-width="2.81204" stroke-linecap="round" stroke-linejoin="round"/>
<path d="M29.9283 2.79469C38.9513 0.421012 48.8773 1.46811 57.5957 6.50166C75.137 16.6292 81.1474 39.0592 71.0197 56.6006L66.8399 63.8406" stroke="#F0FFF5" stroke-width="2.81204" stroke-linecap="round" stroke-linejoin="round"/>
<path d="M75.7251 64.3419L65.3983 66.3261L61.9532 56.3909" stroke="#F0FFF5" stroke-width="2.81204" stroke-linecap="round" stroke-linejoin="round"/>
<path d="M1.93939 13.3847L12.4424 11.3668L15.9463 21.4716" stroke="#F0FFF5" stroke-width="2.81204" stroke-linecap="round" stroke-linejoin="round"/>
<path d="M39.2572 54.8748C33.2389 51.248 23.2731 44.6868 23.2731 36.5044C23.2731 31.1788 27.5903 26.8616 32.9159 26.8616C35.3438 26.8616 37.562 27.7588 39.2572 29.2398C40.9525 27.7588 43.1707 26.8616 45.5986 26.8616C50.9242 26.8616 55.2415 31.1788 55.2415 36.5044C55.2415 44.6868 45.2757 51.248 39.2572 54.8748Z" stroke="#F0FFF5" stroke-width="3" stroke-linecap="round" stroke-linejoin="round"/>
</svg>
