<svg width="80" height="82" viewBox="0 0 80 82" fill="none" xmlns="http://www.w3.org/2000/svg">
<path d="M77.9395 49.1977C77.9376 47.1548 77.3979 45.1483 76.3751 43.3798C75.3524 41.6113 73.8822 40.143 72.112 39.1225C70.3423 38.1019 68.3355 37.5649 66.2925 37.5654C64.2495 37.5659 63.2998 38.107 61.5308 39.1285L60.4731 25.5719C60.4731 24.0277 59.8597 22.5468 58.7679 21.455C57.676 20.3631 56.1951 19.7498 54.651 19.7498L42.7212 18.467C43.7478 16.6972 44.3079 15.9711 44.311 13.9251C44.3141 11.879 43.7781 9.86833 42.757 8.09535C41.7358 6.32244 40.2654 4.84986 38.4941 3.82594C36.7227 2.80204 34.7128 2.26294 32.6668 2.26294C30.6208 2.26294 28.6109 2.80204 26.8395 3.82594C25.0682 4.84986 23.5978 6.32244 22.5766 8.09535C21.5555 9.86833 21.0194 11.879 21.0226 13.9251C21.0257 15.9711 21.55 16.6972 22.5766 18.467L8.07405 19.7498C6.52996 19.7498 5.04908 20.3631 3.9572 21.455C2.86533 22.5468 2.25195 24.0277 2.25195 25.5719L2.43362 32.2133C2.51363 35.1382 5.38292 37.2146 8.22693 37.9028C10.2873 38.4013 12.2119 39.4419 13.734 40.964C15.9177 43.1477 17.1445 46.1095 17.1445 49.1977C17.1445 52.286 15.9177 55.2477 13.734 57.4314C12.2119 58.9535 10.2873 59.9943 8.22693 60.4928C5.38124 61.1811 2.50932 63.2553 2.42462 66.1819L2.25195 72.1485C2.25195 73.693 2.86533 75.1737 3.9572 76.2657C12.4438 81.8761 51.4239 81.307 58.7679 76.2657C59.8597 75.1737 60.4731 73.693 60.4731 72.1485L61.5308 59.273C63.2998 60.2944 64.2495 60.8292 66.2925 60.8298C68.3355 60.8304 70.3423 60.2938 72.112 59.273C73.8822 58.2524 75.3524 56.7841 76.3751 55.0157C77.3979 53.2472 77.9376 51.2407 77.9395 49.1977Z" stroke="#F0FFF5" stroke-width="3" stroke-linecap="round" stroke-linejoin="round"/>
</svg>
