<svg width="78" height="78" viewBox="0 0 78 78" fill="none" xmlns="http://www.w3.org/2000/svg">
<path d="M16.2623 24.8251C23.5663 24.8251 27.6749 20.7166 27.6749 13.4126C27.6749 6.10853 23.5663 2 16.2623 2C8.95826 2 4.84973 6.10853 4.84973 13.4126C4.84973 20.7166 8.95826 24.8251 16.2623 24.8251Z" stroke="#F0FFF5" stroke-width="3" stroke-linecap="round" stroke-linejoin="round"/>
<path d="M61.9148 24.8251C69.2184 24.8251 73.3269 20.7166 73.3269 13.4126C73.3269 6.10853 69.2184 2 61.9148 2C54.6105 2 50.5021 6.10853 50.5021 13.4126C50.5021 20.7166 54.6105 24.8251 61.9148 24.8251Z" stroke="#F0FFF5" stroke-width="3" stroke-linecap="round" stroke-linejoin="round"/>
<path d="M16.2658 76.1819C2.00014 76.1819 2.00006 56.7804 2.00006 39.0908C13.3947 35.6575 19.6314 35.7976 30.5314 39.0908C30.5314 56.7804 30.5315 76.1819 16.2658 76.1819Z" stroke="#F0FFF5" stroke-width="3" stroke-linecap="round" stroke-linejoin="round"/>
<path d="M61.9146 36.2375C47.649 36.2375 47.649 56.2679 47.649 73.9574C58.7925 76.7496 65.038 76.8101 76.1806 73.9574C76.1806 56.2679 76.1806 36.2375 61.9146 36.2375Z" stroke="#F0FFF5" stroke-width="3" stroke-linecap="round" stroke-linejoin="round"/>
</svg>
