<svg width="22" height="22" viewBox="0 0 22 22" fill="none" xmlns="http://www.w3.org/2000/svg">
<path d="M7.30047 1.67081C6.08311 0.650568 4.26929 0.79722 3.34562 2.08941C3.09891 2.43454 2.80656 2.84621 2.3016 3.47786C0.564534 5.65075 0.564539 8.79703 2.3112 10.9622C3.60062 12.5606 4.95255 14.1734 6.46385 15.6847C7.97515 17.196 9.588 18.5479 11.1864 19.8374C13.3516 21.5841 16.4979 21.5841 18.6707 19.847C19.3446 19.3082 19.7651 19.0147 20.122 18.7598C21.3702 17.8683 21.5451 16.1199 20.5705 14.9356C19.8003 13.9997 18.9426 13.1068 18.1153 12.2353C17.4563 11.541 16.3556 11.4957 15.6076 12.0931C15.4064 12.2537 15.1566 12.4655 14.6501 12.9403C12.1647 11.4634 10.6583 9.93862 9.2083 7.49844C9.68889 6.98582 9.90084 6.73529 10.0629 6.53217C10.6592 5.78476 10.615 4.68696 9.91658 4.03389C9.06542 3.23793 8.19917 2.42397 7.30047 1.67081Z" stroke="#F0FFF5" stroke-opacity="0.7" stroke-width="1.5" stroke-linejoin="round"/>
</svg>
