<svg width="20" height="25" viewBox="0 0 20 25" fill="none" xmlns="http://www.w3.org/2000/svg">
    <path d="M4.86492 4.00009C4.21457 4.0811 3.57142 4.16534 2.93615 4.24338C2.04932 4.35234 1.34845 5.06319 1.28572 5.95448C0.90476 11.3659 0.90476 16.4785 1.28572 21.8898C1.34847 22.7811 2.04949 23.4942 2.93986 23.5689C7.84113 23.9797 12.3229 23.9797 17.2243 23.5689C18.1147 23.4942 18.8157 22.7811 18.8784 21.8898C19.2592 16.4785 19.2592 11.3659 18.8784 5.95448C18.8157 5.06319 18.1147 4.35234 17.228 4.24338C16.5927 4.16534 15.9494 4.0811 15.2991 4.00009"
          stroke="#001C04"  stroke-width="1.5" stroke-linejoin="round"/>
    <path d="M12.569 0.996582H7.59324C6.07609 0.996582 4.84619 2.22648 4.84619 3.74364V3.74549C4.84619 5.26264 6.07609 6.49254 7.59324 6.49254H12.569C14.0862 6.49254 15.3161 5.26264 15.3161 3.74549V3.74364C15.3161 2.22648 14.0862 0.996582 12.569 0.996582Z"
          stroke="#001C04"  stroke-width="1.5" stroke-linejoin="round"/>
</svg>
