<svg width="64" height="64" viewBox="0 0 64 64" fill="none" xmlns="http://www.w3.org/2000/svg">
<path d="M15.9921 41.5906C16.33 43.8841 18.2937 45.543 20.6038 45.7381C24.2052 46.0423 27.9453 46.3791 31.7819 46.3791C35.6739 46.3791 39.4422 46.165 43.097 45.8271C45.3443 45.6195 47.1904 43.9441 47.5257 41.7125C47.8798 39.3559 48.1023 36.9318 48.1023 34.4415C48.1023 31.9262 47.8981 29.4556 47.5385 27.0763C47.2077 24.8882 45.3913 23.2602 43.1879 23.0528C39.4963 22.7054 35.7108 22.5038 31.7819 22.5038C27.8404 22.5038 23.9864 22.694 20.2982 23.0467C18.1327 23.2538 16.3458 24.8463 16.0178 26.9968C15.6514 29.3987 15.4614 31.9005 15.4614 34.4415C15.4614 36.89 15.6504 39.2715 15.9921 41.5906Z" stroke="#F0FFF5" stroke-width="2" stroke-linejoin="round"/>
<path d="M25.5051 46.1265V22.7201" stroke="#F0FFF5" stroke-width="2" stroke-linejoin="round"/>
<path d="M38.0591 46.1876V22.7201" stroke="#F0FFF5" stroke-width="2" stroke-linejoin="round"/>
<path d="M39.2367 22.6791V21.1977C39.2367 19.2208 38.4514 17.3248 37.0535 15.9269C35.6555 14.529 33.7596 13.7437 31.7826 13.7437C29.8057 13.7437 27.9098 14.529 26.5118 15.9269C25.114 17.3248 24.3286 19.2208 24.3286 21.1977V22.6791" stroke="#F0FFF5" stroke-width="2" stroke-linejoin="round"/>
</svg>
