<svg width="64" height="65" viewBox="0 0 64 65" fill="none" xmlns="http://www.w3.org/2000/svg">
    <path d="M16.6452 23.0375C16.457 25.5857 16.3206 28.6825 16.3206 31.1606C16.3206 34.5773 16.7182 38.8241 17.0499 41.7728C17.3051 44.0414 18.5687 46.0799 20.6526 47.0125C23.2146 48.1594 27.1374 49.4701 31.6834 49.4701C36.2294 49.4701 40.1522 48.1594 42.7141 47.0125C44.7982 46.0799 46.0617 44.0414 46.3168 41.7728C46.6487 38.8241 47.0463 34.5773 47.0463 31.1606C47.0463 28.5269 46.8922 25.9338 46.6856 23.3923"
          stroke="#F0FFF5"  stroke-width="2" stroke-linejoin="round"/>
    <path d="M31.6825 29.3546C41.3169 29.3546 46.7362 26.9554 46.7362 22.6902C46.7362 18.425 41.3169 16.0258 31.6825 16.0258C22.0482 16.0258 16.6289 18.425 16.6289 22.6902C16.6289 26.9554 22.0482 29.3546 31.6825 29.3546Z"
          stroke="#F0FFF5"  stroke-width="2" stroke-linejoin="round"/>
    <path d="M16.448 35.4417C26.0027 40.2997 37.3762 40.322 46.9196 35.4417" stroke="#F0FFF5"
          stroke-width="2" stroke-linejoin="round"/>
</svg>
