<svg width="26" height="28" viewBox="0 0 26 28" fill="none" xmlns="http://www.w3.org/2000/svg">
    <path d="M1.70788 6.77887C1.56654 8.69236 1.46411 11.0178 1.46411 12.8787C1.46411 15.4443 1.76268 18.6333 2.01175 20.8475C2.20342 22.551 3.15227 24.0818 4.71709 24.782C6.64096 25.6433 9.58662 26.6275 13.0003 26.6275C16.4139 26.6275 19.3596 25.6433 21.2834 24.782C22.8483 24.0818 23.7972 22.551 23.9887 20.8475C24.2379 18.6333 24.5365 15.4443 24.5365 12.8787C24.5365 10.9009 24.4208 8.95375 24.2656 7.04532"
          stroke="#001C04"  stroke-width="1.50183" stroke-linejoin="round"/>
    <path d="M12.9995 11.5227C20.2341 11.5227 24.3036 9.72111 24.3036 6.51829C24.3036 3.31549 20.2341 1.51392 12.9995 1.51392C5.76499 1.51392 1.69556 3.31549 1.69556 6.51829C1.69556 9.72111 5.76499 11.5227 12.9995 11.5227Z"
          stroke="#001C04"  stroke-width="1.50183" stroke-linejoin="round"/>
    <path d="M1.55957 16.0938C8.73433 19.7417 17.2749 19.7585 24.4411 16.0938" stroke="#001C04"
          stroke-width="1.50183" stroke-linejoin="round"/>
</svg>
