<svg width="27" height="27" viewBox="0 0 27 27" fill="none" xmlns="http://www.w3.org/2000/svg">
    <path d="M1.64312 21.7284C1.89686 23.4506 3.37143 24.6963 5.10613 24.8428C7.81046 25.0713 10.6189 25.3242 13.4999 25.3242C16.4225 25.3242 19.2521 25.1634 21.9966 24.9097C23.6841 24.7538 25.0704 23.4957 25.3222 21.82C25.5881 20.0503 25.7551 18.2301 25.7551 16.3601C25.7551 14.4713 25.6018 12.6161 25.3318 10.8294C25.0833 9.18636 23.7194 7.96385 22.0648 7.80816C19.2928 7.54727 16.4502 7.39587 13.4999 7.39587C10.5402 7.39587 7.64618 7.53868 4.87661 7.80355C3.25053 7.95905 1.90875 9.15492 1.66242 10.7698C1.38729 12.5734 1.24463 14.452 1.24463 16.3601C1.24463 18.1987 1.38657 19.987 1.64312 21.7284Z"
          stroke="#001C04"  stroke-width="1.50183" stroke-linejoin="round"/>
    <path d="M8.78662 25.1344V7.55823" stroke="#001C04"  stroke-width="1.50183"
          stroke-linejoin="round"/>
    <path d="M18.2136 25.1803V7.55823" stroke="#001C04"  stroke-width="1.50183"
          stroke-linejoin="round"/>
    <path d="M19.0978 7.52737V6.41497C19.0978 4.93047 18.508 3.50677 17.4583 2.45705C16.4086 1.40734 14.9849 0.817627 13.5004 0.817627C12.0159 0.817627 10.5922 1.40734 9.54249 2.45705C8.4928 3.50677 7.90308 4.93047 7.90308 6.41497V7.52737"
          stroke="#001C04"  stroke-width="1.50183" stroke-linejoin="round"/>
</svg>
