<svg width="64" height="64" viewBox="0 0 64 64" fill="none" xmlns="http://www.w3.org/2000/svg">
    <path d="M48.1623 35.4326C48.1615 34.5257 47.9219 33.635 47.4679 32.85C47.0139 32.065 46.3613 31.4132 45.5754 30.9602C44.7899 30.5071 43.899 30.2687 42.9921 30.269C42.0853 30.2692 41.6637 30.5094 40.8784 30.9628L40.4089 24.945C40.4089 24.2595 40.1366 23.6021 39.6519 23.1175C39.1672 22.6328 38.5099 22.3605 37.8244 22.3605L32.5287 21.7911C32.9844 21.0055 33.2331 20.6831 33.2344 19.7749C33.2358 18.8667 32.9979 17.9741 32.5446 17.1871C32.0913 16.4001 31.4386 15.7464 30.6523 15.2918C29.866 14.8373 28.9738 14.598 28.0655 14.598C27.1573 14.598 26.2651 14.8373 25.4787 15.2918C24.6924 15.7464 24.0397 16.4001 23.5864 17.1871C23.1331 17.9741 22.8952 18.8667 22.8966 19.7749C22.898 20.6831 23.1307 21.0055 23.5864 21.7911L17.1487 22.3605C16.4632 22.3605 15.8059 22.6328 15.3212 23.1175C14.8365 23.6021 14.5642 24.2595 14.5642 24.945L14.6449 27.8931C14.6804 29.1915 15.9541 30.1132 17.2165 30.4187C18.1311 30.64 18.9855 31.102 19.6612 31.7776C20.6305 32.747 21.1751 34.0617 21.1751 35.4326C21.1751 36.8035 20.6305 38.1182 19.6612 39.0876C18.9855 39.7632 18.1311 40.2252 17.2165 40.4466C15.9533 40.7521 14.6785 41.6728 14.6409 42.9719L14.5642 45.6206C14.5642 46.3062 14.8365 46.9635 15.3212 47.4482C19.0884 49.9387 36.3919 49.6861 39.6519 47.4482C40.1366 46.9635 40.4089 46.3062 40.4089 45.6206L40.8784 39.9051C41.6637 40.3585 42.0853 40.5959 42.9921 40.5961C43.899 40.5964 44.7899 40.3582 45.5754 39.9051C46.3613 39.452 47.0139 38.8003 47.4679 38.0152C47.9219 37.2302 48.1615 36.3395 48.1623 35.4326Z"
          stroke="#F0FFF5"  stroke-width="2" stroke-linecap="round" stroke-linejoin="round"/>
</svg>
