<svg width="64" height="65" viewBox="0 0 64 65" fill="none" xmlns="http://www.w3.org/2000/svg">
    <path d="M23.2738 19.1718C22.2484 19.2995 21.2342 19.4323 20.2326 19.5554C18.8342 19.7272 17.7291 20.848 17.6302 22.2534C17.0295 30.786 17.0295 38.8473 17.6302 47.3798C17.7292 48.7852 18.8345 49.9096 20.2384 50.0275C27.9666 50.6752 35.0334 50.6752 42.7618 50.0275C44.1657 49.9096 45.271 48.7852 45.37 47.3798C45.9704 38.8473 45.9704 30.786 45.37 22.2534C45.271 20.848 44.1657 19.7272 42.7676 19.5554C41.7659 19.4323 40.7516 19.2995 39.7262 19.1718"
          stroke="#F0FFF5" stroke-width="2" stroke-linejoin="round"/>
    <path d="M35.4216 14.4362H27.5759C25.1837 14.4362 23.2444 16.3755 23.2444 18.7677V18.7706C23.2444 21.1628 25.1837 23.1021 27.5759 23.1021H35.4216C37.8138 23.1021 39.7531 21.1628 39.7531 18.7706V18.7677C39.7531 16.3755 37.8138 14.4362 35.4216 14.4362Z"
          stroke="#F0FFF5" stroke-width="2" stroke-linejoin="round"/>
</svg>
