<svg width="26" height="28" viewBox="0 0 26 28" fill="none" xmlns="http://www.w3.org/2000/svg">
    <path d="M25.148 16.6178C25.1474 15.962 24.9741 15.3179 24.6458 14.7503C24.3175 14.1826 23.8456 13.7113 23.2773 13.3837C22.7092 13.056 22.0651 12.8837 21.4092 12.8838C20.7534 12.884 20.4486 13.0577 19.8807 13.3856L19.5412 9.03387C19.5412 8.53819 19.3443 8.06282 18.9938 7.71235C18.6433 7.36185 18.168 7.16495 17.6723 7.16495L13.8428 6.75318C14.1723 6.18507 14.3521 5.95198 14.3531 5.29521C14.3541 4.63843 14.1821 3.99299 13.8543 3.42386C13.5265 2.85475 13.0545 2.38204 12.4859 2.05336C11.9173 1.72469 11.2721 1.55164 10.6153 1.55164C9.95854 1.55164 9.31335 1.72469 8.74472 2.05336C8.17611 2.38204 7.70413 2.85475 7.37633 3.42386C7.04853 3.99299 6.87647 4.63843 6.87747 5.29521C6.87849 5.95198 7.04679 6.18507 7.37633 6.75318L2.72096 7.16495C2.2253 7.16495 1.74994 7.36185 1.39944 7.71235C1.04895 8.06282 0.852051 8.53819 0.852051 9.03387L0.910368 11.1658C0.936051 12.1047 1.8571 12.7712 2.77003 12.9921C3.43141 13.1522 4.04923 13.4862 4.53784 13.9748C5.23881 14.6758 5.63261 15.6265 5.63261 16.6178C5.63261 17.6092 5.23881 18.5599 4.53784 19.2609C4.04923 19.7495 3.43141 20.0835 2.77003 20.2436C1.85656 20.4645 0.934665 21.1303 0.907478 22.0698L0.852051 23.9851C0.852051 24.4809 1.04895 24.9562 1.39944 25.3067C4.12366 27.1077 16.6364 26.925 18.9938 25.3067C19.3443 24.9562 19.5412 24.4809 19.5412 23.9851L19.8807 19.852C20.4486 20.1799 20.7534 20.3516 21.4092 20.3518C22.0651 20.352 22.7092 20.1797 23.2773 19.852C23.8456 19.5244 24.3175 19.0531 24.6458 18.4854C24.9741 17.9177 25.1474 17.2736 25.148 16.6178Z"
          stroke="#001C04"  stroke-width="1.5" stroke-linecap="round" stroke-linejoin="round"/>
</svg>
