<svg width="17" height="17" viewBox="0 0 17 17" fill="none" xmlns="http://www.w3.org/2000/svg">
<path d="M5.27346 0.561466C4.25454 -0.292472 2.73638 -0.169725 1.96327 0.911828C1.75678 1.20071 1.51208 1.54527 1.08943 2.07395C-0.364483 3.89265 -0.364478 6.52607 1.09747 8.33833C2.1767 9.67615 3.30827 11.0261 4.57322 12.2911C5.83816 13.556 7.18811 14.6875 8.52594 15.7668C10.3382 17.2288 12.9717 17.2288 14.7903 15.7749C15.3544 15.3239 15.7062 15.0781 16.0049 14.8649C17.0498 14.1188 17.1961 12.6553 16.3803 11.664C15.7358 10.8807 15.0179 10.1334 14.3254 9.40389C13.7737 8.82279 12.8526 8.78483 12.2265 9.28483C12.0581 9.4193 11.849 9.59655 11.4251 9.99397C9.34476 8.75779 8.08394 7.48158 6.87031 5.43916C7.27255 5.0101 7.44996 4.80043 7.58561 4.6304C8.08472 4.00482 8.04767 3.08597 7.46313 2.53935C6.75071 1.87315 6.02567 1.19185 5.27346 0.561466Z" fill="#256035"/>
</svg>
