<svg width="85" height="85" viewBox="0 0 85 85" fill="none" xmlns="http://www.w3.org/2000/svg">
<path d="M84.9995 42.4991C84.9995 55.1015 79.5153 66.4244 70.8006 74.2069C69.9326 74.98 69.0325 75.721 68.1031 76.4229C68.0417 76.4704 67.979 76.5164 67.9148 76.5667C66.1551 77.8798 64.2893 79.0618 62.3357 80.0944C61.4133 80.58 60.4713 81.0364 59.5084 81.4564C55.516 83.2021 51.2026 84.352 46.6799 84.7944L46.1105 84.8446C44.9202 84.9465 43.7145 84.9967 42.4991 84.9967C36.6437 84.9967 31.0688 83.8147 25.9948 81.6727C24.5031 81.0461 23.0574 80.3358 21.6591 79.5446C18.7691 77.9175 16.0884 75.9582 13.6686 73.7199C5.26371 65.9583 0 54.8434 0 42.4977C0 19.0258 19.0258 0 42.4977 0C65.9695 0 84.9953 19.0258 84.9953 42.4977L84.9995 42.4991Z" fill="white"/>
<path d="M59.8986 59.034C59.6586 61.3449 59.1799 63.3446 58.3119 64.694C56.8383 66.9882 50.0089 63.4158 47.0421 62.1166C46.3569 61.8166 45.7387 61.3547 45.1847 60.77C43.9009 59.415 42.9729 57.4069 42.391 55.269C41.6765 56.7315 41.7435 58.2511 41.2635 59.5392C40.9439 60.396 40.3829 61.1509 39.1898 61.7217C35.196 63.6307 35.3564 73.6711 29.1047 72.6287C23.5815 71.7091 17.4846 63.6307 23.04 46.2794C24.0154 43.2359 24.7718 39.9384 25.4263 36.6702C25.7905 34.8491 26.1226 33.0364 26.4436 31.2837C26.9138 28.7188 27.045 26.0451 27.3757 23.4481C27.5153 22.3429 27.6925 21.2502 27.9451 20.1869L28.5396 20.9L45.5796 41.3311L58.2896 21.4707C58.9845 24.7682 59.8288 37.1098 59.6781 40.2091C59.4771 44.3509 60.5447 52.8214 59.8972 59.0354L59.8986 59.034Z" fill="#731905"/>
<path d="M67.9142 76.5667C66.1545 77.8798 64.2887 79.0618 62.3351 80.0944C61.9862 77.8589 62.2932 75.488 63.6887 72.8854L65.814 70.5955V70.5927L68.577 67.6119C68.6454 67.8087 68.7124 68.0041 68.7822 68.2008V68.2064C69.4562 70.1405 70.1469 72.1486 70.7986 74.2083C69.9306 74.9814 69.0305 75.7224 68.1012 76.4243L67.9128 76.5681L67.9142 76.5667Z" fill="#C48751"/>
<path d="M59.8956 59.0342C56.8688 60.4841 53.5253 61.2879 50.0115 61.2879C48.3592 61.2879 46.7433 61.1092 45.1817 60.7701C43.8323 60.4771 42.5206 60.064 41.2605 59.5393C32.603 55.9446 26.2745 47.1713 25.4219 36.6704C25.7861 34.8493 26.1182 33.0366 26.4392 31.2838C26.9094 28.719 27.0406 26.0452 27.3713 23.4483C27.7188 22.5733 28.1082 21.7221 28.5366 20.9001L45.5767 41.3312L58.2866 21.4709C58.9815 24.7684 59.8258 37.1099 59.6751 40.2093C59.4741 44.351 60.5417 52.8215 59.8942 59.0356L59.8956 59.0342Z" fill="#510E04"/>
<path d="M68.1045 76.4229C68.0636 76.4639 68.0008 76.5118 67.9161 76.5667C66.1564 77.8798 64.2907 79.0618 62.337 80.0944C61.4146 80.58 60.4727 81.0364 59.5098 81.4564C55.5174 83.2021 51.204 84.352 46.6813 84.7944L46.1119 84.8446C44.9216 84.9465 43.7159 84.9967 42.5004 84.9967C36.645 84.9967 31.0701 83.8147 25.9962 81.6727C24.5044 81.0461 23.0587 80.3358 21.6605 79.5446C18.1327 69.2083 18.2374 66.2053 21.6521 64.8098C21.8544 64.7275 22.0666 64.6493 22.2898 64.5782C23.0587 64.3298 23.9644 64.133 24.9998 63.9405C25.9585 63.7632 28.0057 63.2609 30.1938 62.5366C30.2538 62.5171 30.3152 62.4947 30.3766 62.4752C30.7575 62.3482 31.1399 62.2129 31.5237 62.0719C34.5602 60.9639 37.5172 59.4722 37.9568 57.8534C37.9763 57.7864 37.9931 57.718 38.0014 57.6483L39.0843 58.5023L39.0871 58.5051L41.0352 60.0415L44.3285 62.6413L45.7156 61.2737L46.0561 60.9388L47.4376 59.5796L49.7192 57.3329L49.7611 57.2938C49.7834 57.4487 49.8294 57.6036 49.902 57.7613C50.1895 58.3879 50.8663 59.013 51.7775 59.6103C52.4627 60.061 53.2804 60.495 54.168 60.9039H54.1707C54.3201 60.9737 54.4694 61.0421 54.6215 61.109C55.075 61.3128 55.5439 61.5067 56.0197 61.6923C56.3616 61.8277 56.7105 61.9575 57.0566 62.0845C57.0929 62.0984 57.1305 62.1124 57.1668 62.1235C57.4906 62.2394 57.8101 62.3524 58.1283 62.4585C58.4786 62.5799 58.8274 62.6929 59.1665 62.7989C60.8774 63.3376 62.4054 63.7214 63.3139 63.8874C63.4436 63.9097 63.5567 63.9293 63.6585 63.9432C66.6016 64.3577 68.2943 65.4573 68.7813 68.2036V68.2092C69.1134 70.0819 70.7796 73.7464 68.1017 76.4271L68.1045 76.4229Z" fill="#C48751"/>
<path d="M57.0598 62.0831C54.0456 66.2737 49.3736 73.1296 44.3862 72.7808C39.1504 73.1464 33.8922 64.9871 30.3854 62.4766C30.3561 62.4557 30.4147 62.4976 30.3854 62.4766C33.588 61.197 37.3418 59.2154 38.768 55.449C39.7616 52.8228 40.4202 49.2001 39.0262 47.4502C39.008 47.4265 38.9885 47.4027 38.969 47.3804C38.9299 47.3344 38.8894 47.2897 38.8462 47.2465L43.9243 48.0447L49.0024 47.2465C48.9842 47.2646 48.9661 47.2841 48.948 47.3037C46.9929 49.4262 48.7847 54.7373 49.7252 57.3357C49.7657 57.446 49.8034 57.5506 49.8397 57.6511C49.8508 57.6818 49.8732 57.7181 49.9067 57.7613C50.1941 58.3907 50.8709 59.0145 51.7836 59.6117C53.179 60.5285 55.1243 61.3798 57.0598 62.0831Z" fill="#FDA271"/>
<path d="M56.0283 61.6813C53.028 65.8481 48.7146 71.5598 44.2128 71.2458C39.8059 71.5542 34.859 65.3416 31.4764 62.0232C31.1107 62.2046 30.5581 62.3483 30.1953 62.5353C33.691 65.4156 39.4026 73.3014 44.3831 72.9525C49.3705 73.3 54.1653 66.2989 57.1809 62.1083C56.8139 61.9757 56.3911 61.825 56.0283 61.6813Z" fill="#9F642F"/>
<path d="M51.7826 59.6117C50.4262 59.7093 48.9274 59.7149 47.4427 59.581C45.0759 59.3688 42.7455 58.8023 41.0821 57.6845C40.0802 57.0119 39.3406 56.2583 38.7656 55.4476C39.6141 52.7711 40.4067 49.1973 39.0238 47.4487C39.0056 47.425 38.9861 47.4013 38.9666 47.379C38.9275 47.3329 38.887 47.2883 38.8438 47.245L43.9219 48.0432L49 47.245C48.9819 47.2631 48.9637 47.2827 48.9456 47.3022C46.9905 49.4247 48.7823 54.7359 49.7229 57.3342L49.7633 57.2952C49.7843 57.4501 49.8331 57.605 49.9043 57.7599C50.1917 58.3892 50.8685 59.013 51.7812 59.6103L51.7826 59.6117Z" fill="#DE7F50"/>
<path d="M46.6836 84.7959L46.6891 84.0214L46.8873 72.5493L46.8901 72.3846L46.9013 71.8041L45.7988 71.8069L45.8212 72.6902L45.8239 72.8591L46.0863 84.0242L46.1142 84.8448L46.6836 84.7959Z" fill="#9F642F"/>
<path d="M44.8433 79.3159C44.8433 79.7024 44.5293 80.0164 44.1414 80.0164C43.7534 80.0164 43.4395 79.7024 43.4395 79.3159C43.4395 78.9293 43.7534 78.6154 44.1414 78.6154C44.5293 78.6154 44.8433 78.9293 44.8433 79.3159Z" fill="#9F642F"/>
<path d="M26.7982 80.3108C26.5108 80.6862 26.2456 81.1453 26 81.6728C24.5083 81.0462 23.0626 80.3359 21.6643 79.5447C18.7743 77.9176 16.0936 75.9583 13.6738 73.72C15.354 68.4535 17.877 64.7904 21.5875 64.5741C21.8164 64.5629 22.055 64.5629 22.295 64.5769C22.489 64.588 22.6872 64.6104 22.8867 64.6383L24.1245 69.5978V69.6006L26.7996 80.3108H26.7982Z" fill="#C48751"/>
<path d="M57.9873 32.5759C57.9873 44.0746 48.9586 53.5708 43.9224 53.3963C39.5839 53.247 29.8574 44.0746 29.8574 32.5759C29.8574 21.0772 36.1552 11.7555 43.9224 11.7555C51.6896 11.7555 57.9873 21.0772 57.9873 32.5759Z" fill="#FDA271"/>
<path d="M42.3102 34.602C42.2823 34.3061 42.2307 34.0159 42.1525 33.7368C41.5315 31.3826 39.3811 29.6425 36.8316 29.6425C36.5162 29.6425 36.2078 29.6704 35.9064 29.722C33.3066 30.1616 31.3223 32.4264 31.3223 35.1462C31.3223 38.1827 33.7923 40.6499 36.8316 40.6499C39.2053 40.6499 41.2301 39.1442 42.0032 37.0357V37.0329C42.2195 36.444 42.3381 35.809 42.3381 35.1462C42.3381 34.9606 42.3297 34.782 42.3102 34.602ZM36.8316 40.0541C34.1244 40.0541 31.9195 37.852 31.9195 35.1476C31.9195 32.6023 33.8704 30.5035 36.3571 30.262C36.512 30.2481 36.6725 30.2397 36.833 30.2397C39.5402 30.2397 41.7422 32.4418 41.7422 35.1476C41.7422 35.6151 41.6767 36.0616 41.5511 36.49V36.4928C40.965 38.5456 39.0727 40.0541 36.8316 40.0541Z" fill="#212122"/>
<path d="M52.8664 29.9578C52.2915 29.7541 51.6761 29.6425 51.0314 29.6425C48.5307 29.6425 46.4137 31.317 45.7453 33.6014C45.663 33.8889 45.5988 34.1847 45.5653 34.4889C45.5374 34.7038 45.5234 34.9229 45.5234 35.1462C45.5234 36.6379 46.1207 37.9916 47.0878 38.9837C48.0883 40.0122 49.4866 40.6499 51.03 40.6499C54.0693 40.6499 56.5393 38.1827 56.5393 35.1462C56.5393 32.753 55.0029 30.7142 52.865 29.9578H52.8664ZM51.0314 40.0541C49.6052 40.0541 48.3186 39.4428 47.4199 38.4674C46.6133 37.5911 46.1207 36.4258 46.1207 35.1462C46.1207 32.4418 48.3228 30.2383 51.03 30.2383C51.5547 30.2383 52.0612 30.3207 52.5329 30.4728C54.5089 31.1077 55.942 32.9623 55.942 35.1448C55.942 37.8492 53.7372 40.0513 51.03 40.0513L51.0314 40.0541Z" fill="#212122"/>
<path d="M42.3143 34.6047L41.7617 34.3787C42.158 33.4088 43.167 32.7711 44.2136 32.8255C45.1388 32.8743 45.8463 33.4367 46.1072 34.3312L45.5337 34.4987C45.3439 33.8498 44.8513 33.4563 44.1829 33.4214C43.5298 33.3865 42.6688 33.7437 42.3157 34.6047H42.3143Z" fill="#212122"/>
<path d="M34.2761 34.6174C34.311 34.6076 35.7706 34.9802 37.1577 35.0081C38.5448 34.9802 40.0059 34.6076 40.0394 34.6174C40.1622 34.6829 39.5621 32.0441 37.1605 32.0009C34.7589 32.0441 34.1519 34.6829 34.2747 34.6174H34.2761Z" fill="#FF6957"/>
<path d="M34.2775 34.6173C34.311 34.6047 34.9264 34.8978 35.6827 35.1336C36.1544 35.2815 36.6833 35.4057 37.1591 35.4197C37.5736 35.4071 38.0271 35.3108 38.4499 35.1908C39.29 34.948 40.0059 34.6047 40.0422 34.6173C40.084 34.641 39.7435 33.907 38.9942 33.3432C38.5378 32.9999 37.928 32.7208 37.1605 32.7139C36.3009 32.7222 35.6394 33.0711 35.1692 33.4688C34.53 34.0089 34.2398 34.6382 34.2789 34.6159L34.2775 34.6173Z" fill="white"/>
<path d="M35.1951 33.9475C35.276 34.4024 35.4504 34.8071 35.6807 35.135C36.1523 35.2829 36.6812 35.4071 37.1571 35.4211C37.5715 35.4085 38.0251 35.3122 38.4479 35.1922C38.6991 34.8559 38.8889 34.4303 38.974 33.9489C39.0103 33.7451 39.0158 33.5414 38.9921 33.346C38.5358 33.0027 37.926 32.7237 37.1585 32.7167C36.2989 32.725 35.6374 33.0739 35.1671 33.4716C35.1588 33.6279 35.1671 33.7884 35.1964 33.9475H35.1951Z" fill="#212122"/>
<path d="M37.3789 34.0243C37.3789 34.3481 37.5757 34.6104 37.8185 34.6104C38.0613 34.6104 38.2581 34.3481 38.2581 34.0243C38.2581 33.7006 38.0613 33.4382 37.8185 33.4382C37.5757 33.4382 37.3789 33.7006 37.3789 34.0243Z" fill="white"/>
<path d="M53.7588 34.7863C53.7239 34.7765 52.2643 35.1491 50.8772 35.177C49.4901 35.1491 48.029 34.7765 47.9955 34.7863C47.8727 34.8519 48.4728 32.2131 50.8744 32.1698C53.276 32.2131 53.883 34.8519 53.7602 34.7863H53.7588Z" fill="#FF6957"/>
<path d="M53.7584 34.7864C53.7249 34.7738 53.1095 35.0668 52.3531 35.3027C51.8814 35.4506 51.3526 35.5748 50.8767 35.5887C50.4623 35.5762 50.0087 35.4799 49.5859 35.3599C48.7458 35.1171 48.03 34.7738 47.9937 34.7864C47.9518 34.8087 48.2923 34.0761 49.0417 33.5123C49.498 33.169 50.1078 32.8899 50.8753 32.8829C51.7349 32.8913 52.3964 33.2402 52.8667 33.6379C53.5058 34.1779 53.796 34.8073 53.757 34.785L53.7584 34.7864Z" fill="white"/>
<path d="M52.8407 34.1151C52.7597 34.5701 52.5853 34.9747 52.3551 35.3027C51.8834 35.4506 51.3545 35.5748 50.8787 35.5887C50.4642 35.5762 50.0107 35.4799 49.5878 35.3599C49.3367 35.0236 49.1469 34.598 49.0618 34.1151C49.0255 33.9114 49.0199 33.7077 49.0436 33.5123C49.4999 33.169 50.1097 32.8899 50.8773 32.8829C51.7369 32.8913 52.3983 33.2402 52.8686 33.6379C52.877 33.7942 52.8686 33.9546 52.8393 34.1137L52.8407 34.1151Z" fill="#212122"/>
<path d="M50.6526 34.1918C50.6526 34.5156 50.4558 34.7779 50.213 34.7779C49.9702 34.7779 49.7734 34.5156 49.7734 34.1918C49.7734 33.8681 49.9702 33.6057 50.213 33.6057C50.4558 33.6057 50.6526 33.8681 50.6526 34.1918Z" fill="white"/>
<path d="M33.3516 28.3225C33.3516 28.3225 38.3236 29.7152 40.5787 28.7383C39.2418 26.6661 34.9703 28.0001 33.3516 28.3225Z" fill="#212122"/>
<path d="M54.8053 28.4466C54.8053 28.4466 49.8332 29.8393 47.5781 28.8625C48.915 26.7902 53.1865 28.1243 54.8053 28.4466Z" fill="#212122"/>
<path d="M42.2695 40.025C44.0864 42.8494 45.8461 40.6418 45.5405 39.3342C45.2865 40.0962 44.2455 41.2293 42.2695 40.025Z" fill="#FF7956"/>
<path d="M49.1845 43.5597C48.8998 44.5588 47.9286 45.9683 46.7536 46.9898C45.8563 47.7712 44.839 48.3252 43.9194 48.2959C42.8323 48.2624 41.7746 47.7042 40.8912 46.913C39.7874 45.9264 38.9543 44.5784 38.6641 43.4369C38.6641 43.4369 39.3339 43.5388 40.3596 43.6532C42.3788 43.8779 45.7768 44.1514 48.1463 43.7844C48.5203 43.7272 48.8705 43.6518 49.1831 43.5597H49.1845Z" fill="#FF6957"/>
<path d="M46.753 46.9884C45.8557 47.7698 44.8384 48.3239 43.9188 48.2946C42.8317 48.2611 41.774 47.7029 40.8906 46.9116C41.4474 45.9334 42.5415 45.2692 43.8002 45.2692C45.0589 45.2692 46.2102 45.9683 46.7516 46.987L46.753 46.9884Z" fill="#FF8888"/>
<path d="M49.0962 43.8959C47.8236 45.2844 46.2523 45.4714 44.1353 45.3583C41.7603 45.23 40.0564 45.2579 38.9414 43.6531C41.6961 43.9601 45.8643 44.3969 49.0962 43.8959Z" fill="white"/>
<path d="M49.3519 43.3781C49.296 43.3195 49.2165 43.2902 49.1174 43.3167C47.2601 43.8386 45.2296 43.7563 43.3234 43.6544C41.7898 43.5721 40.2506 43.4255 38.7309 43.1953C38.5481 43.1674 38.3695 43.3027 38.4211 43.5051C38.8468 45.0722 39.9464 46.6798 41.3837 47.6441H41.3865C41.3865 47.6441 41.3893 47.6441 41.3893 47.6468C42.1275 48.1436 42.9564 48.473 43.8258 48.5372H43.8286C43.8593 48.5427 43.89 48.5427 43.9193 48.5455C44.7705 48.593 45.5939 48.1897 46.3042 47.672L46.3069 47.6692C46.4702 47.5506 46.6223 47.4319 46.7716 47.305C46.96 47.1473 47.1359 46.984 47.2991 46.8263C48.2076 45.9583 49.0532 44.842 49.4244 43.6265C49.4607 43.5163 49.4188 43.4297 49.3519 43.3781ZM48.562 44.3954L48.5592 44.3982V44.401C48.195 45.075 47.6996 45.6862 47.1833 46.2332C47.0117 46.416 46.8275 46.6002 46.6279 46.7775C46.42 46.9659 46.1995 47.1445 45.9678 47.305C45.5953 47.5673 45.1892 47.785 44.7636 47.9134C44.7608 47.9134 44.758 47.9162 44.7552 47.9162C44.4873 47.9985 44.2109 48.0459 43.9291 48.0459H43.8872C43.583 48.0432 43.2816 47.9901 42.9941 47.8994C42.2615 47.6734 41.5903 47.2059 41.0293 46.6979C40.919 46.5988 40.8144 46.4984 40.7111 46.3965C39.9785 45.6667 39.3742 44.761 39.031 43.78V43.7772C39.0254 43.766 39.0226 43.7521 39.017 43.7409C40.446 43.9405 41.8819 44.073 43.322 44.1554C44.9966 44.2517 46.7758 44.3159 48.4448 43.9837C48.4504 43.9837 48.4532 43.9809 48.4588 43.9809H48.4643C48.4643 43.9809 48.4755 43.9781 48.4811 43.9781H48.4867C48.4867 43.9781 48.4978 43.9754 48.5034 43.9754H48.509C48.6025 43.9586 48.6974 43.9391 48.7881 43.9167C48.7853 43.9251 48.7797 43.9335 48.7769 43.9419C48.7141 44.0968 48.6388 44.2461 48.562 44.3954Z" fill="#FF0D0D"/>
<path d="M47.2118 18.2737C46.6955 18.9184 45.9043 19.5562 44.7586 20.1604C42.6961 21.2517 40.3266 22.1601 38.1287 22.929C32.3598 24.9525 30.2318 31.2307 29.7182 33.162C29.6373 33.4662 29.5954 33.6644 29.587 33.7174C29.587 33.5611 29.287 32.4112 28.9535 30.8037C28.6674 29.4194 28.359 27.6959 28.1972 25.9698C27.9795 23.6449 27.4924 21.0507 28.1734 18.7984C29.2047 15.3837 30.6029 11.3257 36.6314 10.1967C40.3726 9.49622 43.3534 10.5093 43.6743 10.6447C43.8041 10.6991 43.9339 10.7563 44.0567 10.8163C44.3707 10.967 45.1061 11.4555 45.861 12.1616C45.9769 12.2676 46.0913 12.3807 46.2057 12.4979C46.2057 12.4993 46.2057 12.5007 46.2071 12.5021C46.5169 12.8202 46.8197 13.1733 47.0849 13.5515C47.477 14.9511 47.4337 16.955 47.2104 18.2737H47.2118Z" fill="#C5300D"/>
<path d="M59.6451 27.0988C59.5558 29.1557 59.112 31.3298 58.445 33.3658C58.378 33.571 58.3082 33.7761 58.2357 33.9785C58.1519 34.2157 58.0654 34.4501 57.9747 34.6832C58.0054 33.8738 58.0012 33.0854 57.9552 32.3165C57.7542 28.8808 56.7397 25.8345 54.3591 23.0798C52.8645 21.3508 51.6044 20.2861 49.5014 19.3525C47.7334 18.5683 45.6416 17.618 44.5712 15.9169C44.5629 15.9071 44.5573 15.8959 44.5503 15.8848C44.4805 15.7745 44.4554 15.6755 44.4052 15.561L44.2656 10.9755C45.6974 10.1215 47.9594 10.0545 49.8308 10.4257C51.7872 10.815 55.1908 12.2719 56.6714 13.6185C58.8748 15.621 59.9591 19.8047 59.6423 27.1002L59.6451 27.0988Z" fill="#C5300D"/>
<path d="M59.0299 31.1065C59.4346 31.0047 59.8463 30.9865 60.2551 31.0647C62.4795 31.4875 63.7606 34.5687 63.1172 37.9485C62.4739 41.3284 60.1505 43.7244 57.9261 43.303C57.5172 43.2248 57.1404 43.0574 56.8027 42.8145L59.0313 31.1065H59.0299Z" fill="#76BCBA"/>
<path d="M56.3603 42.3973C56.264 42.9066 56.5975 43.3978 57.1083 43.4941C57.6176 43.5904 58.1102 43.2569 58.2065 42.7475L60.3123 31.6829C60.4086 31.1735 60.075 30.6823 59.5643 30.586C59.055 30.4897 58.5624 30.8232 58.4661 31.3326L56.3603 42.3973Z" fill="#030304"/>
<path d="M48.2582 48.4132C48.2582 49.0258 47.7614 49.5226 47.1474 49.5226H44.9272C44.3146 49.5226 43.8164 49.0258 43.8164 48.4132C43.8164 47.8006 44.3132 47.3038 44.9272 47.3038H47.1474C47.76 47.3038 48.2582 47.8006 48.2582 48.4132Z" fill="#030304"/>
<path d="M48.0449 48.9701C47.7184 48.9701 47.3876 48.9575 47.0527 48.9338L47.1016 48.2528C52.7407 48.6561 56.6759 45.533 57.3694 40.1033L58.0476 40.1898C57.6709 43.1398 56.3842 45.5107 54.3273 47.0429C52.6248 48.3114 50.4702 48.9687 48.0463 48.9687L48.0449 48.9701Z" fill="#030304"/>
<path d="M62.3369 80.0958C61.4145 80.5814 60.4725 81.0377 59.5096 81.4578C59.031 75.7084 58.7031 69.786 58.3109 64.6912V64.6884C58.2523 63.9237 58.1923 63.1799 58.1281 62.4556C58.0779 61.8891 58.029 61.3393 57.976 60.8034V60.8006C57.9649 60.6959 57.9565 60.5941 57.9453 60.488C58.904 60.0038 59.3157 59.5628 59.8906 59.0898C60.192 58.8442 60.5367 58.5902 61.0321 58.3195C61.1926 58.6753 61.3531 59.0493 61.5191 59.4358C61.5191 59.4386 61.5191 59.4414 61.5219 59.4442C62.0968 60.795 62.7011 62.3007 63.3151 63.8846C64.158 66.0532 65.012 68.3613 65.8158 70.5926V70.5954C66.5791 72.7151 67.2964 74.7651 67.916 76.5666C66.1563 77.8798 64.2905 79.0617 62.3369 80.0944V80.0958Z" fill="#FDA271"/>
<path d="M61.5804 51.6562C61.5455 51.9311 61.4855 52.1335 61.4046 52.2814C61.1827 52.6875 60.8073 52.6777 60.3719 52.6233C60.2463 52.6066 60.1138 52.5884 59.9798 52.5745C59.8388 52.5591 59.6937 52.5507 59.5486 52.5591C59.1509 52.58 58.7504 52.728 58.4043 53.2247L58.8578 47.2326C58.9053 47.1377 58.9583 47.0247 59.0141 46.8991C59.0323 46.8572 59.0518 46.8139 59.0699 46.7693C59.0811 46.7428 59.0923 46.7163 59.1034 46.6884C59.1886 46.4846 59.2793 46.2572 59.3672 46.0157C59.543 45.5399 59.716 45.0096 59.8444 44.5058C59.9212 44.2058 59.984 43.9156 60.0203 43.6518C60.023 43.6365 60.0258 43.6225 60.0258 43.6072C60.0384 43.5179 60.0482 43.4313 60.0537 43.349C60.1054 42.6275 59.7286 40.6641 59.6002 39.1472C59.6002 39.143 59.6002 39.1389 59.6002 39.1361C59.5653 38.7188 59.5486 38.3351 59.5653 38.0211C59.5904 37.5717 59.6812 37.2661 59.8821 37.2047C61.8037 36.9494 62.1763 46.9661 61.579 51.6576L61.5804 51.6562Z" fill="#FDA271"/>
<path d="M56.7299 53.3615C56.4494 54.7779 56.5764 56.2543 56.9197 57.6246C57.1932 58.7145 57.549 59.8183 57.9914 60.8314C58.1491 60.7588 60.7977 60.9221 61.7508 60.5314C61.7787 60.5202 60.9819 57.7153 61.2317 55.2132C61.3545 53.9824 61.7955 52.0358 61.5694 50.7645C61.335 49.4513 60.0651 48.3224 59.3883 47.1977C58.9068 46.3967 58.4073 44.8407 57.9928 44.3188C56.7997 42.8145 57.8351 48.7397 57.8979 49.4625C58.0082 50.7282 56.9964 52.0092 56.7285 53.3628L56.7299 53.3615Z" fill="#FDA271"/>
<path d="M61.4035 52.28C61.3155 53.215 61.1913 54.0592 61.0616 54.6704L60.3708 52.6219L60.1699 52.0274L59.14 48.9755C59.1707 48.4843 59.1554 47.6219 59.0688 46.7679C59.066 46.7302 59.0619 46.6953 59.0577 46.6591C59.0507 46.5865 59.0423 46.5153 59.0339 46.4428C59.0339 46.4428 59.0339 46.4414 59.0339 46.4386C58.9656 45.879 58.8665 45.3417 58.7269 44.9343C58.339 43.7942 57.1863 41.4944 57.6999 41.0479L57.7055 41.0423C58.0362 40.8385 58.413 41.059 58.7925 41.5084C58.84 41.5628 58.886 41.6214 58.9321 41.6828C59.3033 42.1712 59.6731 42.855 60.0024 43.5541L60.0261 43.6058C60.5424 44.7054 60.9569 45.8329 61.1244 46.3004C61.2109 46.5418 61.2821 46.8167 61.3379 47.1182C61.6086 48.5513 61.5667 50.5678 61.4035 52.2814V52.28Z" fill="#FDA271"/>
<path d="M61.3369 47.1168C61.1527 48.7048 60.6573 50.5873 60.1689 52.0274C60.1047 52.2172 60.0405 52.4 59.9777 52.573C59.866 52.8801 59.7558 53.1578 59.6525 53.3964L59.5451 52.5577L58.8892 47.4335C58.9283 47.2856 58.9687 47.1056 59.0106 46.8977C59.026 46.8209 59.0413 46.7428 59.0553 46.659C59.0608 46.6325 59.065 46.6046 59.0706 46.5781C59.132 46.2278 59.192 45.8315 59.2353 45.4268C59.3148 44.697 59.3511 43.9421 59.2771 43.3895C59.2297 43.0238 59.1027 42.467 58.9687 41.86C58.9562 41.8014 58.9422 41.7414 58.9283 41.6814C58.7594 40.9153 58.5864 40.0934 58.5431 39.4891C58.511 39.0328 58.5529 38.7021 58.7259 38.61C59.0288 38.4983 59.3232 38.7202 59.5967 39.1444C59.6051 39.1556 59.6121 39.1682 59.619 39.1779C59.619 39.1779 59.619 39.1807 59.6204 39.1821C59.7363 39.3663 59.8493 39.5868 59.9567 39.8324C59.9567 39.8366 59.9595 39.8408 59.9623 39.845C59.9623 39.845 59.9623 39.8478 59.9637 39.8492C60.3782 40.7981 60.7312 42.121 60.981 43.236C60.981 43.2415 60.981 43.2443 60.9824 43.2485C61.0815 43.6923 61.1652 44.1025 61.2294 44.443C61.2908 44.771 61.3341 45.0319 61.3578 45.198C61.4345 45.7283 61.4164 46.3911 61.3327 47.1154L61.3369 47.1168Z" fill="#FDA271"/>
<path d="M59.4791 49.5406C59.5489 48.695 59.3814 47.6874 59.1037 46.6855C59.094 46.6492 59.0842 46.6129 59.073 46.5766C59.0605 46.532 59.0465 46.4859 59.0339 46.4413C59.0339 46.4413 59.0339 46.4399 59.0339 46.4371C58.9656 45.8775 58.8665 45.3402 58.7269 44.9328C58.339 43.7927 57.1863 41.4929 57.6999 41.0464C57.6357 42.2004 58.7618 43.875 59.0786 44.8616C59.1386 45.0486 59.1916 45.2356 59.2391 45.424C59.2893 45.6193 59.3312 45.8133 59.3675 46.0087C59.5838 47.1669 59.5782 48.3266 59.4791 49.5364V49.5406Z" fill="#DE7F50"/>
<path d="M60.1824 46.9228C60.2061 46.7065 60.0749 45.6166 59.8447 44.5044C59.7163 43.882 59.5572 43.2541 59.3758 42.7643C59.2683 42.4754 59.1274 42.1712 58.9725 41.8614C58.9139 41.7456 58.8539 41.6269 58.7925 41.5083C58.8399 41.5628 58.886 41.6214 58.932 41.6828C58.7632 40.9167 58.5901 40.0947 58.5469 39.4905C58.8357 40.4673 59.4497 41.546 59.6786 42.2605C59.8084 42.6638 59.9158 43.1034 60.0023 43.5541C60.0093 43.5862 60.0149 43.6169 60.0205 43.649C60.2507 44.8923 60.3135 46.1901 60.1824 46.9214V46.9228Z" fill="#DE7F50"/>
<path d="M61.2366 44.4432C61.2283 44.6204 61.2115 44.7809 61.185 44.919C61.2031 44.7516 61.1306 44.0664 60.9896 43.2487C60.9896 43.2445 60.9882 43.2403 60.9882 43.2361C60.8445 42.4072 60.6324 41.4457 60.3798 40.7619C60.271 40.4689 60.1272 40.1605 59.9695 39.8451C59.9681 39.8409 59.9654 39.8367 59.964 39.8325C59.8565 39.6176 59.7421 39.4013 59.6277 39.1823C59.6277 39.1823 59.6276 39.1795 59.6263 39.1781C59.6179 39.1627 59.6109 39.1474 59.6039 39.1334C59.569 38.7162 59.5523 38.3324 59.569 38.0184C59.9305 38.6799 60.391 39.4041 60.6352 40.2065C61.0413 41.5434 61.2938 43.3268 61.2394 44.4432H61.2366Z" fill="#DE7F50"/>
<path d="M58.3744 30.8929C57.4408 24.1346 53.7093 16.6089 47.2399 13.7719C46.6552 11.4038 45.3547 9.81152 45.3547 9.81152C45.2318 9.94688 47.3572 14.0175 39.1657 15.2232C36.4222 15.6264 32.9294 18.1355 31.7069 20.6208C33.4583 19.7249 36.0064 17.7336 38.0535 18.3867C34.7142 20.3962 31.5269 23.0643 30.0408 26.7986C29.5244 28.095 29.1588 29.4388 28.9551 30.805C29.2872 32.414 29.5886 33.5638 29.5886 33.7187C29.597 33.6643 29.6389 33.4675 29.7198 33.1633C30.2333 31.232 32.3614 24.9538 38.1303 22.9303C40.3282 22.16 42.6977 21.2516 44.7602 20.1617C45.9059 19.5575 46.6971 18.9198 47.2134 18.2751C47.2162 18.2639 47.219 18.2527 47.2218 18.2416C47.974 18.6686 48.7666 19.0244 49.5034 19.351C51.6064 20.2859 52.8665 21.3507 54.361 23.0783C56.7417 25.8329 58.0255 32.1446 57.9753 33.9978C58.0981 34.5462 58.5139 31.8948 58.3758 30.8929H58.3744Z" fill="#510E04"/>
<path d="M27.8635 31.3158H28.8808C28.9003 30.1827 29.0036 29.0496 29.1752 27.936C29.6943 24.679 30.8233 21.521 32.4825 18.7705C32.8928 18.0812 33.3421 17.4211 33.818 16.789C34.2994 16.1624 34.8046 15.5623 35.346 15.0083C35.8847 14.4516 36.4568 13.9408 37.0541 13.4775C37.3527 13.2459 37.6583 13.0296 37.9695 12.823C38.2821 12.6221 38.5988 12.4309 38.9226 12.2579C40.2162 11.5671 41.5935 11.1317 42.9681 11.0075C43.0546 11.0005 43.1397 10.9908 43.2248 10.9866L43.4816 10.974C43.5667 10.9685 43.6532 10.9698 43.7384 10.9685H43.8667L43.9254 10.9657C43.9323 10.9657 43.9449 10.9657 43.9463 10.9657H43.9812L44.2631 10.9726H44.3314L44.3914 10.9782L44.5128 10.9852C44.6705 10.9922 44.8436 11.0117 45.011 11.0271C45.3473 11.0675 45.6795 11.1164 46.0074 11.1875C46.1721 11.2182 46.3325 11.2629 46.4958 11.2992C46.6563 11.3452 46.8168 11.3843 46.9745 11.4359C47.2926 11.5308 47.601 11.648 47.9066 11.7667C48.2095 11.8923 48.5095 12.0234 48.7983 12.1727C49.3802 12.463 49.9329 12.7993 50.4548 13.1635C51.5028 13.892 52.4238 14.7418 53.2359 15.6307C54.0481 16.5224 54.7389 17.463 55.3389 18.3979C55.939 19.3343 56.433 20.2735 56.8502 21.1791C57.6805 22.9946 58.1815 24.6817 58.4871 26.0884C58.642 26.7917 58.7439 27.428 58.8178 27.9834C58.8918 28.5388 58.9364 29.0133 58.9629 29.3998C58.9783 29.5924 58.9867 29.7627 58.9936 29.9106C59.002 30.0585 59.0076 30.1813 59.009 30.2818C59.0146 30.4813 59.0188 30.5846 59.0188 30.5846V30.579C59.0188 30.579 59.0188 30.6851 59.023 30.8888C59.023 30.9404 59.023 30.9977 59.0244 31.0604C59.0244 31.1218 59.0243 31.1888 59.023 31.2614C59.023 31.2781 59.023 31.2963 59.023 31.3144H60.0584C60.0584 31.306 60.0584 31.2963 60.0584 31.2865C60.0626 31.2084 60.0668 31.1372 60.0696 31.0716C60.071 31.0088 60.0737 30.9516 60.0751 30.9C60.0821 30.6962 60.0849 30.5902 60.0849 30.5902V30.5846C60.0849 30.5846 60.0849 30.4771 60.0877 30.2678C60.0891 30.1632 60.0891 30.0334 60.0877 29.8785C60.0877 29.7236 60.0849 29.545 60.0765 29.3426C60.0528 28.5332 59.9719 27.3443 59.7207 25.8498C59.5965 25.1032 59.4221 24.2812 59.1848 23.3965C58.9462 22.5132 58.6448 21.5684 58.254 20.5805C57.8619 19.5939 57.3875 18.564 56.7958 17.5216C56.2069 16.4778 55.4952 15.4256 54.6468 14.4027C53.7955 13.3826 52.795 12.3974 51.6186 11.5336C50.4436 10.6754 49.0886 9.93441 47.5773 9.46832C46.8237 9.23109 46.0325 9.06922 45.2245 8.9827C45.0208 8.96456 44.8226 8.94363 44.6063 8.93526L44.4459 8.92688L44.3663 8.9227H44.2952L44.0133 8.91711H43.924H43.8458L43.6909 8.9213C43.5877 8.92409 43.4844 8.92549 43.3797 8.93246C43.2765 8.93944 43.1718 8.94642 43.0685 8.952C42.9653 8.96037 42.8606 8.97293 42.7573 8.9827C41.0953 9.15853 39.4501 9.70555 37.9723 10.547C37.6011 10.7563 37.2424 10.9838 36.8894 11.2238C36.5391 11.4666 36.1972 11.722 35.8665 11.9913C35.2079 12.5328 34.5869 13.1231 34.0105 13.7552C32.8523 15.0153 31.8713 16.4387 31.041 17.9444C29.3985 20.9684 28.3519 24.3385 27.9863 27.7769C27.9374 28.2067 27.9081 28.6379 27.8802 29.0677C27.8593 29.5003 27.8412 29.9273 27.8426 30.3641C27.8398 30.5846 27.8453 30.7911 27.8481 31.0032C27.8495 31.1121 27.8551 31.2084 27.8579 31.3116L27.8635 31.3158Z" fill="#030304"/>
<path d="M29.1676 31.4485C28.7629 31.3466 28.3512 31.3285 27.9424 31.4066C25.718 31.8294 24.4369 34.9106 25.0803 38.2905C25.7236 41.6703 28.047 44.0677 30.2714 43.6449C30.6803 43.5667 31.0571 43.3993 31.3962 43.1565L29.1676 31.4485Z" fill="#76BCBA"/>
<path d="M31.8377 42.7377C31.934 43.2471 31.6004 43.7383 31.0897 43.8346C30.5803 43.9309 30.0877 43.5973 29.9915 43.088L27.8857 32.0233C27.7894 31.514 28.1229 31.0228 28.6337 30.9265C29.143 30.8302 29.6356 31.1637 29.7319 31.673L31.8377 42.7377Z" fill="#030304"/>
</svg>
