<svg width="581" height="159" viewBox="0 0 581 159" fill="none" xmlns="http://www.w3.org/2000/svg">
<g opacity="0.1" filter="url(#filter0_d_101_1114)">
<path d="M23.6611 151.833C36.0582 151.833 43.2253 142.826 43.2253 130.429C43.2253 117.838 36.0582 109.024 23.6611 109.024C11.1671 109.024 4 117.838 4 130.429C4 142.826 11.1671 151.833 23.6611 151.833Z" fill="white"/>
<path d="M56.8855 149.218H93.6895V67.5712H108.702C118.29 67.5712 128.653 75.7068 128.653 92.8497V149.218H165.36V90.719C165.36 54.0118 146.184 32.1231 111.51 32.1231H56.8855V149.218Z" fill="white"/>
<path d="M178.439 149.218H216.212V32.1231H178.439V149.218Z" fill="white"/>
<path d="M229.775 149.218H265.901L275.974 91.3969C278.88 74.8351 282.463 67.1838 291.664 64.375C301.253 61.4694 316.458 67.2806 317.427 88.4914C318.492 111.058 303.577 117.935 291.955 116.094L288.952 115.61L288.855 149.509C305.417 152.705 324.11 148.734 335.635 138.855C347.645 128.492 355.296 110.961 354.522 87.9102C353.166 45.4888 326.919 26.7962 299.122 30.0892C281.785 32.1231 274.037 40.743 269.388 48.4912C263.286 36.1909 251.567 31.1546 238.783 31.6388L226.773 32.1231V67.8617L230.841 67.7649C240.332 67.5712 244.594 72.5107 242.657 82.0991L241.494 87.9102L229.775 149.218Z" fill="white"/>
<path d="M365.76 149.218H469.683V145.441L443.824 103.6L471.717 33.3822L471.427 32.1231H436.753L422.807 70.5736L398.787 32.1231H356.172L355.881 33.5759L409.247 114.545H365.76V149.218Z" fill="white"/>
<path d="M506.394 149.218H544.167L577 44.4234V32.1231H515.014V0.258545H478.404V67.7649H531.964L506.394 149.218Z" fill="white"/>
</g>
<defs>
<filter id="filter0_d_101_1114" x="0.783138" y="0.258545" width="579.434" height="158.008" filterUnits="userSpaceOnUse" color-interpolation-filters="sRGB">
<feFlood flood-opacity="0" result="BackgroundImageFix"/>
<feColorMatrix in="SourceAlpha" type="matrix" values="0 0 0 0 0 0 0 0 0 0 0 0 0 0 0 0 0 0 127 0" result="hardAlpha"/>
<feOffset dy="3.21686"/>
<feGaussianBlur stdDeviation="1.60843"/>
<feComposite in2="hardAlpha" operator="out"/>
<feColorMatrix type="matrix" values="0 0 0 0 0 0 0 0 0 0 0 0 0 0 0 0 0 0 0.25 0"/>
<feBlend mode="normal" in2="BackgroundImageFix" result="effect1_dropShadow_101_1114"/>
<feBlend mode="normal" in="SourceGraphic" in2="effect1_dropShadow_101_1114" result="shape"/>
</filter>
</defs>
</svg>
