<svg width="22" height="20" viewBox="0 0 22 20" fill="none" xmlns="http://www.w3.org/2000/svg">
<path d="M6.12196 13.9477C5.01287 14.814 3.73987 15.4497 2.37872 15.8168C2.22878 15.8709 2.09925 15.9697 2.00772 16.0994C1.91617 16.2293 1.86706 16.3842 1.86706 16.5428C1.86706 16.7013 1.91617 16.8562 2.00772 16.9861C2.09925 17.116 2.22878 17.2146 2.37872 17.2689C13.1269 21.6557 19.961 14.8746 18.9205 7.35172L21.0673 4.47339L17.7551 3.72151C17.3259 2.12013 16.0085 1.18595 14.5339 0.918381C13.0592 0.650827 11.076 0.918398 9.90029 2.68977C9.18284 3.77073 8.9578 5.32478 9.66293 7.35159C9.66293 7.35159 6.97622 8.03141 2.40977 3.56718C2.30415 3.46346 2.17083 3.39202 2.02565 3.36133C1.88044 3.33063 1.72946 3.34195 1.59053 3.39397C1.45161 3.44599 1.33059 3.53649 1.24181 3.6548C1.15302 3.77311 1.10018 3.91423 1.08954 4.06149C0.606701 6.0354 0.848328 8.1159 1.77095 9.92836C2.69355 11.7408 4.2365 13.1661 6.12196 13.9477Z" stroke="#256035" stroke-width="1.5" stroke-linecap="round" stroke-linejoin="round"/>
</svg>
