<svg width="24" height="24" viewBox="0 0 24 24" fill="none" xmlns="http://www.w3.org/2000/svg">
<path d="M11.7143 22.4286C17.6317 22.4286 22.4286 17.6317 22.4286 11.7143C22.4286 5.79695 17.6317 1 11.7143 1C5.79695 1 1 5.79695 1 11.7143C1 17.6317 5.79695 22.4286 11.7143 22.4286Z" stroke="#F0FFF5" stroke-opacity="0.7" stroke-width="1.5" stroke-linecap="round" stroke-linejoin="round"/>
<path d="M11.7143 12.7089C13.7847 12.7089 15.4631 11.0306 15.4631 8.96019C15.4631 6.88981 13.7847 5.21143 11.7143 5.21143C9.64395 5.21143 7.96558 6.88981 7.96558 8.96019C7.96558 11.0306 9.64395 12.7089 11.7143 12.7089Z" stroke="#F0FFF5" stroke-opacity="0.7" stroke-width="1.5" stroke-linecap="round" stroke-linejoin="round"/>
<path d="M18.0644 20.3449C16.2873 21.6546 14.0912 22.4286 11.7142 22.4286C9.33728 22.4286 7.14111 21.6546 5.36401 20.3449C5.71793 19.012 6.48343 17.8209 7.55619 16.9441C8.72965 15.9849 10.1986 15.4609 11.7142 15.4609C13.2298 15.4609 14.6988 15.9849 15.8723 16.9441C16.945 17.8209 17.7106 19.012 18.0644 20.3449Z" stroke="#F0FFF5" stroke-opacity="0.7" stroke-width="1.5" stroke-linecap="round" stroke-linejoin="round"/>
</svg>
