<svg width="16" height="17" viewBox="0 0 16 17" fill="none" xmlns="http://www.w3.org/2000/svg">
<path fill-rule="evenodd" clip-rule="evenodd" d="M9.91003 9.26302C9.60722 9.38677 9.41378 9.86083 9.21754 10.103C9.11691 10.2271 8.99691 10.2465 8.84223 10.1843C7.70567 9.73146 6.83442 8.97303 6.20724 7.92709C6.10099 7.76491 6.12005 7.63678 6.24818 7.48616C6.43755 7.26304 6.67567 7.0096 6.72692 6.70898C6.84067 6.04398 5.9713 3.98118 4.82318 4.91586C1.51945 7.60803 10.3344 14.7483 11.9253 10.8865C12.3753 9.79177 10.4119 9.0574 9.91003 9.26302ZM8.00004 14.9302C6.83161 14.9302 5.68193 14.6196 4.67537 14.0314C4.51381 13.9367 4.3185 13.9118 4.13787 13.9608L1.9507 14.5611L2.71257 12.8827C2.81632 12.6543 2.78976 12.3883 2.64319 12.1852C1.8282 11.0555 1.39726 9.72177 1.39726 8.32772C1.39726 4.6868 4.35912 1.72494 8.00004 1.72494C11.641 1.72494 14.6025 4.6868 14.6025 8.32772C14.6025 11.9683 11.6406 14.9302 8.00004 14.9302ZM8.00004 0.327759C3.58881 0.327759 8.36335e-05 3.91649 8.36335e-05 8.32772C8.36335e-05 9.87958 0.440706 11.3699 1.27789 12.6633L0.0625833 15.3399C-0.0496036 15.5871 -0.00866629 15.8764 0.166958 16.0824C0.301957 16.2402 0.497269 16.3277 0.69883 16.3277C1.14945 16.3277 3.60663 15.5555 4.23194 15.3839C5.38787 16.0024 6.68442 16.3277 8.00004 16.3277C12.411 16.3277 16 12.7386 16 8.32772C16 3.91649 12.411 0.327759 8.00004 0.327759Z" fill="#39AE41"/>
</svg>
