<svg width="22" height="22" viewBox="0 0 22 22" fill="none" xmlns="http://www.w3.org/2000/svg">
<path d="M11.4563 0.841802C5.66073 0.843032 0.96348 5.54229 0.96471 11.3379C0.96512 13.3447 1.54101 15.3093 2.624 16.9988L0.991354 21.2348C0.904411 21.4601 1.01656 21.7132 1.24185 21.8002C1.29223 21.8196 1.34573 21.8295 1.39971 21.8295C1.4498 21.8297 1.49953 21.8211 1.54662 21.8041L5.91906 20.2431C10.8385 23.307 17.3103 21.8028 20.3742 16.8833C23.4381 11.9638 21.9338 5.49199 17.0143 2.42813C15.3467 1.38949 13.421 0.839875 11.4563 0.841802Z" fill="#256035"/>
<path d="M16.4594 13.1283C16.4594 13.1283 15.3882 12.6036 14.7174 12.2539C13.9584 11.863 13.0664 12.5949 12.6467 13.0112C11.9934 12.7602 11.3967 12.3815 10.8916 11.8971C10.4071 11.392 10.0283 10.7953 9.77747 10.142C10.1937 9.72137 10.9239 8.83026 10.5348 8.07122C10.1894 7.39962 9.66031 6.32925 9.66031 6.32839C9.58608 6.18106 9.43527 6.08805 9.27028 6.08789H8.39581C7.12229 6.30785 6.19633 7.41905 6.20961 8.71134C6.20961 10.0843 7.85276 12.7217 8.96075 13.8306C10.0688 14.9394 12.7062 16.5817 14.08 16.5817C15.3723 16.595 16.4835 15.669 16.7034 14.3955V13.521C16.7035 13.3543 16.6089 13.202 16.4594 13.1283Z" fill="#F0FFF5"/>
</svg>
