<svg width="21" height="23" viewBox="0 0 21 23" fill="none" xmlns="http://www.w3.org/2000/svg">
<path d="M12.1609 20.2058C12.5228 21 13.323 21.5523 14.2526 21.5523C15.5219 21.5523 16.6774 20.5631 16.535 18.9878C15.1923 19.6984 13.7076 20.1153 12.1609 20.2058Z" fill="#256035"/>
<path d="M18.2284 2.77164C16.4412 0.984299 14.0582 0 11.5187 0C8.98615 0 6.60519 0.986235 4.8144 2.77702C3.02391 4.56748 2.03772 6.94814 2.03734 9.48013L2.03443 10.9681C2.03288 11.7687 1.4047 12.4128 0.604395 12.4345L0 12.4508V13.0554C0 14.304 0.826907 15.7673 2.15798 16.8743C2.5397 17.1917 3.0221 17.5293 3.61492 17.8386C4.16354 16.5775 5.42103 15.6932 6.88163 15.6932C8.74693 15.6932 10.2808 17.1351 10.4297 18.9627H11.5186C14.0512 18.9627 16.4322 17.9764 18.223 16.1856C20.0138 14.3948 21 12.0139 21 9.48135C21.0001 6.94187 20.0158 4.55893 18.2284 2.77164ZM15.1834 6.60284H16.4462V8.71359H15.1834V6.60284ZM8.81874 6.60284H10.0816V8.71359H8.81874V6.60284ZM12.6325 13.9015C10.8325 13.9015 9.20033 12.7686 8.57089 11.0825L9.75396 10.6408C10.2001 11.8358 11.3568 12.6387 12.6325 12.6387C13.9081 12.6387 15.0649 11.8358 15.511 10.6408L16.6941 11.0825C16.0646 12.7686 14.4324 13.9015 12.6325 13.9015Z" fill="#256035"/>
<path d="M7.41767 21.491C8.65137 21.1928 9.40968 19.9508 9.11141 18.7172C8.81314 17.4835 7.57124 16.7251 6.33754 17.0234C5.10384 17.3217 4.34553 18.5636 4.6438 19.7973C4.94207 21.031 6.18397 21.7893 7.41767 21.491Z" fill="#256035"/>
</svg>
