<svg width="25" height="21" viewBox="0 0 25 21" fill="none" xmlns="http://www.w3.org/2000/svg">
<path d="M1.11079 14.7751C1.42839 17.4891 3.68557 19.6277 6.4069 19.875C8.29145 20.0463 10.2244 20.1902 12.1939 20.1902C14.1635 20.1902 16.0964 20.0463 17.981 19.875C20.7024 19.6277 22.9595 17.4891 23.277 14.7751C23.4279 13.4856 23.54 12.1703 23.54 10.8344C23.54 9.49856 23.4279 8.18318 23.277 6.89375C22.9595 4.17971 20.7024 2.04108 17.981 1.79373C16.0964 1.62244 14.1635 1.47852 12.1939 1.47852C10.2244 1.47852 8.29145 1.62244 6.4069 1.79373C3.68557 2.04108 1.42839 4.17971 1.11079 6.89375C0.959909 8.18318 0.847809 9.49856 0.847809 10.8344C0.847809 12.1703 0.959909 13.4856 1.11079 14.7751Z" stroke="#256035" stroke-width="1.5"/>
<path d="M11.7841 15.1082C14.0989 13.8682 17.1009 12.0297 17.1009 10.8347C17.1009 9.63967 14.0989 7.80117 11.7841 6.56117C10.5692 5.91032 9.14987 6.81095 9.14987 8.18926V13.4801C9.14987 14.8584 10.5692 15.759 11.7841 15.1082Z" stroke="#256035" stroke-width="1.5"/>
</svg>
