<?xml version="1.0" standalone="no"?>
<!DOCTYPE svg PUBLIC "-//W3C//DTD SVG 1.1//EN" "http://www.w3.org/Graphics/SVG/1.1/DTD/svg11.dtd" >
<svg xmlns="http://www.w3.org/2000/svg" xmlns:xlink="http://www.w3.org/1999/xlink" version="1.1">
<metadata></metadata>
<defs>
<font id="fb_coherenti_sansregular" horiz-adv-x="0" >
<font-face units-per-em="2048" ascent="1638" descent="-410" />
<missing-glyph horiz-adv-x="550" />
<glyph unicode=" "  horiz-adv-x="550" />
<glyph unicode="&#x09;" horiz-adv-x="550" />
<glyph unicode="&#xa0;" horiz-adv-x="550" />
<glyph unicode="!" horiz-adv-x="673" d="M277 542q-26 159 -44 368.5t-18 337.5v64q0 87 17 153h181q18 -76 18 -152v-65q0 -124 -18.5 -332.5t-44.5 -373.5h-91zM332 -36q-62 0 -103 46.5t-41 116.5q0 71 41 117t103 46t102.5 -46t40.5 -117q0 -70 -40.5 -116.5t-102.5 -46.5z" />
<glyph unicode="&#x22;" horiz-adv-x="705" d="M123 1003l-33 41q41 50 58 86t17 92q0 52 -48 145q-17 30 -15.5 71.5t27.5 66.5q24 24 66 26q42 0 76 -50q16 -24 28 -76t11 -94q-2 -91 -54.5 -175t-132.5 -133zM424 1003l-33 41q41 50 58 86t17 92q0 52 -48 145q-17 30 -15.5 71.5t27.5 66.5q24 24 66 26q42 0 76 -50 q16 -24 28 -76t11 -94q-2 -91 -54.5 -175t-132.5 -133z" />
<glyph unicode="#" horiz-adv-x="1663" d="M278 0l91 337h-277l53 156h270l128 465h-280l54 155h270l97 353h149l-96 -353h407l95 353h151l-95 -353h279l-50 -155h-270l-133 -465h292l-51 -156h-281l-91 -337h-150l87 337h-404l-94 -337h-151zM564 493h401l132 465h-404z" />
<glyph unicode="$" horiz-adv-x="1273" d="M777 836q84 -27 152.5 -64t126 -89.5t88.5 -125.5t29 -161q-4 -177 -140 -293.5t-332 -132.5v-191h-126v192q-122 12 -238.5 63.5t-200.5 147.5l123 118q117 -139 316 -167v595l-54 17q-62 19 -111.5 39.5t-100.5 52.5t-85.5 68.5t-56.5 88t-22 111.5q0 187 120 300.5 t310 132.5v152h126v-151q253 -16 412 -169l-103 -118q-73 61 -142 95.5t-167 43.5v-531zM565 903l10 -3v491q-136 -12 -205 -79.5t-71 -169.5q-3 -154 266 -239zM1008 377q8 109 -67 185t-213 119l-27 8v-560q123 9 211 75.5t96 172.5z" />
<glyph unicode="%" horiz-adv-x="1770" d="M399 783q-142 0 -235.5 101.5t-93.5 242.5q0 144 91.5 244.5t237.5 100.5t236.5 -100.5t90.5 -244.5q0 -143 -90 -243.5t-237 -100.5zM355 -2l922 1439h155l-921 -1439h-156zM399 928q72 0 132 53.5t60 145.5q0 93 -60 146.5t-132 53.5q-74 0 -133.5 -52.5t-59.5 -147.5 q0 -91 60.5 -145t132.5 -54zM1323 -35q-142 0 -235.5 101.5t-93.5 242.5q0 142 93.5 243.5t235.5 101.5q146 0 236.5 -100.5t90.5 -244.5q0 -143 -90 -243.5t-237 -100.5zM1323 109q72 0 132 54.5t60 145.5q0 93 -60 146.5t-132 53.5q-73 0 -133.5 -53.5t-60.5 -146.5 q0 -91 61 -145.5t133 -54.5z" />
<glyph unicode="'" horiz-adv-x="404" d="M123 1003l-33 41q41 50 58 86t17 92q0 52 -48 145q-17 30 -15.5 71.5t27.5 66.5q24 24 66 26q42 0 76 -50q16 -24 28 -76t11 -94q-2 -91 -54.5 -175t-132.5 -133z" />
<glyph unicode="(" horiz-adv-x="822" d="M529 -344q-170 264 -253 497.5t-83 505.5q0 154 25.5 292t79.5 266.5t110 229.5t143 235h150q-23 -45 -70 -132t-69 -130t-57 -119.5t-52 -135t-36 -140.5t-26.5 -171.5t-7.5 -194.5q0 -120 15 -230.5t37.5 -196t63.5 -184t76.5 -171t91.5 -181.5q14 -26 21 -40h-159z " />
<glyph unicode=")" horiz-adv-x="824" d="M131 -346q20 38 62 117t60 113.5t50.5 104.5t47.5 114t36 115.5t30 135.5t16 147.5t7 175.5q0 142 -18.5 263t-66 247t-81 197t-110.5 220q-8 17 -13 26t-12.5 23.5t-13.5 26.5h159q173 -269 259 -501.5t86 -501.5q0 -155 -24.5 -293.5t-75 -265t-106.5 -230.5t-141 -234 h-151z" />
<glyph unicode="*" horiz-adv-x="1267" d="M401 456l-168 119l316 356l-445 99l65 183l409 -188l-44 442h192l-40 -439l411 186l65 -184l-442 -99l310 -353l-162 -119l-237 417z" />
<glyph unicode="+" horiz-adv-x="1129" d="M1052 720v-151h-412v-412h-151v412h-412v151h412v412h151v-412h412z" />
<glyph unicode="," horiz-adv-x="581" d="M175 -274l-41 48q51 57 72.5 98.5t21.5 105.5q0 58 -60 167q-22 34 -20 81.5t35 76.5q31 28 82 30q51 1 95 -57q21 -28 36 -88t13 -108q-3 -105 -68.5 -201.5t-165.5 -152.5z" />
<glyph unicode="-" horiz-adv-x="946" d="M99 567v179h748v-179h-748z" />
<glyph unicode="." horiz-adv-x="571" d="M275 -48q-56 0 -88 41.5t-32 97.5t32 97.5t88 41.5q55 0 87 -41.5t32 -97.5t-32 -97.5t-87 -41.5z" />
<glyph unicode="/" horiz-adv-x="787" d="M39 -37l507 1571h187l-510 -1571h-184z" />
<glyph unicode="0" horiz-adv-x="1206" d="M602 -34q-481 0 -481 770q0 173 26.5 310t82.5 241t150 160t222 56q245 0 364 -192t119 -575q0 -175 -26.5 -312.5t-82.5 -242t-150.5 -160t-223.5 -55.5zM605 141q161 0 229.5 148t68.5 446q0 595 -304 595q-159 0 -228.5 -147.5t-69.5 -447.5q0 -282 77 -438t227 -156z " />
<glyph unicode="1" horiz-adv-x="1206" d="M584 0v1101l-313 -3v137q55 4 83 7t74.5 11t78.5 21t54 33q48 43 95 184h112v-1491h-184z" />
<glyph unicode="2" horiz-adv-x="1206" d="M148 0v110l571 726q37 47 66.5 118t29.5 132q0 112 -81 179t-180 66q-79 -1 -151.5 -53t-110.5 -147l-137 83q50 134 163 211t236 75q118 -2 218.5 -46.5t160.5 -138.5q69 -107 69 -211q0 -84 -28 -164t-62.5 -131.5t-91.5 -122.5l-422 -521h653v-165h-903z" />
<glyph unicode="3" horiz-adv-x="1206" d="M551 -34q-251 0 -423 159l109 137q148 -129 324 -129q144 0 243 94.5t93 239.5q-4 82 -53 152.5t-134.5 108.5t-182.5 22q-19 -3 -48 -11l-67 -64l-111 100l466 526h-584v164h804v-141l-368 -418q90 1 166 -26t127 -72t87 -104t52 -120t16 -121q0 -97 -37.5 -191.5 t-99.5 -157.5q-147 -148 -379 -148z" />
<glyph unicode="4" horiz-adv-x="1206" d="M784 0v340h-667v172l599 953h192l-599 -951h475v322h165v-322h165v-174h-165v-340h-165z" />
<glyph unicode="5" horiz-adv-x="1206" d="M565 -33q-253 0 -422 149l104 137q70 -65 143 -94.5t179 -29.5q136 0 233.5 86.5t97.5 232.5q0 134 -88.5 230t-228.5 97q-85 1 -147 -33.5t-94 -79.5l-161 23l75 780h712v-157h-566l-46 -466q49 49 125 69.5t139 20.5q198 0 326.5 -136t128.5 -339q0 -138 -68 -251 t-185 -176t-257 -63z" />
<glyph unicode="6" horiz-adv-x="1206" d="M620 -34q-221 0 -351 130t-130 329q0 134 54 255t158 277l339 509h192l-398 -592q76 27 129 27q108 0 196 -39.5t143 -105.5t84.5 -147t29.5 -168q0 -121 -58 -230t-161.5 -177t-226.5 -68zM615 135q109 0 192.5 81.5t83.5 215.5q0 135 -88 222.5t-211 87.5 q-70 0 -129 -20.5t-92 -54.5q-63 -101 -63 -227t84.5 -215.5t222.5 -89.5z" />
<glyph unicode="7" horiz-adv-x="1206" d="M326 0l558 1303h-739v162h936v-114l-576 -1351h-179z" />
<glyph unicode="8" horiz-adv-x="1206" d="M615 -33q-224 0 -353 120t-129 302q0 211 259 378q-217 109 -217 337q0 74 29.5 144t82.5 126.5t135.5 91t180.5 34.5q194 0 310 -110t116 -281q0 -95 -58.5 -186t-166.5 -146q127 -65 200 -165t72 -215q-2 -183 -130.5 -306.5t-330.5 -123.5zM644 841q96 24 161 95 t65 160q0 111 -79 182.5t-195 73.5q-114 3 -188 -67t-74 -165q0 -210 310 -279zM612 126q129 -1 212 72.5t84 187.5q1 109 -93.5 193.5t-284.5 129.5q-104 -55 -167 -137.5t-63 -167.5q0 -118 83.5 -197.5t228.5 -80.5z" />
<glyph unicode="9" horiz-adv-x="1206" d="M388 0l342 633q-173 -57 -302 -8.5t-204 161.5t-75 247q0 201 127.5 335t325.5 134q199 0 320.5 -127.5t121.5 -318.5q0 -56 -11 -111.5t-36 -116.5t-46.5 -105t-60.5 -117l-323 -606h-179zM601 756q137 0 212 82q32 42 45 103t12 112q-2 119 -84 201.5t-204 82.5 q-118 0 -190 -90t-69 -210q4 -130 89 -205.5t189 -75.5z" />
<glyph unicode=":" horiz-adv-x="627" d="M298 808q-56 0 -88 41.5t-32 97.5t32 97.5t88 41.5q55 0 87 -41.5t32 -97.5t-32 -97.5t-87 -41.5zM298 8q-56 0 -88 41.5t-32 97.5t32 97.5t88 41.5q55 0 87 -41.5t32 -97.5t-32 -97.5t-87 -41.5z" />
<glyph unicode=";" horiz-adv-x="627" d="M298 906q-56 0 -88 41.5t-32 97.5t32 97.5t88 41.5q55 0 87 -41.5t32 -97.5t-32 -97.5t-87 -41.5zM209 -171l-37 45q46 54 65.5 94t19.5 101q0 56 -54 159q-20 33 -18 78t32 73q27 27 73 29q46 1 86 -55q19 -27 32.5 -84t11.5 -103q-3 -100 -62.5 -192t-148.5 -145z" />
<glyph unicode="&#x3c;" horiz-adv-x="1133" d="M966 24l-855 526v176l855 520v-181l-699 -424l699 -433v-184z" />
<glyph unicode="=" horiz-adv-x="1133" d="M115 836v164h905v-164h-905zM115 298v167h905v-167h-905z" />
<glyph unicode="&#x3e;" horiz-adv-x="1133" d="M130 24v184l699 433l-699 424v181l855 -520v-176z" />
<glyph unicode="?" horiz-adv-x="1055" d="M412 531l-11 89q-7 52 8.5 94t60.5 94l149 169q84 95 73 188q-8 56 -43 96t-81 56t-93 11q-74 -8 -124 -54t-88 -129l-128 74q46 129 151 205q94 66 207 67q162 2 274 -93t112 -256q0 -89 -37.5 -157t-106.5 -139l-161 -165q-20 -20 -28 -52t-13 -98h-121zM484 -36 q-62 0 -103 46.5t-41 116.5q0 71 41 117t103 46t103 -46t41 -117q0 -70 -41 -116.5t-103 -46.5z" />
<glyph unicode="[" horiz-adv-x="767" d="M143 -252v1867h490v-163h-310v-1541h310v-163h-490z" />
<glyph unicode="\" horiz-adv-x="787" d="M549 -37l-510 1571h187l507 -1571h-184z" />
<glyph unicode="]" horiz-adv-x="767" d="M134 -252v163h310v1541h-310v163h490v-1867h-490z" />
<glyph unicode="_" horiz-adv-x="976" d="M49 -265v150h878v-150h-878z" />
<glyph unicode="{" horiz-adv-x="860" d="M545 -280q-81 0 -147.5 33.5t-104.5 90t-50 130t16 153.5l79 243q23 70 -2 127t-100 75q-46 11 -131 20v171q91 8 126 19q81 24 105 78t2 126l-76 241q-27 78 -14.5 151.5t49 130.5t102.5 91.5t148 34.5h251v-161h-234q-65 0 -110 -59t-20 -140l75 -243q11 -35 12.5 -71 t-9 -85.5t-53 -102t-115.5 -97.5q59 -35 98 -77t56 -78.5t22 -76t1 -67t-12 -53.5l-72 -219q-32 -99 5 -161.5t109 -62.5h247v-161h-253z" />
<glyph unicode="|" horiz-adv-x="565" d="M213 -421v2032h139v-2032h-139z" />
<glyph unicode="}" horiz-adv-x="860" d="M75 -280v161h247q72 0 109 62.5t5 161.5l-72 219q-8 26 -12 53.5t1 67t22 76t56 78.5t98 77q-73 45 -115.5 97.5t-53 102t-9 85.5t12.5 71l75 243q25 81 -20 140t-110 59h-234v161h251q82 0 148 -34.5t102.5 -91.5t49 -130.5t-14.5 -151.5l-76 -241q-22 -72 2 -126 t105 -78q35 -11 126 -19v-171q-85 -9 -131 -20q-75 -18 -100 -75t-2 -127l79 -243q28 -80 16 -153.5t-50 -130t-104.5 -90t-147.5 -33.5h-253z" />
<glyph unicode="&#xa2;" horiz-adv-x="1139" d="M1021 106q-152 -137 -371 -137q-102 0 -192 33l-75 -216l-125 40l82 236q-105 71 -165.5 183.5t-60.5 251.5q0 160 77 292.5t207.5 206.5t284.5 71h8l92 263l125 -40l-79 -226l154 -3l-2 -153l-205 4l-265 -760q72 -33 153 -33q150 0 273 113zM276 500q3 -162 122 -274 l239 686q-166 -13 -265.5 -128.5t-95.5 -283.5z" />
<glyph unicode="&#xa3;" horiz-adv-x="1298" d="M295 -24l-98 136q141 112 197.5 265.5t9.5 300.5h-226v138h177q-60 195 -60 294q1 181 130.5 305t313.5 126q156 2 276.5 -82.5t156.5 -206.5l-135 -67q-32 92 -113.5 148t-197.5 57q-108 1 -189.5 -84.5t-81.5 -190.5q0 -54 16.5 -114t61.5 -185h417v-138h-371 q16 -127 -18.5 -258.5t-121.5 -228.5q44 26 96 33.5t84 3t59 -13.5q20 -7 72 -25.5t81.5 -28.5t72.5 -19.5t76 -10.5q76 -1 168 79l110 -108q-45 -59 -123.5 -91t-149.5 -34q-90 -2 -199 33q-11 3 -76 25t-106.5 31.5t-77.5 9.5q-13 0 -26.5 -1.5t-24.5 -3.5t-24.5 -7 t-22 -8t-23 -10.5t-21.5 -11t-22.5 -13.5t-21 -13.5t-23 -15.5t-22.5 -15z" />
<glyph unicode="&#xa5;" horiz-adv-x="1361" d="M1253 1509l-422 -654h375v-134h-459v-166h459v-134h-459v-421h-147v421h-426v134h426v159l-5 7h-421v134h334l-425 654h182l415 -625l402 625h171z" />
<glyph unicode="&#xa9;" horiz-adv-x="2087" d="M1044 -395q-208 0 -387 76t-303 206.5t-194 307t-70 373.5q0 198 75 376.5t202.5 307.5t304.5 204.5t372 75.5q208 0 387 -76.5t302.5 -207t193.5 -307t70 -373.5q0 -199 -73 -377t-199 -306.5t-303.5 -204t-377.5 -75.5zM1044 -236q170 0 320 63.5t255 172t166 256.5 t61 312q0 165 -62 313.5t-168.5 256.5t-255.5 171.5t-316 63.5q-170 0 -320 -64t-255.5 -173t-166.5 -257t-61 -311q0 -166 62 -314.5t168 -256t255.5 -170.5t317.5 -63zM1049 62q-83 0 -163.5 29.5t-150 85.5t-112.5 150t-43 212q0 122 50.5 224.5t130.5 166t177 97 t192 27.5l172 -10v-160l-175 11q-47 3 -99.5 -8.5t-104.5 -39.5t-93 -68t-67 -100t-26 -130q0 -67 21 -121.5t56 -90.5t81.5 -61t95 -35.5t98.5 -10.5q87 0 190 74l79 -132q-63 -53 -150 -81.5t-159 -28.5z" />
<glyph unicode="&#xab;" horiz-adv-x="982" d="M461 178l-356 316v246l356 350v-201l-269 -254l269 -233v-224zM869 178l-356 316v246l356 350v-201l-269 -254l269 -233v-224z" />
<glyph unicode="&#xad;" horiz-adv-x="946" d="M99 567v179h748v-179h-748z" />
<glyph unicode="&#xae;" horiz-adv-x="2087" d="M1044 -395q-208 0 -387 76t-303 206.5t-194 307t-70 373.5q0 198 75 376.5t202.5 307.5t304.5 204.5t372 75.5q208 0 387 -76.5t302.5 -207t193.5 -307t70 -373.5q0 -199 -73 -377t-199 -306.5t-303.5 -204t-377.5 -75.5zM1044 -236q170 0 320 63.5t255 172t166 256.5 t61 312q0 165 -62 313.5t-168.5 256.5t-255.5 171.5t-316 63.5q-170 0 -320 -64t-255.5 -173t-166.5 -257t-61 -311q0 -166 62 -314.5t168 -256t255.5 -170.5t317.5 -63zM726 132v928h359q89 0 159 -30.5t114 -99t44 -166.5q0 -108 -66 -184.5t-168 -90.5q-28 -4 -49 -4 l326 -353h-203l-310 342h-62v-342h-144zM870 618h224q73 0 111.5 46t38.5 100q0 57 -41.5 106t-104.5 49h-228v-301z" />
<glyph unicode="&#xb7;" horiz-adv-x="1452" d="M725 562q-61 0 -105 43.5t-44 105.5q0 61 44 104.5t105 43.5t104.5 -43.5t43.5 -104.5q0 -62 -43.5 -105.5t-104.5 -43.5z" />
<glyph unicode="&#xbb;" horiz-adv-x="982" d="M115 178v204l269 233l-269 254v221l356 -350v-246zM523 178v204l269 233l-269 254v221l356 -350v-246z" />
<glyph unicode="&#xd7;" horiz-adv-x="979" d="M902 950l-291 -291l291 -292l-107 -107l-291 292l-292 -292l-107 107l292 292l-292 291l107 107l292 -291l291 291z" />
<glyph unicode="&#xf7;" horiz-adv-x="958" d="M478 921q-52 0 -81.5 34.5t-29.5 85.5t29.5 85.5t81.5 34.5t81.5 -34.5t29.5 -85.5t-29.5 -85.5t-81.5 -34.5zM77 553v163h804v-163h-804zM478 116q-52 0 -81.5 34.5t-29.5 85.5t29.5 85.5t81.5 34.5t81.5 -34.5t29.5 -85.5t-29.5 -85.5t-81.5 -34.5z" />
<glyph unicode="&#x5b0;" d="M1 -264q-29 0 -50 21.5t-21 51.5q0 31 21 52.5t50 21.5t50 -21.5t21 -52.5q0 -30 -21 -51.5t-50 -21.5zM1 -498q-29 0 -50 21.5t-21 51.5q0 31 21 52.5t50 21.5t50 -21.5t21 -52.5q0 -30 -21 -51.5t-50 -21.5z" />
<glyph unicode="&#x5b1;" d="M-208 -266q-29 0 -50 21.5t-21 51.5q0 31 21 52.5t50 21.5t50 -21.5t21 -52.5q0 -30 -21 -51.5t-50 -21.5zM6 -266q-29 0 -50 21.5t-21 51.5q0 31 21 52.5t50 21.5t50 -21.5t21 -52.5q0 -30 -21 -51.5t-50 -21.5zM216 -257q-26 0 -45 19.5t-19 46.5q0 28 19 47.5t45 19.5 t45 -19.5t19 -47.5q0 -27 -19 -46.5t-45 -19.5zM-102 -465q-29 0 -50 21.5t-21 51.5q0 31 21 52.5t50 21.5t50 -21.5t21 -52.5q0 -30 -21 -51.5t-50 -21.5zM216 -469q-26 0 -45 19.5t-19 46.5q0 28 19 47.5t45 19.5t45 -19.5t19 -47.5q0 -27 -19 -46.5t-45 -19.5z" />
<glyph unicode="&#x5b2;" d="M212 -257q-26 0 -45 19.5t-19 46.5q0 28 19 47.5t45 19.5t45 -19.5t19 -47.5q0 -27 -19 -46.5t-45 -19.5zM-273 -241v112h345v-112h-345zM212 -469q-26 0 -45 19.5t-19 46.5q0 28 19 47.5t45 19.5t45 -19.5t19 -47.5q0 -27 -19 -46.5t-45 -19.5z" />
<glyph unicode="&#x5b3;" d="M212 -257q-26 0 -45 19.5t-19 46.5q0 28 19 47.5t45 19.5t45 -19.5t19 -47.5q0 -27 -19 -46.5t-45 -19.5zM-283 -241v112h365v-112h-153l34 -113v-111q-22 -23 -64.5 -23t-59.5 23v110l34 114h-156zM212 -336q26 0 45 -19.5t19 -47.5q0 -27 -19 -46.5t-45 -19.5t-45 19.5 t-19 46.5q0 28 19 47.5t45 19.5z" />
<glyph unicode="&#x5b4;" d="M6 -266q-29 0 -50 21.5t-21 51.5q0 31 21 52.5t50 21.5t50 -21.5t21 -52.5q0 -30 -21 -51.5t-50 -21.5z" />
<glyph unicode="&#x5b5;" d="M-106 -266q-29 0 -50 21.5t-21 51.5q0 31 21 52.5t50 21.5t50 -21.5t21 -52.5q0 -30 -21 -51.5t-50 -21.5zM108 -266q-29 0 -50 21.5t-21 51.5q0 31 21 52.5t50 21.5t50 -21.5t21 -52.5q0 -30 -21 -51.5t-50 -21.5z" />
<glyph unicode="&#x5b6;" d="M-106 -266q-29 0 -50 21.5t-21 51.5q0 31 21 52.5t50 21.5t50 -21.5t21 -52.5q0 -30 -21 -51.5t-50 -21.5zM108 -266q-29 0 -50 21.5t-21 51.5q0 31 21 52.5t50 21.5t50 -21.5t21 -52.5q0 -30 -21 -51.5t-50 -21.5zM0 -465q-29 0 -50 21.5t-21 51.5q0 31 21 52.5t50 21.5 t50 -21.5t21 -52.5q0 -30 -21 -51.5t-50 -21.5z" />
<glyph unicode="&#x5b7;" d="M-191 -241v112h385v-112h-385z" />
<glyph unicode="&#x5b8;" d="M202 -129v-112h-173l34 -113v-111q-22 -23 -64.5 -23t-59.5 23v110l34 114h-176v112h405z" />
<glyph unicode="&#x5b9;" d="M2 -143q-29 0 -50 21.5t-21 51.5q0 31 21 52.5t50 21.5t50 -21.5t21 -52.5q0 -30 -21 -51.5t-50 -21.5z" />
<glyph unicode="&#x5ba;" d="M-310 -148q-29 0 -50 21.5t-21 51.5q0 31 21 52.5t50 21.5t50 -21.5t21 -52.5q0 -30 -21 -51.5t-50 -21.5z" />
<glyph unicode="&#x5bb;" d="M2 -266q-29 0 -50 21.5t-21 51.5q0 31 21 52.5t50 21.5t50 -21.5t21 -52.5q0 -30 -21 -51.5t-50 -21.5zM130 -396q-29 0 -50 21.5t-21 51.5q0 31 21 52.5t50 21.5t50 -21.5t21 -52.5q0 -30 -21 -51.5t-50 -21.5zM265 -521q-29 0 -50 21.5t-21 51.5q0 31 21 52.5t50 21.5 t50 -21.5t21 -52.5q0 -30 -21 -51.5t-50 -21.5z" />
<glyph unicode="&#x5bc;" d="M2 91q-29 0 -50 21.5t-21 51.5q0 31 21 52.5t50 21.5t50 -21.5t21 -52.5q0 -30 -21 -51.5t-50 -21.5z" />
<glyph unicode="&#x5bd;" d="M-36 -490v391h72v-391h-72z" />
<glyph unicode="&#x5be;" horiz-adv-x="878" d="M155 1027v179h568v-179h-568z" />
<glyph unicode="&#x5c1;" d="M4 -142q-29 0 -50 21.5t-21 51.5q0 31 21 52.5t50 21.5t50 -21.5t21 -52.5q0 -30 -21 -51.5t-50 -21.5z" />
<glyph unicode="&#x5c2;" d="M314 -142q-29 0 -50 21.5t-21 51.5q0 31 21 52.5t50 21.5t50 -21.5t21 -52.5q0 -30 -21 -51.5t-50 -21.5z" />
<glyph unicode="&#x5c7;" d="M244 -117v-139h-200l44 -159v-135q0 -33 -27 -51t-59.5 -17t-59.5 19t-27 49v134l45 160h-205v139h489z" />
<glyph unicode="&#x5d0;" horiz-adv-x="1319" d="M85 0l304 800l-301 407l1 2h225l448 -577l247 577h175l-313 -725l364 -482l-1 -2h-224l-501 651l-247 -651h-177z" />
<glyph unicode="&#x5d1;" horiz-adv-x="1197" d="M106 0v185h695v403q0 213 -95.5 324.5t-256.5 111.5h-342v185h327q269 0 408.5 -152.5t139.5 -439.5v-432h145l1 -185h-1022z" />
<glyph unicode="&#x5d2;" horiz-adv-x="871" d="M134 -13q-9 -2 -30 -1t-31 5v184q11 0 41 6q158 36 279 182t127 314q1 25 -2 64q-20 294 -286 294q-34 0 -82 -6v185q61 7 133 7q173 0 280 -112.5t129 -343.5l72 -765h-180l-34 415q-48 -173 -167.5 -290.5t-248.5 -137.5z" />
<glyph unicode="&#x5d3;" horiz-adv-x="1172" d="M652 0v1028h-581v181h972l1 -181h-209v-1028h-183z" />
<glyph unicode="&#x5d4;" horiz-adv-x="1327" d="M989 0l1 560q0 113 -28.5 202.5t-80 146t-120 86t-149.5 29.5h-450v185h449q270 0 414.5 -159t144.5 -445v-605h-181zM162 0v655h183v-655h-183z" />
<glyph unicode="&#x5d5;" horiz-adv-x="518" d="M168 0v1209h183v-1209h-183z" />
<glyph unicode="&#x5d6;" horiz-adv-x="836" d="M385 0l-143 1024h-171v185h641l1 -185h-296l147 -1024h-179z" />
<glyph unicode="&#x5d7;" horiz-adv-x="1354" d="M166 0v1209h469q271 0 416 -158t145 -446v-605h-181v570q0 234 -102.5 344t-276.5 110h-288v-1024h-182z" />
<glyph unicode="&#x5d8;" horiz-adv-x="1387" d="M709 -29q-116 -1 -215.5 38.5t-175 114.5t-118 192.5t-42.5 265.5v627h182v-628q0 -200 102.5 -313t264.5 -113q76 0 142.5 28t119 81t83.5 137.5t34 189.5q5 219 -111 340.5t-298 110.5q-46 -3 -69 -7l-6 6l71 182q5 0 31 1.5t31 1.5q111 3 207.5 -36.5t170 -116.5 t115 -198.5t39.5 -272.5q-4 -281 -164.5 -455t-393.5 -176z" />
<glyph unicode="&#x5d9;" horiz-adv-x="492" d="M152 479v730h188v-730h-188z" />
<glyph unicode="&#x5da;" horiz-adv-x="1189" d="M853 -417v977q0 219 -96 341.5t-284 122.5h-382v185h381q270 0 415 -159t145 -445v-1022h-179z" />
<glyph unicode="&#x5db;" horiz-adv-x="1128" d="M101 0v185h336q170 0 281.5 113t111.5 302q0 93 -33.5 173.5t-88.5 135t-127 85t-149 30.5h-331v185h355q158 0 283.5 -78.5t196.5 -216t72 -309.5q1 -129 -41.5 -242t-116.5 -192.5t-176 -125t-216 -45.5h-357z" />
<glyph unicode="&#x5dc;" horiz-adv-x="1157" d="M386 0l416 1024h-720v587h181v-402h772v-72l-462 -1137h-187z" />
<glyph unicode="&#x5dd;" horiz-adv-x="1374" d="M166 0v1209h489q270 0 415 -159.5t145 -444.5v-605h-1049zM348 185h687v391q0 224 -103.5 336t-275.5 112h-308v-839z" />
<glyph unicode="&#x5de;" horiz-adv-x="1474" d="M745 -3v185l32 -2q67 -4 124.5 6.5t107.5 39.5t85 75.5t54.5 117t18.5 160.5q-2 206 -98.5 336.5t-251.5 130.5q-81 0 -142.5 -28.5t-102 -84t-66 -123t-43.5 -158.5l-130 -652h-178l145 701q9 42 15 91q11 93 -39 154t-133 71l-33 4l5 192l28 1q108 4 195 -63.5 t111 -188.5q49 126 151.5 198.5t246.5 75.5q223 4 365 -176t142 -458t-138 -440q-162 -188 -471 -165z" />
<glyph unicode="&#x5df;" horiz-adv-x="496" d="M156 -417v1626h184v-1626h-184z" />
<glyph unicode="&#x5e0;" horiz-adv-x="830" d="M91 0v185h400v417q0 237 -80 328q-42 49 -99.5 70.5t-141.5 21.5h-45v189h89q212 0 334.5 -142t122.5 -408v-661h-580z" />
<glyph unicode="&#x5e1;" horiz-adv-x="1378" d="M689 -34q-115 -1 -218.5 44t-181.5 126.5t-123.5 202t-45.5 262.5q0 186 73.5 333t203.5 228t292 81q246 -1 407 -179t161 -463q0 -185 -77 -330.5t-206 -224.5t-285 -80zM694 150q173 0 276.5 123t105.5 326q2 196 -109.5 327t-285.5 131q-173 0 -276.5 -124.5 t-101.5 -331.5q2 -200 109.5 -325.5t281.5 -125.5z" />
<glyph unicode="&#x5e2;" horiz-adv-x="1303" d="M101 0v185h331l-298 1024h191l292 -1025q335 27 335 418v607h180v-607q0 -271 -148.5 -436.5t-400.5 -165.5h-482z" />
<glyph unicode="&#x5e3;" horiz-adv-x="1292" d="M955 -417v1033q0 116 -26.5 203t-75 138.5t-110.5 77t-138 26.5q-139 2 -220 -70.5t-86 -193.5q-4 -74 45 -142t118 -98l-101 -162q-106 47 -173 152t-68 233q-1 91 33 175t96 148.5t155.5 103.5t204.5 39q251 1 388.5 -162t137.5 -447v-1054h-180z" />
<glyph unicode="&#x5e4;" horiz-adv-x="1301" d="M225 0v177h279q219 0 353 112.5t139 322.5q2 89 -17.5 165t-56 130t-86 94t-108 57.5t-121.5 20t-126 -18.5q-103 -31 -152.5 -107t-38.5 -179q8 -77 62 -129.5t120 -73.5l-96 -162q-37 13 -77.5 39.5t-82 69t-71 107t-35.5 139.5q-15 188 115.5 329t359.5 156 q257 16 425 -159.5t168 -472.5q0 -144 -54 -263t-145 -195t-207 -117.5t-244 -41.5h-303z" />
<glyph unicode="&#x5e5;" horiz-adv-x="1180" d="M829 -417l-768 1626h207l312 -646l310 646h198l-422 -843l363 -783h-200z" />
<glyph unicode="&#x5e6;" horiz-adv-x="1184" d="M145 0v173h609l-663 1033l1 3h213l361 -546l245 546h181l-4 -8l-330 -704l305 -477v-20h-918z" />
<glyph unicode="&#x5e7;" horiz-adv-x="1337" d="M598 0l386 1024h-841v185h1065v-74l-430 -1135h-180zM164 -417v1049h181v-1049h-181z" />
<glyph unicode="&#x5e8;" horiz-adv-x="1169" d="M833 0v560q0 219 -95 341.5t-282 122.5h-348v185h345q270 0 415 -159.5t145 -444.5v-605h-180z" />
<glyph unicode="&#x5e9;" horiz-adv-x="1676" d="M834 -33q-152 0 -275 43t-213 128.5t-139 221.5t-49 314v535h182v-535q0 -224 104.5 -365.5t302.5 -156.5v1057h174v-1055q101 7 179.5 51t128 114.5t74.5 160.5t25 194v535h182v-539q0 -163 -49.5 -295.5t-138.5 -221.5t-214 -137.5t-274 -48.5z" />
<glyph unicode="&#x5ea;" horiz-adv-x="1455" d="M73 -12v174q131 -4 188 57q61 67 58 252l-6 553l-192 -2l-2 187l627 3q266 2 408.5 -154.5t142.5 -452.5v-605h-182v586q0 220 -99 332t-273 110l-254 -3l10 -547q5 -265 -97 -377q-104 -113 -298 -113h-31z" />
<glyph unicode="&#x5f3;" horiz-adv-x="405" d="M94 805l-39 47q48 56 68.5 96.5t20.5 103.5q0 56 -57 165q-21 34 -18.5 80.5t33.5 74.5q28 28 77 30q48 1 89 -57q20 -28 34.5 -86t12.5 -106q-3 -103 -65 -198t-156 -150z" />
<glyph unicode="&#x5f4;" horiz-adv-x="729" d="M94 805l-39 47q48 56 68.5 96.5t20.5 103.5q0 56 -57 165q-21 34 -18.5 80.5t33.5 74.5q28 28 77 30q48 1 89 -57q20 -28 34.5 -86t12.5 -106q-3 -103 -65 -198t-156 -150zM442 805l-39 47q48 56 68.5 96.5t20.5 103.5q0 56 -57 165q-21 34 -18.5 80.5t33.5 74.5 q28 28 77 30q48 1 89 -57q20 -28 34.5 -86t12.5 -106q-3 -103 -65 -198t-156 -150z" />
<glyph unicode="&#x2000;" horiz-adv-x="845" />
<glyph unicode="&#x2001;" horiz-adv-x="1690" />
<glyph unicode="&#x2002;" horiz-adv-x="845" />
<glyph unicode="&#x2003;" horiz-adv-x="1690" />
<glyph unicode="&#x2004;" horiz-adv-x="563" />
<glyph unicode="&#x2005;" horiz-adv-x="422" />
<glyph unicode="&#x2006;" horiz-adv-x="281" />
<glyph unicode="&#x2007;" horiz-adv-x="281" />
<glyph unicode="&#x2008;" horiz-adv-x="211" />
<glyph unicode="&#x2009;" horiz-adv-x="338" />
<glyph unicode="&#x200a;" horiz-adv-x="93" />
<glyph unicode="&#x2010;" horiz-adv-x="946" d="M99 567v179h748v-179h-748z" />
<glyph unicode="&#x2011;" horiz-adv-x="946" d="M99 567v179h748v-179h-748z" />
<glyph unicode="&#x2012;" horiz-adv-x="946" d="M99 567v179h748v-179h-748z" />
<glyph unicode="&#x2013;" horiz-adv-x="1096" d="M99 567v179h898v-179h-898z" />
<glyph unicode="&#x2014;" horiz-adv-x="1586" d="M99 567v179h1388v-179h-1388z" />
<glyph unicode="&#x2018;" horiz-adv-x="398" d="M275 1547l33 -41q-41 -50 -58 -86t-17 -92q0 -52 48 -145q17 -30 15.5 -71.5t-27.5 -66.5q-24 -24 -66 -26q-42 0 -76 50q-16 24 -28 76t-11 94q2 91 54.5 175t132.5 133z" />
<glyph unicode="&#x2019;" horiz-adv-x="404" d="M123 1004l-33 41q41 50 58 86t17 92q0 52 -48 145q-17 30 -15.5 71.5t27.5 66.5q24 24 66 26q42 0 76 -50q16 -24 28 -76t11 -94q-2 -91 -54.5 -175t-132.5 -133z" />
<glyph unicode="&#x201a;" horiz-adv-x="705" d="M123 -214l-33 41q41 50 58 86t17 92q0 52 -48 145q-17 30 -15.5 71.5t27.5 66.5q24 24 66 26q42 0 76 -50q16 -24 28 -76t11 -94q-2 -91 -54.5 -175t-132.5 -133zM424 -214l-33 41q41 50 58 86t17 92q0 52 -48 145q-17 30 -15.5 71.5t27.5 66.5q24 24 66 26q42 0 76 -50 q16 -24 28 -76t11 -94q-2 -91 -54.5 -175t-132.5 -133z" />
<glyph unicode="&#x201c;" horiz-adv-x="705" d="M281 1550l33 -41q-41 -50 -58 -86t-17 -92q0 -52 48 -145q17 -30 15.5 -71.5t-27.5 -66.5q-24 -24 -66 -26q-42 0 -76 50q-16 24 -28 76t-11 94q2 91 54.5 175t132.5 133zM582 1550l33 -41q-41 -50 -58 -86t-17 -92q0 -52 48 -145q17 -30 15.5 -71.5t-27.5 -66.5 q-24 -24 -66 -26q-42 0 -76 50q-16 24 -28 76t-11 94q2 91 54.5 175t132.5 133z" />
<glyph unicode="&#x201d;" horiz-adv-x="705" d="M123 1003l-33 41q41 50 58 86t17 92q0 52 -48 145q-17 30 -15.5 71.5t27.5 66.5q24 24 66 26q42 0 76 -50q16 -24 28 -76t11 -94q-2 -91 -54.5 -175t-132.5 -133zM424 1003l-33 41q41 50 58 86t17 92q0 52 -48 145q-17 30 -15.5 71.5t27.5 66.5q24 24 66 26q42 0 76 -50 q16 -24 28 -76t11 -94q-2 -91 -54.5 -175t-132.5 -133z" />
<glyph unicode="&#x201e;" horiz-adv-x="442" d="M119 -214l-33 41q41 50 58 86t17 92q0 52 -48 145q-17 30 -15.5 71.5t27.5 66.5q24 24 66 26q42 0 76 -50q16 -24 28 -76t11 -94q-2 -91 -54.5 -175t-132.5 -133z" />
<glyph unicode="&#x2022;" horiz-adv-x="1103" d="M545 220q-134 0 -239.5 110.5t-105.5 259.5v25q0 98 49 187.5t129.5 143.5t166.5 54h13q86 0 166 -54t129.5 -143.5t49.5 -187.5v-25q0 -149 -106 -259.5t-239 -110.5h-13z" />
<glyph unicode="&#x2026;" horiz-adv-x="1415" d="M279 -48q-56 0 -88 41.5t-32 97.5t32 97.5t88 41.5q55 0 87 -41.5t32 -97.5t-32 -97.5t-87 -41.5zM703 -48q-56 0 -88 41.5t-32 97.5t32 97.5t88 41.5q55 0 87 -41.5t32 -97.5t-32 -97.5t-87 -41.5zM1131 -48q-56 0 -88 41.5t-32 97.5t32 97.5t88 41.5q55 0 87 -41.5 t32 -97.5t-32 -97.5t-87 -41.5z" />
<glyph unicode="&#x202f;" horiz-adv-x="338" />
<glyph unicode="&#x2039;" horiz-adv-x="578" d="M461 178l-356 316v246l356 350v-201l-269 -254l269 -233v-224z" />
<glyph unicode="&#x203a;" horiz-adv-x="578" d="M115 178v204l269 233l-269 254v221l356 -350v-246z" />
<glyph unicode="&#x2044;" horiz-adv-x="787" d="M39 -37l507 1571h187l-510 -1571h-184z" />
<glyph unicode="&#x205f;" horiz-adv-x="422" />
<glyph unicode="&#x20aa;" horiz-adv-x="1792" d="M116 0v1213h544q234 0 362 -140t128 -436v-159h-154v174q0 104 -27 182.5t-73 124t-102 68t-119 22.5h-404v-1049h-155zM539 0v729h161v-563h417q331 0 331 402v645h161v-629q0 -289 -131.5 -436.5t-381.5 -147.5h-557z" />
<glyph unicode="&#x20ac;" horiz-adv-x="1345" d="M1174 294l111 -112q-178 -214 -442 -214q-249 0 -421 142t-221 411h-187v134h172q-2 36 -2 55q0 66 5 111h-175v134h198q65 261 263 412.5t468 146.5l267 -5l-2 -159l-265 5q-213 4 -360 -101.5t-202 -298.5h605v-134h-631q-4 -45 -4 -105q0 -31 3 -61h632v-134h-612 q24 -100 71.5 -177.5t110.5 -123.5t134 -69.5t148 -23.5q191 0 336 167z" />
<glyph unicode="&#x2122;" horiz-adv-x="2048" d="M395 583v712h-266v160h687v-160h-267v-712h-154zM914 583l14 872h186l284 -702l285 702h180l8 -872h-152l-3 622l-251 -622h-146l-252 620l-4 -620h-149z" />
<glyph unicode="&#x2212;" horiz-adv-x="898" d="M77 553v163h744v-163h-744z" />
<glyph unicode="&#x2260;" horiz-adv-x="1135" d="M1020 836h-317l-158 -371h475v-167h-546l-99 -234h-144l99 234h-215v167h286l158 371h-444v164h514l100 236h144l-100 -236h247v-164z" />
<glyph unicode="&#x25fc;" horiz-adv-x="500" d="M0 0z" />
<glyph unicode="&#xfb1d;" horiz-adv-x="492" d="M152 479v730h188v-730h-188zM249 -295q-29 0 -49.5 21.5t-20.5 51.5q0 31 20.5 52.5t49.5 21.5t49 -21.5t20 -52.5q0 -30 -20.5 -51.5t-48.5 -21.5z" />
<glyph unicode="&#xfb29;" horiz-adv-x="1129" d="M640 550h412v-151h-975v151h412v432h151v-432z" />
<glyph unicode="&#xfb2a;" horiz-adv-x="1676" d="M1420 1336q-29 0 -49.5 21.5t-20.5 51.5q0 31 20.5 52.5t49.5 21.5t49.5 -21.5t20.5 -52.5q0 -30 -20.5 -51.5t-49.5 -21.5zM834 -33q-152 0 -275 43t-213 128.5t-139 221.5t-49 314v535h182v-535q0 -224 104.5 -365.5t302.5 -156.5v1057h174v-1055q101 7 179.5 51 t128 114.5t74.5 160.5t25 194v535h182v-539q0 -163 -49.5 -295.5t-138.5 -221.5t-214 -137.5t-274 -48.5z" />
<glyph unicode="&#xfb2b;" horiz-adv-x="1676" d="M250 1338q-29 0 -49.5 21.5t-20.5 51.5q0 31 20.5 52.5t49.5 21.5t49 -21.5t20 -52.5q0 -30 -20.5 -51.5t-48.5 -21.5zM834 -33q-152 0 -275 43t-213 128.5t-139 221.5t-49 314v535h182v-535q0 -224 104.5 -365.5t302.5 -156.5v1057h174v-1055q101 7 179.5 51t128 114.5 t74.5 160.5t25 194v535h182v-539q0 -163 -49.5 -295.5t-138.5 -221.5t-214 -137.5t-274 -48.5z" />
<glyph unicode="&#xfb2c;" horiz-adv-x="1676" d="M1420 1336q-29 0 -49.5 21.5t-20.5 51.5q0 31 20.5 52.5t49.5 21.5t49.5 -21.5t20.5 -52.5q0 -30 -20.5 -51.5t-49.5 -21.5zM834 -33q-152 0 -275 43t-213 128.5t-139 221.5t-49 314v535h182v-535q0 -224 104.5 -365.5t302.5 -156.5v1057h174v-1055q101 7 179.5 51 t128 114.5t74.5 160.5t25 194v535h182v-539q0 -163 -49.5 -295.5t-138.5 -221.5t-214 -137.5t-274 -48.5zM1120 561q-29 0 -49.5 21.5t-20.5 51.5q0 31 20.5 52.5t49.5 21.5t49.5 -21.5t20.5 -52.5q0 -30 -20.5 -51.5t-49.5 -21.5z" />
<glyph unicode="&#xfb2d;" horiz-adv-x="1676" d="M250 1338q-29 0 -49.5 21.5t-20.5 51.5q0 31 20.5 52.5t49.5 21.5t49 -21.5t20 -52.5q0 -30 -20.5 -51.5t-48.5 -21.5zM834 -33q-152 0 -275 43t-213 128.5t-139 221.5t-49 314v535h182v-535q0 -224 104.5 -365.5t302.5 -156.5v1057h174v-1055q101 7 179.5 51t128 114.5 t74.5 160.5t25 194v535h182v-539q0 -163 -49.5 -295.5t-138.5 -221.5t-214 -137.5t-274 -48.5zM1120 561q-29 0 -49.5 21.5t-20.5 51.5q0 31 20.5 52.5t49.5 21.5t49.5 -21.5t20.5 -52.5q0 -30 -20.5 -51.5t-49.5 -21.5z" />
<glyph unicode="&#xfb2e;" horiz-adv-x="1319" d="M85 0l304 800l-301 407l1 2h225l448 -577l247 577h175l-313 -725l364 -482l-1 -2h-224l-501 651l-247 -651h-177zM473 -270v112h377v-112h-377z" />
<glyph unicode="&#xfb2f;" horiz-adv-x="1319" d="M85 0l304 800l-301 407l1 2h225l448 -577l247 577h175l-313 -725l364 -482l-1 -2h-224l-501 651l-247 -651h-177zM858 -158v-112h-169l33 -113v-111q-22 -23 -63.5 -23t-58.5 23v110l34 114h-173v112h397z" />
<glyph unicode="&#xfb30;" horiz-adv-x="1319" d="M85 0l304 800l-301 407l1 2h225l448 -577l247 577h175l-313 -725l364 -482l-1 -2h-224l-501 651l-247 -651h-177zM567 189q-29 0 -49.5 21.5t-20.5 51.5q0 31 20.5 52.5t49.5 21.5t49.5 -21.5t20.5 -52.5q0 -30 -20.5 -51.5t-49.5 -21.5z" />
<glyph unicode="&#xfb31;" horiz-adv-x="1197" d="M106 0v185h695v403q0 213 -95.5 324.5t-256.5 111.5h-342v185h327q269 0 408.5 -152.5t139.5 -439.5v-432h145l1 -185h-1022zM404 531q-29 0 -49.5 21.5t-20.5 51.5q0 31 20.5 52.5t49.5 21.5t49.5 -21.5t20.5 -52.5q0 -30 -20.5 -51.5t-49.5 -21.5z" />
<glyph unicode="&#xfb32;" horiz-adv-x="871" d="M134 -13q-9 -2 -30 -1t-31 5v184q11 0 41 6q158 36 279 182t127 314q1 25 -2 64q-20 294 -286 294q-34 0 -82 -6v185q61 7 133 7q173 0 280 -112.5t129 -343.5l72 -765h-180l-34 415q-48 -173 -167.5 -290.5t-248.5 -137.5zM264 576q-29 0 -49.5 21.5t-20.5 51.5 q0 31 20.5 52.5t49.5 21.5t49.5 -21.5t20.5 -52.5q0 -30 -20.5 -51.5t-49.5 -21.5z" />
<glyph unicode="&#xfb33;" horiz-adv-x="1172" d="M652 0v1028h-581v181h972l1 -181h-209v-1028h-183zM363 496q-29 0 -49.5 21.5t-20.5 51.5q0 31 20.5 52.5t49.5 21.5t49.5 -21.5t20.5 -52.5q0 -30 -20.5 -51.5t-49.5 -21.5z" />
<glyph unicode="&#xfb34;" horiz-adv-x="1327" d="M989 0l1 560q0 113 -28.5 202.5t-80 146t-120 86t-149.5 29.5h-450v185h449q270 0 414.5 -159t144.5 -445v-605h-181zM162 0v655h183v-655h-183zM664 441q-29 0 -49.5 21.5t-20.5 51.5q0 31 20.5 52.5t49.5 21.5t49.5 -21.5t20.5 -52.5q0 -30 -20.5 -51.5t-49.5 -21.5z " />
<glyph unicode="&#xfb35;" horiz-adv-x="518" d="M168 0v1209h183v-1209h-183zM13 557q-29 0 -49.5 21.5t-20.5 51.5q0 31 20.5 52.5t49.5 21.5t49.5 -21.5t20.5 -52.5q0 -30 -20.5 -51.5t-49.5 -21.5z" />
<glyph unicode="&#xfb36;" horiz-adv-x="836" d="M385 0l-143 1024h-171v185h641l1 -185h-296l147 -1024h-179zM157 445q-29 0 -49.5 21.5t-20.5 51.5q0 31 20.5 52.5t49.5 21.5t49.5 -21.5t20.5 -52.5q0 -30 -20.5 -51.5t-49.5 -21.5z" />
<glyph unicode="&#xfb38;" horiz-adv-x="1387" d="M709 -29q-116 -1 -215.5 38.5t-175 114.5t-118 192.5t-42.5 265.5v627h182v-628q0 -200 102.5 -313t264.5 -113q76 0 142.5 28t119 81t83.5 137.5t34 189.5q5 219 -111 340.5t-298 110.5q-46 -3 -69 -7l-6 6l71 182q5 0 31 1.5t31 1.5q111 3 207.5 -36.5t170 -116.5 t115 -198.5t39.5 -272.5q-4 -281 -164.5 -455t-393.5 -176zM696 521q-29 0 -49.5 21.5t-20.5 51.5q0 31 20.5 52.5t49.5 21.5t49.5 -21.5t20.5 -52.5q0 -30 -20.5 -51.5t-49.5 -21.5z" />
<glyph unicode="&#xfb39;" horiz-adv-x="492" d="M152 479v730h188v-730h-188zM6 775q-29 0 -49.5 21.5t-20.5 51.5q0 31 20.5 52.5t49.5 21.5t49.5 -21.5t20.5 -52.5q0 -30 -20.5 -51.5t-49.5 -21.5z" />
<glyph unicode="&#xfb3a;" horiz-adv-x="1189" d="M853 -417v977q0 219 -96 341.5t-284 122.5h-382v185h381q270 0 415 -159t145 -445v-1022h-179zM416 440q-29 0 -49.5 21.5t-20.5 51.5q0 31 20.5 52.5t49.5 21.5t49.5 -21.5t20.5 -52.5q0 -30 -20.5 -51.5t-49.5 -21.5z" />
<glyph unicode="&#xfb3b;" horiz-adv-x="1128" d="M101 0v185h336q170 0 281.5 113t111.5 302q0 93 -33.5 173.5t-88.5 135t-127 85t-149 30.5h-331v185h355q158 0 283.5 -78.5t196.5 -216t72 -309.5q1 -129 -41.5 -242t-116.5 -192.5t-176 -125t-216 -45.5h-357zM375 530q-29 0 -49.5 21.5t-20.5 51.5q0 31 20.5 52.5 t49.5 21.5t49.5 -21.5t20.5 -52.5q0 -30 -20.5 -51.5t-49.5 -21.5z" />
<glyph unicode="&#xfb3c;" horiz-adv-x="1157" d="M386 0l416 1024h-720v587h181v-402h772v-72l-462 -1137h-187zM348 507q-29 0 -49.5 21.5t-20.5 51.5q0 31 20.5 52.5t49.5 21.5t49.5 -21.5t20.5 -52.5q0 -30 -20.5 -51.5t-49.5 -21.5z" />
<glyph unicode="&#xfb3e;" horiz-adv-x="1474" d="M745 -3v185l32 -2q67 -4 124.5 6.5t107.5 39.5t85 75.5t54.5 117t18.5 160.5q-2 206 -98.5 336.5t-251.5 130.5q-81 0 -142.5 -28.5t-102 -84t-66 -123t-43.5 -158.5l-130 -652h-178l145 701q9 42 15 91q11 93 -39 154t-133 71l-33 4l5 192l28 1q108 4 195 -63.5 t111 -188.5q49 126 151.5 198.5t246.5 75.5q223 4 365 -176t142 -458t-138 -440q-162 -188 -471 -165zM786 519q-29 0 -49.5 21.5t-20.5 51.5q0 31 20.5 52.5t49.5 21.5t49.5 -21.5t20.5 -52.5q0 -30 -20.5 -51.5t-49.5 -21.5z" />
<glyph unicode="&#xfb40;" horiz-adv-x="830" d="M91 0v185h400v417q0 237 -80 328q-42 49 -99.5 70.5t-141.5 21.5h-45v189h89q212 0 334.5 -142t122.5 -408v-661h-580zM222 499q-29 0 -49.5 21.5t-20.5 51.5q0 31 20.5 52.5t49.5 21.5t49.5 -21.5t20.5 -52.5q0 -30 -20.5 -51.5t-49.5 -21.5z" />
<glyph unicode="&#xfb41;" horiz-adv-x="1378" d="M689 -34q-115 -1 -218.5 44t-181.5 126.5t-123.5 202t-45.5 262.5q0 186 73.5 333t203.5 228t292 81q246 -1 407 -179t161 -463q0 -185 -77 -330.5t-206 -224.5t-285 -80zM694 150q173 0 276.5 123t105.5 326q2 196 -109.5 327t-285.5 131q-173 0 -276.5 -124.5 t-101.5 -331.5q2 -200 109.5 -325.5t281.5 -125.5zM680 521q-29 0 -49.5 21.5t-20.5 51.5q0 31 20.5 52.5t49.5 21.5t49.5 -21.5t20.5 -52.5q0 -30 -20.5 -51.5t-49.5 -21.5z" />
<glyph unicode="&#xfb43;" horiz-adv-x="1292" d="M955 -417v1033q0 116 -26.5 203t-75 138.5t-110.5 77t-138 26.5q-139 2 -220 -70.5t-86 -193.5q-4 -74 45 -142t118 -98l-101 -162q-106 47 -173 152t-68 233q-1 91 33 175t96 148.5t155.5 103.5t204.5 39q251 1 388.5 -162t137.5 -447v-1054h-180zM630 591 q-29 0 -49.5 21.5t-20.5 51.5q0 31 20.5 52.5t49.5 21.5t49.5 -21.5t20.5 -52.5q0 -30 -20.5 -51.5t-49.5 -21.5z" />
<glyph unicode="&#xfb44;" horiz-adv-x="1301" d="M225 0v177h279q219 0 353 112.5t139 322.5q2 89 -17.5 165t-56 130t-86 94t-108 57.5t-121.5 20t-126 -18.5q-103 -31 -152.5 -107t-38.5 -179q8 -77 62 -129.5t120 -73.5l-96 -162q-37 13 -77.5 39.5t-82 69t-71 107t-35.5 139.5q-15 188 115.5 329t359.5 156 q257 16 425 -159.5t168 -472.5q0 -144 -54 -263t-145 -195t-207 -117.5t-244 -41.5h-303zM631 551q-29 0 -49.5 21.5t-20.5 51.5q0 31 20.5 52.5t49.5 21.5t49.5 -21.5t20.5 -52.5q0 -30 -20.5 -51.5t-49.5 -21.5z" />
<glyph unicode="&#xfb46;" horiz-adv-x="1184" d="M145 0v173h609l-663 1033l1 3h213l361 -546l245 546h181l-4 -8l-330 -704l305 -477v-20h-918zM255 508q-29 0 -49.5 21.5t-20.5 51.5q0 31 20.5 52.5t49.5 21.5t49.5 -21.5t20.5 -52.5q0 -30 -20.5 -51.5t-49.5 -21.5z" />
<glyph unicode="&#xfb47;" horiz-adv-x="1337" d="M598 0l386 1024h-841v185h1065v-74l-430 -1135h-180zM164 -417v1049h181v-1049h-181zM586 441q-29 0 -49.5 21.5t-20.5 51.5q0 31 20.5 52.5t49.5 21.5t49.5 -21.5t20.5 -52.5q0 -30 -20.5 -51.5t-49.5 -21.5z" />
<glyph unicode="&#xfb48;" horiz-adv-x="1169" d="M833 0v560q0 219 -95 341.5t-282 122.5h-348v185h345q270 0 415 -159.5t145 -444.5v-605h-180zM413 471q-29 0 -49.5 21.5t-20.5 51.5q0 31 20.5 52.5t49.5 21.5t49.5 -21.5t20.5 -52.5q0 -30 -20.5 -51.5t-49.5 -21.5z" />
<glyph unicode="&#xfb49;" horiz-adv-x="1676" d="M834 -33q-152 0 -275 43t-213 128.5t-139 221.5t-49 314v535h182v-535q0 -224 104.5 -365.5t302.5 -156.5v1057h174v-1055q101 7 179.5 51t128 114.5t74.5 160.5t25 194v535h182v-539q0 -163 -49.5 -295.5t-138.5 -221.5t-214 -137.5t-274 -48.5zM1120 561 q-29 0 -49.5 21.5t-20.5 51.5q0 31 20.5 52.5t49.5 21.5t49.5 -21.5t20.5 -52.5q0 -30 -20.5 -51.5t-49.5 -21.5z" />
<glyph unicode="&#xfb4a;" horiz-adv-x="1455" d="M73 -12v174q131 -4 188 57q61 67 58 252l-6 553l-192 -2l-2 187l627 3q266 2 408.5 -154.5t142.5 -452.5v-605h-182v586q0 220 -99 332t-273 110l-254 -3l10 -547q5 -265 -97 -377q-104 -113 -298 -113h-31zM782 451q-29 0 -49.5 21.5t-20.5 51.5q0 31 20.5 52.5 t49.5 21.5t49.5 -21.5t20.5 -52.5q0 -30 -20.5 -51.5t-49.5 -21.5z" />
<glyph unicode="&#xfb4b;" horiz-adv-x="518" d="M259 1336q-29 0 -49.5 21.5t-20.5 51.5q0 31 20.5 52.5t49.5 21.5t49.5 -21.5t20.5 -52.5q0 -30 -20.5 -51.5t-49.5 -21.5zM168 0v1209h183v-1209h-183z" />
<glyph horiz-adv-x="1189" d="M853 -417v977q0 219 -96 341.5t-284 122.5h-382v185h381q270 0 415 -159t145 -445v-1022h-179zM417 424q-29 0 -49.5 21.5t-20.5 51.5q0 31 20.5 52.5t49.5 21.5t49.5 -21.5t20.5 -52.5q0 -30 -20.5 -51.5t-49.5 -21.5zM417 190q-29 0 -49.5 21.5t-20.5 51.5 q0 31 20.5 52.5t49.5 21.5t49.5 -21.5t20.5 -52.5q0 -30 -20.5 -51.5t-49.5 -21.5z" />
<glyph horiz-adv-x="1189" d="M853 -417v977q0 219 -96 341.5t-284 122.5h-382v185h381q270 0 415 -159t145 -445v-1022h-179zM614 559v-112h-169l33 -113v-111q-22 -23 -63.5 -23t-58.5 23v110l34 114h-173v112h397z" />
<glyph horiz-adv-x="1157" d="M386 0l416 1024h-720v587h181v-402h772v-72l-462 -1137h-187zM-49 1336q-29 0 -49.5 21.5t-20.5 51.5q0 31 20.5 52.5t49.5 21.5t49.5 -21.5t20.5 -52.5q0 -30 -20.5 -51.5t-49.5 -21.5z" />
<glyph horiz-adv-x="1157" d="M386 0l416 1024h-720v587h181v-402h772v-72l-462 -1137h-187zM-49 1336q-29 0 -49.5 21.5t-20.5 51.5q0 31 20.5 52.5t49.5 21.5t49.5 -21.5t20.5 -52.5q0 -30 -20.5 -51.5t-49.5 -21.5zM348 507q-29 0 -49.5 21.5t-20.5 51.5q0 31 20.5 52.5t49.5 21.5t49.5 -21.5 t20.5 -52.5q0 -30 -20.5 -51.5t-49.5 -21.5z" />
<glyph d="M76 -490v391h72v-391h-72zM-264 -266q-29 0 -50 21.5t-21 51.5q0 31 21 52.5t50 21.5t50 -21.5t21 -52.5q0 -30 -21 -51.5t-50 -21.5zM-50 -266q-29 0 -50 21.5t-21 51.5q0 31 21 52.5t50 21.5t50 -21.5t21 -52.5q0 -30 -21 -51.5t-50 -21.5zM270 -257q-26 0 -45 19.5 t-19 46.5q0 28 19 47.5t45 19.5t45 -19.5t19 -47.5q0 -27 -19 -46.5t-45 -19.5zM-158 -465q-29 0 -50 21.5t-21 51.5q0 31 21 52.5t50 21.5t50 -21.5t21 -52.5q0 -30 -21 -51.5t-50 -21.5zM270 -469q-26 0 -45 19.5t-19 46.5q0 28 19 47.5t45 19.5t45 -19.5t19 -47.5 q0 -27 -19 -46.5t-45 -19.5z" />
<glyph d="M73 -490v391h72v-391h-72zM267 -257q-26 0 -45 19.5t-19 46.5q0 28 19 47.5t45 19.5t45 -19.5t19 -47.5q0 -27 -19 -46.5t-45 -19.5zM-332 -241v112h345v-112h-345zM267 -469q-26 0 -45 19.5t-19 46.5q0 28 19 47.5t45 19.5t45 -19.5t19 -47.5q0 -27 -19 -46.5t-45 -19.5 z" />
<glyph d="M83 -490v391h72v-391h-72zM277 -257q-26 0 -45 19.5t-19 46.5q0 28 19 47.5t45 19.5t45 -19.5t19 -47.5q0 -27 -19 -46.5t-45 -19.5zM-341 -241v112h365v-112h-153l34 -113v-111q-22 -23 -64.5 -23t-59.5 23v110l34 114h-156zM277 -336q26 0 45 -19.5t19 -47.5 q0 -27 -19 -46.5t-45 -19.5t-45 19.5t-19 46.5q0 28 19 47.5t45 19.5z" />
<glyph horiz-adv-x="2883" d="M131 -22l-131 119l51 52l111 -52l163 570l-85 36l23 73h521l70 -95q-11 -26 -49 -63t-62 -50l-46 36l22 50l-6 5h-250l-43 -170h184l-36 -95q-81 -3 -132 -10q-24 -4 -38 -20t-16 -29l-77 -284q-21 -33 -72.5 -53t-101.5 -20zM1856 -12l-40 46l162 683q9 24 42 36l79 -90 l-51 -235l6 -2q73 50 178 67l4 2l63 -81l-75 -327q-25 -33 -71 -59t-93 -30l-88 79q-22 -25 -56 -51t-60 -38zM2565 537l-82 103l32 27q32 27 71 68l86 -107q-17 -28 -49.5 -54.5t-57.5 -36.5zM1590 -10l-65 77l81 313l-43 16l15 56q74 25 121 83l42 57l43 -43l-21 -72h106 l-19 -59l-101 -34l-68 -269l4 -6l70 32l31 -52q-31 -38 -88.5 -67t-107.5 -32zM2614 -10l-65 77l73 317l-42 16l14 55q32 10 71.5 36.5t65.5 59.5l32 41l43 -43l-20 -72h97l-13 -59l-105 -34l-64 -269l6 -6l68 32l33 -52q-33 -39 -88.5 -67.5t-105.5 -31.5zM2341 -12l-38 46 l95 431q20 43 58 50l75 -91l-81 -371q-37 -44 -109 -65zM1073 -12l-39 46l95 421q17 31 59 48l62 -85q82 57 192 69h8l63 -77l-89 -355q-16 -18 -49 -38.5t-58 -28.5l-38 46l78 338l-6 4q-20 -4 -50 -17.5t-51 -33.5l-70 -270q-13 -18 -47 -38.5t-60 -28.5zM810 -8 q-61 0 -91 2l-89 4l-66 73l74 307q38 89 162 105h170l60 -75l-77 -315q-38 -78 -143 -101zM713 89q91 -5 103 32l67 265l-4 4q-86 3 -99 -24l-71 -271zM2079 105l6 4l56 267l-4 4q-18 -3 -52.5 -20t-56.5 -35l-32 -145q13 -17 40 -41t43 -34z" />
<glyph horiz-adv-x="2961" d="M929 -228q-97 12 -171.5 59t-112 96t-64 120.5t-31 96.5t-8.5 60l-1 4h-119q-66 0 -119 17.5t-85.5 45t-56.5 61t-35 67.5t-17.5 61.5t-6.5 45.5l-1 17l4 566q0 64 18 116.5t46.5 84t62.5 55.5t68 34.5t62.5 17t45.5 7.5h18l2115 8q66 0 119 -17t85 -44.5t56 -61t35 -67 t17 -61t7 -45.5v-17l-2 -566q0 -64 -18 -116.5t-46.5 -84.5t-62.5 -56t-68 -35t-62.5 -17t-46.5 -7l-17 -1l-1495 -6q-101 -17 -157.5 -71.5t-62 -121t22.5 -133.5t84 -112zM776 -109q-18 42 -22 87t9 92t42.5 86.5t85 70t129.5 42.5l1489 6q6 0 16.5 0.5t41 6.5t58 16 t61 32t58 51t41.5 76.5t17 106.5l2 505q0 6 -0.5 16.5t-6 40t-15.5 56.5t-31.5 59.5t-51 56.5t-78 39.5t-108.5 15.5l-2054 -8q-6 0 -16.5 -0.5t-40.5 -6.5t-57.5 -15.5t-61 -31t-57.5 -50.5t-41 -76.5t-17 -106.5l-4 -505q0 -6 0.5 -16t6.5 -39.5t16 -56.5t32 -60 t51.5 -56.5t78 -39.5t108.5 -16h149v-16q-1 -16 0 -39t5 -54t15.5 -66t29 -70t49 -70t71.5 -63z" />
</font>
</defs>
</svg>
